<mxfile host="65bd71144e">
    <diagram id="5XUnGeaEwJHkVOFlRBsn" name="Page-2">
        <mxGraphModel dx="1770" dy="978" grid="1" gridSize="10" guides="1" tooltips="1" connect="1" arrows="1" fold="1" page="1" pageScale="1" pageWidth="5000" pageHeight="4000" math="0" shadow="0">
            <root>
                <mxCell id="0"/>
                <mxCell id="1" parent="0"/>
                <mxCell id="wgpvL4k1v6JdVOH-3TQp-3" value="Adder" style="rounded=1;whiteSpace=wrap;html=1;strokeWidth=5;fontSize=97;gradientColor=none;verticalAlign=bottom;" parent="1" vertex="1">
                    <mxGeometry x="1590" y="850" width="740" height="1010" as="geometry"/>
                </mxCell>
                <mxCell id="T9nAUPtxoIoxhVOJAn20-1" style="edgeStyle=none;html=1;strokeWidth=5;" parent="1" target="wgpvL4k1v6JdVOH-3TQp-4" edge="1">
                    <mxGeometry relative="1" as="geometry">
                        <mxPoint x="1380" y="1035" as="sourcePoint"/>
                    </mxGeometry>
                </mxCell>
                <mxCell id="wgpvL4k1v6JdVOH-3TQp-4" value="A" style="text;html=1;align=center;verticalAlign=middle;resizable=0;points=[];autosize=1;strokeColor=none;fillColor=none;fontSize=97;" parent="1" vertex="1">
                    <mxGeometry x="1590" y="970" width="90" height="130" as="geometry"/>
                </mxCell>
                <mxCell id="T9nAUPtxoIoxhVOJAn20-2" style="edgeStyle=none;html=1;strokeWidth=5;" parent="1" target="wgpvL4k1v6JdVOH-3TQp-5" edge="1">
                    <mxGeometry relative="1" as="geometry">
                        <mxPoint x="1370" y="1325" as="sourcePoint"/>
                    </mxGeometry>
                </mxCell>
                <mxCell id="wgpvL4k1v6JdVOH-3TQp-5" value="B" style="text;html=1;align=center;verticalAlign=middle;resizable=0;points=[];autosize=1;strokeColor=none;fillColor=none;fontSize=97;" parent="1" vertex="1">
                    <mxGeometry x="1590" y="1260" width="90" height="130" as="geometry"/>
                </mxCell>
                <mxCell id="T9nAUPtxoIoxhVOJAn20-3" style="edgeStyle=none;html=1;strokeWidth=5;" parent="1" target="wgpvL4k1v6JdVOH-3TQp-6" edge="1">
                    <mxGeometry relative="1" as="geometry">
                        <mxPoint x="1370" y="1575" as="sourcePoint"/>
                    </mxGeometry>
                </mxCell>
                <mxCell id="wgpvL4k1v6JdVOH-3TQp-6" value="Ci" style="text;html=1;align=center;verticalAlign=middle;resizable=0;points=[];autosize=1;strokeColor=none;fillColor=none;fontSize=97;" parent="1" vertex="1">
                    <mxGeometry x="1590" y="1510" width="120" height="130" as="geometry"/>
                </mxCell>
                <mxCell id="T9nAUPtxoIoxhVOJAn20-4" style="edgeStyle=none;html=1;strokeWidth=5;" parent="1" source="wgpvL4k1v6JdVOH-3TQp-7" edge="1">
                    <mxGeometry relative="1" as="geometry">
                        <mxPoint x="2490" y="1035" as="targetPoint"/>
                    </mxGeometry>
                </mxCell>
                <mxCell id="wgpvL4k1v6JdVOH-3TQp-7" value="S" style="text;html=1;align=center;verticalAlign=middle;resizable=0;points=[];autosize=1;strokeColor=none;fillColor=none;fontSize=97;" parent="1" vertex="1">
                    <mxGeometry x="2240" y="970" width="90" height="130" as="geometry"/>
                </mxCell>
                <mxCell id="T9nAUPtxoIoxhVOJAn20-5" style="edgeStyle=none;html=1;strokeWidth=5;" parent="1" source="wgpvL4k1v6JdVOH-3TQp-8" edge="1">
                    <mxGeometry relative="1" as="geometry">
                        <mxPoint x="2470" y="1570" as="targetPoint"/>
                    </mxGeometry>
                </mxCell>
                <mxCell id="wgpvL4k1v6JdVOH-3TQp-8" value="Co" style="text;html=1;align=center;verticalAlign=middle;resizable=0;points=[];autosize=1;strokeColor=none;fillColor=none;fontSize=97;" parent="1" vertex="1">
                    <mxGeometry x="2180" y="1504" width="150" height="130" as="geometry"/>
                </mxCell>
            </root>
        </mxGraphModel>
    </diagram>
    <diagram id="PA2I2nunzaI1LZdDIepN" name="Page-1">
        <mxGraphModel dx="7133" dy="6520" grid="1" gridSize="10" guides="1" tooltips="1" connect="1" arrows="1" fold="1" page="1" pageScale="1" pageWidth="5000" pageHeight="4000" math="0" shadow="0">
            <root>
                <mxCell id="0"/>
                <mxCell id="1" parent="0"/>
                <mxCell id="698" value="" style="whiteSpace=wrap;html=1;strokeWidth=5;fontSize=90;gradientColor=none;" parent="1" vertex="1">
                    <mxGeometry x="310" y="540" width="7790" height="220" as="geometry"/>
                </mxCell>
                <mxCell id="664" style="html=1;exitX=0.5;exitY=1;exitDx=0;exitDy=0;entryX=0.5;entryY=0;entryDx=0;entryDy=0;strokeWidth=5;fontSize=90;dashed=1;endArrow=none;endFill=0;" parent="1" source="3" target="485" edge="1">
                    <mxGeometry relative="1" as="geometry"/>
                </mxCell>
                <mxCell id="3" value="" style="ellipse;whiteSpace=wrap;html=1;aspect=fixed;strokeWidth=5;fontSize=90;" parent="1" vertex="1">
                    <mxGeometry x="500" y="600" width="80" height="80" as="geometry"/>
                </mxCell>
                <mxCell id="126" style="edgeStyle=none;html=1;exitX=0;exitY=1;exitDx=0;exitDy=0;entryX=1;entryY=0;entryDx=0;entryDy=0;strokeWidth=5;fontSize=90;" parent="1" source="4" target="35" edge="1">
                    <mxGeometry relative="1" as="geometry"/>
                </mxCell>
                <mxCell id="665" style="edgeStyle=none;html=1;exitX=0.5;exitY=1;exitDx=0;exitDy=0;entryX=0.5;entryY=0;entryDx=0;entryDy=0;dashed=1;strokeWidth=5;fontSize=90;endArrow=none;endFill=0;" parent="1" source="4" target="486" edge="1">
                    <mxGeometry relative="1" as="geometry"/>
                </mxCell>
                <mxCell id="4" value="" style="ellipse;whiteSpace=wrap;html=1;aspect=fixed;strokeWidth=5;fontSize=90;" parent="1" vertex="1">
                    <mxGeometry x="740" y="600" width="80" height="80" as="geometry"/>
                </mxCell>
                <mxCell id="666" style="edgeStyle=none;html=1;exitX=0.5;exitY=1;exitDx=0;exitDy=0;entryX=0.5;entryY=0;entryDx=0;entryDy=0;dashed=1;strokeWidth=5;fontSize=90;endArrow=none;endFill=0;" parent="1" source="5" target="487" edge="1">
                    <mxGeometry relative="1" as="geometry"/>
                </mxCell>
                <mxCell id="5" value="" style="ellipse;whiteSpace=wrap;html=1;aspect=fixed;strokeWidth=5;fontSize=90;" parent="1" vertex="1">
                    <mxGeometry x="980" y="600" width="80" height="80" as="geometry"/>
                </mxCell>
                <mxCell id="125" style="edgeStyle=none;html=1;exitX=0;exitY=1;exitDx=0;exitDy=0;strokeWidth=5;fontSize=90;" parent="1" source="6" target="37" edge="1">
                    <mxGeometry relative="1" as="geometry"/>
                </mxCell>
                <mxCell id="667" style="edgeStyle=none;html=1;exitX=0.5;exitY=1;exitDx=0;exitDy=0;entryX=0.5;entryY=0;entryDx=0;entryDy=0;dashed=1;strokeWidth=5;fontSize=90;endArrow=none;endFill=0;" parent="1" source="6" target="488" edge="1">
                    <mxGeometry relative="1" as="geometry"/>
                </mxCell>
                <mxCell id="6" value="" style="ellipse;whiteSpace=wrap;html=1;aspect=fixed;strokeWidth=5;fontSize=90;" parent="1" vertex="1">
                    <mxGeometry x="1220" y="600" width="80" height="80" as="geometry"/>
                </mxCell>
                <mxCell id="668" style="edgeStyle=none;html=1;exitX=0.5;exitY=1;exitDx=0;exitDy=0;entryX=0.5;entryY=0;entryDx=0;entryDy=0;dashed=1;strokeWidth=5;fontSize=90;endArrow=none;endFill=0;" parent="1" source="7" target="489" edge="1">
                    <mxGeometry relative="1" as="geometry"/>
                </mxCell>
                <mxCell id="7" value="" style="ellipse;whiteSpace=wrap;html=1;aspect=fixed;strokeWidth=5;fontSize=90;" parent="1" vertex="1">
                    <mxGeometry x="1460" y="600" width="80" height="80" as="geometry"/>
                </mxCell>
                <mxCell id="124" style="edgeStyle=none;html=1;exitX=0;exitY=1;exitDx=0;exitDy=0;entryX=1;entryY=0;entryDx=0;entryDy=0;strokeWidth=5;fontSize=90;" parent="1" source="8" target="39" edge="1">
                    <mxGeometry relative="1" as="geometry"/>
                </mxCell>
                <mxCell id="669" style="edgeStyle=none;html=1;exitX=0.5;exitY=1;exitDx=0;exitDy=0;entryX=0.5;entryY=0;entryDx=0;entryDy=0;dashed=1;strokeWidth=5;fontSize=90;endArrow=none;endFill=0;" parent="1" source="8" target="490" edge="1">
                    <mxGeometry relative="1" as="geometry"/>
                </mxCell>
                <mxCell id="8" value="" style="ellipse;whiteSpace=wrap;html=1;aspect=fixed;strokeWidth=5;fontSize=90;" parent="1" vertex="1">
                    <mxGeometry x="1700" y="600" width="80" height="80" as="geometry"/>
                </mxCell>
                <mxCell id="9" value="" style="ellipse;whiteSpace=wrap;html=1;aspect=fixed;strokeWidth=5;fontSize=90;" parent="1" vertex="1">
                    <mxGeometry x="1940" y="600" width="80" height="80" as="geometry"/>
                </mxCell>
                <mxCell id="123" style="edgeStyle=none;html=1;exitX=0;exitY=1;exitDx=0;exitDy=0;entryX=1;entryY=0;entryDx=0;entryDy=0;strokeWidth=5;fontSize=90;" parent="1" source="10" target="41" edge="1">
                    <mxGeometry relative="1" as="geometry"/>
                </mxCell>
                <mxCell id="671" style="edgeStyle=none;html=1;exitX=0.5;exitY=1;exitDx=0;exitDy=0;entryX=0.5;entryY=0;entryDx=0;entryDy=0;dashed=1;strokeWidth=5;fontSize=90;endArrow=none;endFill=0;" parent="1" source="10" target="492" edge="1">
                    <mxGeometry relative="1" as="geometry"/>
                </mxCell>
                <mxCell id="10" value="" style="ellipse;whiteSpace=wrap;html=1;aspect=fixed;strokeWidth=5;fontSize=90;" parent="1" vertex="1">
                    <mxGeometry x="2180" y="600" width="80" height="80" as="geometry"/>
                </mxCell>
                <mxCell id="672" style="edgeStyle=none;html=1;exitX=0.5;exitY=1;exitDx=0;exitDy=0;entryX=0.5;entryY=0;entryDx=0;entryDy=0;dashed=1;strokeWidth=5;fontSize=90;endArrow=none;endFill=0;" parent="1" source="11" target="493" edge="1">
                    <mxGeometry relative="1" as="geometry"/>
                </mxCell>
                <mxCell id="11" value="" style="ellipse;whiteSpace=wrap;html=1;aspect=fixed;strokeWidth=5;fontSize=90;" parent="1" vertex="1">
                    <mxGeometry x="2420" y="600" width="80" height="80" as="geometry"/>
                </mxCell>
                <mxCell id="122" style="edgeStyle=none;html=1;exitX=0;exitY=1;exitDx=0;exitDy=0;strokeWidth=5;fontSize=90;" parent="1" source="12" target="43" edge="1">
                    <mxGeometry relative="1" as="geometry"/>
                </mxCell>
                <mxCell id="673" style="edgeStyle=none;html=1;exitX=0.5;exitY=1;exitDx=0;exitDy=0;entryX=0.5;entryY=0;entryDx=0;entryDy=0;dashed=1;strokeWidth=5;fontSize=90;endArrow=none;endFill=0;" parent="1" source="12" target="494" edge="1">
                    <mxGeometry relative="1" as="geometry"/>
                </mxCell>
                <mxCell id="12" value="" style="ellipse;whiteSpace=wrap;html=1;aspect=fixed;strokeWidth=5;fontSize=90;" parent="1" vertex="1">
                    <mxGeometry x="2660" y="600" width="80" height="80" as="geometry"/>
                </mxCell>
                <mxCell id="674" style="edgeStyle=none;html=1;exitX=0.5;exitY=1;exitDx=0;exitDy=0;entryX=0.5;entryY=0;entryDx=0;entryDy=0;dashed=1;strokeWidth=5;fontSize=90;endArrow=none;endFill=0;" parent="1" source="13" target="495" edge="1">
                    <mxGeometry relative="1" as="geometry"/>
                </mxCell>
                <mxCell id="13" value="" style="ellipse;whiteSpace=wrap;html=1;aspect=fixed;strokeWidth=5;fontSize=90;" parent="1" vertex="1">
                    <mxGeometry x="2900" y="600" width="80" height="80" as="geometry"/>
                </mxCell>
                <mxCell id="121" style="edgeStyle=none;html=1;exitX=0;exitY=1;exitDx=0;exitDy=0;entryX=1;entryY=0;entryDx=0;entryDy=0;strokeWidth=5;fontSize=90;" parent="1" source="14" target="45" edge="1">
                    <mxGeometry relative="1" as="geometry"/>
                </mxCell>
                <mxCell id="675" style="edgeStyle=none;html=1;exitX=0.5;exitY=1;exitDx=0;exitDy=0;entryX=0.5;entryY=0;entryDx=0;entryDy=0;dashed=1;strokeWidth=5;fontSize=90;endArrow=none;endFill=0;" parent="1" source="14" target="496" edge="1">
                    <mxGeometry relative="1" as="geometry"/>
                </mxCell>
                <mxCell id="14" value="" style="ellipse;whiteSpace=wrap;html=1;aspect=fixed;strokeWidth=5;fontSize=90;" parent="1" vertex="1">
                    <mxGeometry x="3140" y="600" width="80" height="80" as="geometry"/>
                </mxCell>
                <mxCell id="676" style="edgeStyle=none;html=1;exitX=0.5;exitY=1;exitDx=0;exitDy=0;entryX=0.5;entryY=0;entryDx=0;entryDy=0;dashed=1;strokeWidth=5;fontSize=90;endArrow=none;endFill=0;" parent="1" source="15" target="497" edge="1">
                    <mxGeometry relative="1" as="geometry"/>
                </mxCell>
                <mxCell id="15" value="" style="ellipse;whiteSpace=wrap;html=1;aspect=fixed;strokeWidth=5;fontSize=90;" parent="1" vertex="1">
                    <mxGeometry x="3380" y="600" width="80" height="80" as="geometry"/>
                </mxCell>
                <mxCell id="120" style="edgeStyle=none;html=1;exitX=0;exitY=1;exitDx=0;exitDy=0;entryX=1;entryY=0;entryDx=0;entryDy=0;strokeWidth=5;fontSize=90;" parent="1" source="16" target="47" edge="1">
                    <mxGeometry relative="1" as="geometry"/>
                </mxCell>
                <mxCell id="677" style="edgeStyle=none;html=1;exitX=0.5;exitY=1;exitDx=0;exitDy=0;entryX=0.5;entryY=0;entryDx=0;entryDy=0;dashed=1;strokeWidth=5;fontSize=90;endArrow=none;endFill=0;" parent="1" source="16" target="498" edge="1">
                    <mxGeometry relative="1" as="geometry"/>
                </mxCell>
                <mxCell id="16" value="" style="ellipse;whiteSpace=wrap;html=1;aspect=fixed;strokeWidth=5;fontSize=90;" parent="1" vertex="1">
                    <mxGeometry x="3620" y="600" width="80" height="80" as="geometry"/>
                </mxCell>
                <mxCell id="679" style="edgeStyle=none;html=1;exitX=0.5;exitY=1;exitDx=0;exitDy=0;entryX=0.5;entryY=0;entryDx=0;entryDy=0;dashed=1;strokeWidth=5;fontSize=90;endArrow=none;endFill=0;" parent="1" source="17" target="499" edge="1">
                    <mxGeometry relative="1" as="geometry"/>
                </mxCell>
                <mxCell id="17" value="" style="ellipse;whiteSpace=wrap;html=1;aspect=fixed;strokeWidth=5;fontSize=90;" parent="1" vertex="1">
                    <mxGeometry x="3860" y="600" width="80" height="80" as="geometry"/>
                </mxCell>
                <mxCell id="119" style="edgeStyle=none;html=1;exitX=0;exitY=1;exitDx=0;exitDy=0;entryX=1;entryY=0;entryDx=0;entryDy=0;strokeWidth=5;fontSize=90;" parent="1" source="18" target="49" edge="1">
                    <mxGeometry relative="1" as="geometry"/>
                </mxCell>
                <mxCell id="680" style="edgeStyle=none;html=1;exitX=0.5;exitY=1;exitDx=0;exitDy=0;entryX=0.5;entryY=0;entryDx=0;entryDy=0;dashed=1;strokeWidth=5;fontSize=90;endArrow=none;endFill=0;" parent="1" source="18" target="500" edge="1">
                    <mxGeometry relative="1" as="geometry"/>
                </mxCell>
                <mxCell id="18" value="" style="ellipse;whiteSpace=wrap;html=1;aspect=fixed;strokeWidth=5;fontSize=90;" parent="1" vertex="1">
                    <mxGeometry x="4100" y="600" width="80" height="80" as="geometry"/>
                </mxCell>
                <mxCell id="681" style="edgeStyle=none;html=1;exitX=0.5;exitY=1;exitDx=0;exitDy=0;entryX=0.5;entryY=0;entryDx=0;entryDy=0;dashed=1;strokeWidth=5;fontSize=90;endArrow=none;endFill=0;" parent="1" source="19" target="501" edge="1">
                    <mxGeometry relative="1" as="geometry"/>
                </mxCell>
                <mxCell id="19" value="" style="ellipse;whiteSpace=wrap;html=1;aspect=fixed;strokeWidth=5;fontSize=90;" parent="1" vertex="1">
                    <mxGeometry x="4340" y="600" width="80" height="80" as="geometry"/>
                </mxCell>
                <mxCell id="118" style="edgeStyle=none;html=1;exitX=0;exitY=1;exitDx=0;exitDy=0;entryX=1;entryY=0;entryDx=0;entryDy=0;strokeWidth=5;fontSize=90;" parent="1" source="20" target="51" edge="1">
                    <mxGeometry relative="1" as="geometry"/>
                </mxCell>
                <mxCell id="682" style="edgeStyle=none;html=1;exitX=0.5;exitY=1;exitDx=0;exitDy=0;entryX=0.5;entryY=0;entryDx=0;entryDy=0;dashed=1;strokeWidth=5;fontSize=90;endArrow=none;endFill=0;" parent="1" source="20" target="502" edge="1">
                    <mxGeometry relative="1" as="geometry"/>
                </mxCell>
                <mxCell id="20" value="" style="ellipse;whiteSpace=wrap;html=1;aspect=fixed;strokeWidth=5;fontSize=90;" parent="1" vertex="1">
                    <mxGeometry x="4580" y="600" width="80" height="80" as="geometry"/>
                </mxCell>
                <mxCell id="683" style="edgeStyle=none;html=1;exitX=0.5;exitY=1;exitDx=0;exitDy=0;entryX=0.5;entryY=0;entryDx=0;entryDy=0;dashed=1;strokeWidth=5;fontSize=90;endArrow=none;endFill=0;" parent="1" source="21" target="503" edge="1">
                    <mxGeometry relative="1" as="geometry"/>
                </mxCell>
                <mxCell id="21" value="" style="ellipse;whiteSpace=wrap;html=1;aspect=fixed;strokeWidth=5;fontSize=90;" parent="1" vertex="1">
                    <mxGeometry x="4820" y="600" width="80" height="80" as="geometry"/>
                </mxCell>
                <mxCell id="116" style="edgeStyle=none;html=1;exitX=0;exitY=1;exitDx=0;exitDy=0;entryX=1;entryY=0;entryDx=0;entryDy=0;strokeWidth=5;fontSize=90;" parent="1" source="22" target="53" edge="1">
                    <mxGeometry relative="1" as="geometry"/>
                </mxCell>
                <mxCell id="684" style="edgeStyle=none;html=1;exitX=0.5;exitY=1;exitDx=0;exitDy=0;entryX=0.5;entryY=0;entryDx=0;entryDy=0;dashed=1;strokeWidth=5;fontSize=90;endArrow=none;endFill=0;" parent="1" source="22" target="504" edge="1">
                    <mxGeometry relative="1" as="geometry"/>
                </mxCell>
                <mxCell id="22" value="" style="ellipse;whiteSpace=wrap;html=1;aspect=fixed;strokeWidth=5;fontSize=90;" parent="1" vertex="1">
                    <mxGeometry x="5060" y="600" width="80" height="80" as="geometry"/>
                </mxCell>
                <mxCell id="685" style="edgeStyle=none;html=1;exitX=0.5;exitY=1;exitDx=0;exitDy=0;entryX=0.5;entryY=0;entryDx=0;entryDy=0;dashed=1;strokeWidth=5;fontSize=90;endArrow=none;endFill=0;" parent="1" source="23" target="505" edge="1">
                    <mxGeometry relative="1" as="geometry"/>
                </mxCell>
                <mxCell id="23" value="" style="ellipse;whiteSpace=wrap;html=1;aspect=fixed;strokeWidth=5;fontSize=90;" parent="1" vertex="1">
                    <mxGeometry x="5300" y="600" width="80" height="80" as="geometry"/>
                </mxCell>
                <mxCell id="114" style="edgeStyle=none;html=1;exitX=0;exitY=1;exitDx=0;exitDy=0;entryX=1;entryY=0;entryDx=0;entryDy=0;strokeWidth=5;fontSize=90;" parent="1" source="24" target="55" edge="1">
                    <mxGeometry relative="1" as="geometry"/>
                </mxCell>
                <mxCell id="686" style="edgeStyle=none;html=1;exitX=0.5;exitY=1;exitDx=0;exitDy=0;entryX=0.5;entryY=0;entryDx=0;entryDy=0;dashed=1;strokeWidth=5;fontSize=90;endArrow=none;endFill=0;" parent="1" source="24" target="506" edge="1">
                    <mxGeometry relative="1" as="geometry"/>
                </mxCell>
                <mxCell id="24" value="" style="ellipse;whiteSpace=wrap;html=1;aspect=fixed;strokeWidth=5;fontSize=90;" parent="1" vertex="1">
                    <mxGeometry x="5540" y="600" width="80" height="80" as="geometry"/>
                </mxCell>
                <mxCell id="687" style="edgeStyle=none;html=1;exitX=0.5;exitY=1;exitDx=0;exitDy=0;entryX=0.5;entryY=0;entryDx=0;entryDy=0;dashed=1;strokeWidth=5;fontSize=90;endArrow=none;endFill=0;" parent="1" source="25" target="507" edge="1">
                    <mxGeometry relative="1" as="geometry"/>
                </mxCell>
                <mxCell id="25" value="" style="ellipse;whiteSpace=wrap;html=1;aspect=fixed;strokeWidth=5;fontSize=90;" parent="1" vertex="1">
                    <mxGeometry x="5780" y="600" width="80" height="80" as="geometry"/>
                </mxCell>
                <mxCell id="113" style="edgeStyle=none;html=1;exitX=0;exitY=1;exitDx=0;exitDy=0;entryX=1;entryY=0;entryDx=0;entryDy=0;strokeWidth=5;fontSize=90;" parent="1" source="26" target="57" edge="1">
                    <mxGeometry relative="1" as="geometry"/>
                </mxCell>
                <mxCell id="688" style="edgeStyle=none;html=1;exitX=0.5;exitY=1;exitDx=0;exitDy=0;entryX=0.5;entryY=0;entryDx=0;entryDy=0;dashed=1;strokeWidth=5;fontSize=90;endArrow=none;endFill=0;" parent="1" source="26" target="508" edge="1">
                    <mxGeometry relative="1" as="geometry"/>
                </mxCell>
                <mxCell id="26" value="" style="ellipse;whiteSpace=wrap;html=1;aspect=fixed;strokeWidth=5;fontSize=90;" parent="1" vertex="1">
                    <mxGeometry x="6020" y="600" width="80" height="80" as="geometry"/>
                </mxCell>
                <mxCell id="689" style="edgeStyle=none;html=1;exitX=0.5;exitY=1;exitDx=0;exitDy=0;entryX=0.5;entryY=0;entryDx=0;entryDy=0;dashed=1;strokeWidth=5;fontSize=90;endArrow=none;endFill=0;" parent="1" source="27" target="509" edge="1">
                    <mxGeometry relative="1" as="geometry"/>
                </mxCell>
                <mxCell id="27" value="" style="ellipse;whiteSpace=wrap;html=1;aspect=fixed;strokeWidth=5;fontSize=90;" parent="1" vertex="1">
                    <mxGeometry x="6260" y="600" width="80" height="80" as="geometry"/>
                </mxCell>
                <mxCell id="112" style="edgeStyle=none;html=1;exitX=0;exitY=1;exitDx=0;exitDy=0;entryX=1;entryY=0;entryDx=0;entryDy=0;strokeWidth=5;fontSize=90;" parent="1" source="28" target="59" edge="1">
                    <mxGeometry relative="1" as="geometry"/>
                </mxCell>
                <mxCell id="690" style="edgeStyle=none;html=1;exitX=0.5;exitY=1;exitDx=0;exitDy=0;entryX=0.5;entryY=0;entryDx=0;entryDy=0;dashed=1;strokeWidth=5;fontSize=90;endArrow=none;endFill=0;" parent="1" source="28" target="510" edge="1">
                    <mxGeometry relative="1" as="geometry"/>
                </mxCell>
                <mxCell id="28" value="" style="ellipse;whiteSpace=wrap;html=1;aspect=fixed;strokeWidth=5;fontSize=90;" parent="1" vertex="1">
                    <mxGeometry x="6500" y="600" width="80" height="80" as="geometry"/>
                </mxCell>
                <mxCell id="691" style="edgeStyle=none;html=1;exitX=0.5;exitY=1;exitDx=0;exitDy=0;entryX=0.5;entryY=0;entryDx=0;entryDy=0;dashed=1;strokeWidth=5;fontSize=90;endArrow=none;endFill=0;" parent="1" source="29" target="511" edge="1">
                    <mxGeometry relative="1" as="geometry"/>
                </mxCell>
                <mxCell id="29" value="" style="ellipse;whiteSpace=wrap;html=1;aspect=fixed;strokeWidth=5;fontSize=90;" parent="1" vertex="1">
                    <mxGeometry x="6740" y="600" width="80" height="80" as="geometry"/>
                </mxCell>
                <mxCell id="110" style="edgeStyle=none;html=1;exitX=0;exitY=1;exitDx=0;exitDy=0;entryX=1;entryY=0;entryDx=0;entryDy=0;strokeWidth=5;fontSize=90;" parent="1" source="30" target="61" edge="1">
                    <mxGeometry relative="1" as="geometry"/>
                </mxCell>
                <mxCell id="692" style="edgeStyle=none;html=1;exitX=0.5;exitY=1;exitDx=0;exitDy=0;entryX=0.5;entryY=0;entryDx=0;entryDy=0;dashed=1;strokeWidth=5;fontSize=90;endArrow=none;endFill=0;" parent="1" source="30" target="512" edge="1">
                    <mxGeometry relative="1" as="geometry"/>
                </mxCell>
                <mxCell id="30" value="" style="ellipse;whiteSpace=wrap;html=1;aspect=fixed;strokeWidth=5;fontSize=90;" parent="1" vertex="1">
                    <mxGeometry x="6980" y="600" width="80" height="80" as="geometry"/>
                </mxCell>
                <mxCell id="693" style="edgeStyle=none;html=1;exitX=0.5;exitY=1;exitDx=0;exitDy=0;entryX=0.5;entryY=0;entryDx=0;entryDy=0;dashed=1;strokeWidth=5;fontSize=90;endArrow=none;endFill=0;" parent="1" source="31" target="513" edge="1">
                    <mxGeometry relative="1" as="geometry"/>
                </mxCell>
                <mxCell id="31" value="" style="ellipse;whiteSpace=wrap;html=1;aspect=fixed;strokeWidth=5;fontSize=90;" parent="1" vertex="1">
                    <mxGeometry x="7220" y="600" width="80" height="80" as="geometry"/>
                </mxCell>
                <mxCell id="109" style="edgeStyle=none;html=1;exitX=0;exitY=1;exitDx=0;exitDy=0;entryX=1;entryY=0;entryDx=0;entryDy=0;strokeWidth=5;fontSize=90;" parent="1" source="32" target="63" edge="1">
                    <mxGeometry relative="1" as="geometry"/>
                </mxCell>
                <mxCell id="694" style="edgeStyle=none;html=1;exitX=0.5;exitY=1;exitDx=0;exitDy=0;entryX=0.5;entryY=0;entryDx=0;entryDy=0;dashed=1;strokeWidth=5;fontSize=90;endArrow=none;endFill=0;" parent="1" source="32" target="514" edge="1">
                    <mxGeometry relative="1" as="geometry"/>
                </mxCell>
                <mxCell id="32" value="" style="ellipse;whiteSpace=wrap;html=1;aspect=fixed;strokeWidth=5;fontSize=90;" parent="1" vertex="1">
                    <mxGeometry x="7460" y="600" width="80" height="80" as="geometry"/>
                </mxCell>
                <mxCell id="695" style="edgeStyle=none;html=1;exitX=0.5;exitY=1;exitDx=0;exitDy=0;entryX=0.5;entryY=0;entryDx=0;entryDy=0;dashed=1;strokeWidth=5;fontSize=90;endArrow=none;endFill=0;" parent="1" source="33" target="515" edge="1">
                    <mxGeometry relative="1" as="geometry"/>
                </mxCell>
                <mxCell id="33" value="" style="ellipse;whiteSpace=wrap;html=1;aspect=fixed;strokeWidth=5;fontSize=90;" parent="1" vertex="1">
                    <mxGeometry x="7700" y="600" width="80" height="80" as="geometry"/>
                </mxCell>
                <mxCell id="108" style="edgeStyle=none;html=1;exitX=0;exitY=1;exitDx=0;exitDy=0;entryX=1;entryY=0;entryDx=0;entryDy=0;strokeWidth=5;fontSize=90;" parent="1" source="34" target="65" edge="1">
                    <mxGeometry relative="1" as="geometry"/>
                </mxCell>
                <mxCell id="696" style="edgeStyle=none;html=1;exitX=0.5;exitY=1;exitDx=0;exitDy=0;entryX=0.5;entryY=0;entryDx=0;entryDy=0;dashed=1;strokeWidth=5;fontSize=90;endArrow=none;endFill=0;" parent="1" source="34" target="516" edge="1">
                    <mxGeometry relative="1" as="geometry"/>
                </mxCell>
                <mxCell id="34" value="" style="ellipse;whiteSpace=wrap;html=1;aspect=fixed;strokeWidth=5;fontSize=90;" parent="1" vertex="1">
                    <mxGeometry x="7940" y="600" width="80" height="80" as="geometry"/>
                </mxCell>
                <mxCell id="35" value="" style="ellipse;whiteSpace=wrap;html=1;aspect=fixed;strokeWidth=5;fontSize=90;" parent="1" vertex="1">
                    <mxGeometry x="500" y="940" width="80" height="80" as="geometry"/>
                </mxCell>
                <mxCell id="166" style="edgeStyle=none;html=1;exitX=0;exitY=1;exitDx=0;exitDy=0;entryX=1;entryY=0;entryDx=0;entryDy=0;strokeWidth=5;fontSize=90;" parent="1" source="37" target="127" edge="1">
                    <mxGeometry relative="1" as="geometry"/>
                </mxCell>
                <mxCell id="37" value="" style="ellipse;whiteSpace=wrap;html=1;aspect=fixed;strokeWidth=5;fontSize=90;" parent="1" vertex="1">
                    <mxGeometry x="980" y="940" width="80" height="80" as="geometry"/>
                </mxCell>
                <mxCell id="39" value="" style="ellipse;whiteSpace=wrap;html=1;aspect=fixed;strokeWidth=5;fontSize=90;" parent="1" vertex="1">
                    <mxGeometry x="1460" y="940" width="80" height="80" as="geometry"/>
                </mxCell>
                <mxCell id="165" style="edgeStyle=none;html=1;exitX=0;exitY=1;exitDx=0;exitDy=0;entryX=1;entryY=0;entryDx=0;entryDy=0;strokeWidth=5;fontSize=90;" parent="1" source="41" target="131" edge="1">
                    <mxGeometry relative="1" as="geometry"/>
                </mxCell>
                <mxCell id="670" style="edgeStyle=none;html=1;exitX=0.5;exitY=1;exitDx=0;exitDy=0;entryX=0.5;entryY=0;entryDx=0;entryDy=0;dashed=1;strokeWidth=5;fontSize=90;endArrow=none;endFill=0;" parent="1" source="41" target="491" edge="1">
                    <mxGeometry relative="1" as="geometry"/>
                </mxCell>
                <mxCell id="41" value="" style="ellipse;whiteSpace=wrap;html=1;aspect=fixed;strokeWidth=5;fontSize=90;" parent="1" vertex="1">
                    <mxGeometry x="1940" y="940" width="80" height="80" as="geometry"/>
                </mxCell>
                <mxCell id="43" value="" style="ellipse;whiteSpace=wrap;html=1;aspect=fixed;strokeWidth=5;fontSize=90;" parent="1" vertex="1">
                    <mxGeometry x="2420" y="940" width="80" height="80" as="geometry"/>
                </mxCell>
                <mxCell id="164" style="edgeStyle=none;html=1;exitX=0;exitY=1;exitDx=0;exitDy=0;entryX=1;entryY=0;entryDx=0;entryDy=0;strokeWidth=5;fontSize=90;" parent="1" source="45" target="135" edge="1">
                    <mxGeometry relative="1" as="geometry"/>
                </mxCell>
                <mxCell id="45" value="" style="ellipse;whiteSpace=wrap;html=1;aspect=fixed;strokeWidth=5;fontSize=90;" parent="1" vertex="1">
                    <mxGeometry x="2900" y="940" width="80" height="80" as="geometry"/>
                </mxCell>
                <mxCell id="47" value="" style="ellipse;whiteSpace=wrap;html=1;aspect=fixed;strokeWidth=5;fontSize=90;" parent="1" vertex="1">
                    <mxGeometry x="3380" y="940" width="80" height="80" as="geometry"/>
                </mxCell>
                <mxCell id="163" style="edgeStyle=none;html=1;exitX=0;exitY=1;exitDx=0;exitDy=0;entryX=1;entryY=0;entryDx=0;entryDy=0;strokeWidth=5;fontSize=90;" parent="1" source="49" target="139" edge="1">
                    <mxGeometry relative="1" as="geometry"/>
                </mxCell>
                <mxCell id="49" value="" style="ellipse;whiteSpace=wrap;html=1;aspect=fixed;strokeWidth=5;fontSize=90;" parent="1" vertex="1">
                    <mxGeometry x="3860" y="940" width="80" height="80" as="geometry"/>
                </mxCell>
                <mxCell id="51" value="" style="ellipse;whiteSpace=wrap;html=1;aspect=fixed;strokeWidth=5;fontSize=90;" parent="1" vertex="1">
                    <mxGeometry x="4340" y="940" width="80" height="80" as="geometry"/>
                </mxCell>
                <mxCell id="162" style="edgeStyle=none;html=1;exitX=0;exitY=1;exitDx=0;exitDy=0;entryX=1;entryY=0;entryDx=0;entryDy=0;strokeWidth=5;fontSize=90;" parent="1" source="53" target="143" edge="1">
                    <mxGeometry relative="1" as="geometry"/>
                </mxCell>
                <mxCell id="53" value="" style="ellipse;whiteSpace=wrap;html=1;aspect=fixed;strokeWidth=5;fontSize=90;" parent="1" vertex="1">
                    <mxGeometry x="4820" y="940" width="80" height="80" as="geometry"/>
                </mxCell>
                <mxCell id="55" value="" style="ellipse;whiteSpace=wrap;html=1;aspect=fixed;strokeWidth=5;fontSize=90;" parent="1" vertex="1">
                    <mxGeometry x="5300" y="940" width="80" height="80" as="geometry"/>
                </mxCell>
                <mxCell id="161" style="edgeStyle=none;html=1;exitX=0;exitY=1;exitDx=0;exitDy=0;entryX=1;entryY=0;entryDx=0;entryDy=0;strokeWidth=5;fontSize=90;" parent="1" source="57" target="147" edge="1">
                    <mxGeometry relative="1" as="geometry"/>
                </mxCell>
                <mxCell id="57" value="" style="ellipse;whiteSpace=wrap;html=1;aspect=fixed;strokeWidth=5;fontSize=90;" parent="1" vertex="1">
                    <mxGeometry x="5780" y="940" width="80" height="80" as="geometry"/>
                </mxCell>
                <mxCell id="59" value="" style="ellipse;whiteSpace=wrap;html=1;aspect=fixed;strokeWidth=5;fontSize=90;" parent="1" vertex="1">
                    <mxGeometry x="6260" y="940" width="80" height="80" as="geometry"/>
                </mxCell>
                <mxCell id="160" style="edgeStyle=none;html=1;exitX=0;exitY=1;exitDx=0;exitDy=0;entryX=1;entryY=0;entryDx=0;entryDy=0;strokeWidth=5;fontSize=90;" parent="1" source="61" target="151" edge="1">
                    <mxGeometry relative="1" as="geometry"/>
                </mxCell>
                <mxCell id="61" value="" style="ellipse;whiteSpace=wrap;html=1;aspect=fixed;strokeWidth=5;fontSize=90;" parent="1" vertex="1">
                    <mxGeometry x="6740" y="940" width="80" height="80" as="geometry"/>
                </mxCell>
                <mxCell id="63" value="" style="ellipse;whiteSpace=wrap;html=1;aspect=fixed;strokeWidth=5;fontSize=90;" parent="1" vertex="1">
                    <mxGeometry x="7220" y="940" width="80" height="80" as="geometry"/>
                </mxCell>
                <mxCell id="159" style="edgeStyle=none;html=1;exitX=0;exitY=1;exitDx=0;exitDy=0;entryX=1;entryY=0;entryDx=0;entryDy=0;strokeWidth=5;fontSize=90;" parent="1" source="65" target="155" edge="1">
                    <mxGeometry relative="1" as="geometry"/>
                </mxCell>
                <mxCell id="659" style="edgeStyle=none;html=1;exitX=0;exitY=1;exitDx=0;exitDy=0;entryX=1;entryY=0;entryDx=0;entryDy=0;strokeWidth=5;fontSize=90;" parent="1" source="65" target="482" edge="1">
                    <mxGeometry relative="1" as="geometry"/>
                </mxCell>
                <mxCell id="65" value="" style="ellipse;whiteSpace=wrap;html=1;aspect=fixed;strokeWidth=5;fontSize=90;" parent="1" vertex="1">
                    <mxGeometry x="7700" y="940" width="80" height="80" as="geometry"/>
                </mxCell>
                <mxCell id="127" value="" style="ellipse;whiteSpace=wrap;html=1;aspect=fixed;strokeWidth=5;fontSize=90;" parent="1" vertex="1">
                    <mxGeometry x="500" y="1185" width="80" height="80" as="geometry"/>
                </mxCell>
                <mxCell id="290" style="edgeStyle=none;html=1;exitX=0;exitY=1;exitDx=0;exitDy=0;entryX=1;entryY=0;entryDx=0;entryDy=0;strokeWidth=5;fontSize=90;" parent="1" source="131" target="167" edge="1">
                    <mxGeometry relative="1" as="geometry"/>
                </mxCell>
                <mxCell id="131" value="" style="ellipse;whiteSpace=wrap;html=1;aspect=fixed;strokeWidth=5;fontSize=90;" parent="1" vertex="1">
                    <mxGeometry x="1460" y="1185" width="80" height="80" as="geometry"/>
                </mxCell>
                <mxCell id="135" value="" style="ellipse;whiteSpace=wrap;html=1;aspect=fixed;strokeWidth=5;fontSize=90;" parent="1" vertex="1">
                    <mxGeometry x="2420" y="1185" width="80" height="80" as="geometry"/>
                </mxCell>
                <mxCell id="289" style="edgeStyle=none;html=1;exitX=0;exitY=1;exitDx=0;exitDy=0;entryX=1;entryY=0;entryDx=0;entryDy=0;strokeWidth=5;fontSize=90;" parent="1" source="139" target="179" edge="1">
                    <mxGeometry relative="1" as="geometry"/>
                </mxCell>
                <mxCell id="139" value="" style="ellipse;whiteSpace=wrap;html=1;aspect=fixed;strokeWidth=5;fontSize=90;" parent="1" vertex="1">
                    <mxGeometry x="3380" y="1185" width="80" height="80" as="geometry"/>
                </mxCell>
                <mxCell id="143" value="" style="ellipse;whiteSpace=wrap;html=1;aspect=fixed;strokeWidth=5;fontSize=90;" parent="1" vertex="1">
                    <mxGeometry x="4340" y="1185" width="80" height="80" as="geometry"/>
                </mxCell>
                <mxCell id="288" style="edgeStyle=none;html=1;exitX=0;exitY=1;exitDx=0;exitDy=0;entryX=1;entryY=0;entryDx=0;entryDy=0;strokeWidth=5;fontSize=90;" parent="1" source="147" target="191" edge="1">
                    <mxGeometry relative="1" as="geometry"/>
                </mxCell>
                <mxCell id="147" value="" style="ellipse;whiteSpace=wrap;html=1;aspect=fixed;strokeWidth=5;fontSize=90;" parent="1" vertex="1">
                    <mxGeometry x="5300" y="1185" width="80" height="80" as="geometry"/>
                </mxCell>
                <mxCell id="151" value="" style="ellipse;whiteSpace=wrap;html=1;aspect=fixed;strokeWidth=5;fontSize=90;" parent="1" vertex="1">
                    <mxGeometry x="6260" y="1185" width="80" height="80" as="geometry"/>
                </mxCell>
                <mxCell id="287" style="edgeStyle=none;html=1;exitX=0;exitY=1;exitDx=0;exitDy=0;entryX=1;entryY=0;entryDx=0;entryDy=0;strokeWidth=5;fontSize=90;" parent="1" source="155" target="203" edge="1">
                    <mxGeometry relative="1" as="geometry"/>
                </mxCell>
                <mxCell id="650" style="edgeStyle=none;html=1;exitX=0;exitY=1;exitDx=0;exitDy=0;entryX=1;entryY=0;entryDx=0;entryDy=0;strokeWidth=5;fontSize=90;" parent="1" source="155" target="447" edge="1">
                    <mxGeometry relative="1" as="geometry"/>
                </mxCell>
                <mxCell id="657" style="edgeStyle=none;html=1;exitX=0.5;exitY=1;exitDx=0;exitDy=0;entryX=1;entryY=0;entryDx=0;entryDy=0;strokeWidth=5;fontSize=90;" parent="1" source="155" target="480" edge="1">
                    <mxGeometry relative="1" as="geometry"/>
                </mxCell>
                <mxCell id="155" value="" style="ellipse;whiteSpace=wrap;html=1;aspect=fixed;strokeWidth=5;fontSize=90;" parent="1" vertex="1">
                    <mxGeometry x="7220" y="1185" width="80" height="80" as="geometry"/>
                </mxCell>
                <mxCell id="167" value="" style="ellipse;whiteSpace=wrap;html=1;aspect=fixed;strokeWidth=5;fontSize=90;" parent="1" vertex="1">
                    <mxGeometry x="500" y="1425" width="80" height="80" as="geometry"/>
                </mxCell>
                <mxCell id="292" style="edgeStyle=none;html=1;exitX=0;exitY=1;exitDx=0;exitDy=0;entryX=1;entryY=0;entryDx=0;entryDy=0;strokeWidth=5;fontSize=90;" parent="1" source="179" target="215" edge="1">
                    <mxGeometry relative="1" as="geometry"/>
                </mxCell>
                <mxCell id="179" value="" style="ellipse;whiteSpace=wrap;html=1;aspect=fixed;strokeWidth=5;fontSize=90;" parent="1" vertex="1">
                    <mxGeometry x="2420" y="1425" width="80" height="80" as="geometry"/>
                </mxCell>
                <mxCell id="191" value="" style="ellipse;whiteSpace=wrap;html=1;aspect=fixed;strokeWidth=5;fontSize=90;" parent="1" vertex="1">
                    <mxGeometry x="4340" y="1425" width="80" height="80" as="geometry"/>
                </mxCell>
                <mxCell id="291" style="edgeStyle=none;html=1;exitX=0;exitY=1;exitDx=0;exitDy=0;entryX=1;entryY=0;entryDx=0;entryDy=0;strokeWidth=5;fontSize=90;" parent="1" source="203" target="235" edge="1">
                    <mxGeometry relative="1" as="geometry"/>
                </mxCell>
                <mxCell id="634" style="edgeStyle=none;html=1;exitX=0;exitY=1;exitDx=0;exitDy=0;entryX=1;entryY=0;entryDx=0;entryDy=0;strokeWidth=5;fontSize=90;" parent="1" source="203" target="409" edge="1">
                    <mxGeometry relative="1" as="geometry"/>
                </mxCell>
                <mxCell id="640" style="edgeStyle=none;html=1;exitX=0;exitY=1;exitDx=0;exitDy=0;entryX=1;entryY=0;entryDx=0;entryDy=0;strokeWidth=5;fontSize=90;" parent="1" source="203" target="443" edge="1">
                    <mxGeometry relative="1" as="geometry"/>
                </mxCell>
                <mxCell id="645" style="edgeStyle=none;html=1;exitX=0;exitY=1;exitDx=0;exitDy=0;entryX=0.5;entryY=0;entryDx=0;entryDy=0;strokeWidth=5;fontSize=90;" parent="1" source="203" target="476" edge="1">
                    <mxGeometry relative="1" as="geometry"/>
                </mxCell>
                <mxCell id="203" value="" style="ellipse;whiteSpace=wrap;html=1;aspect=fixed;strokeWidth=5;fontSize=90;" parent="1" vertex="1">
                    <mxGeometry x="6260" y="1425" width="80" height="80" as="geometry"/>
                </mxCell>
                <mxCell id="215" value="" style="ellipse;whiteSpace=wrap;html=1;aspect=fixed;strokeWidth=5;fontSize=90;" parent="1" vertex="1">
                    <mxGeometry x="500" y="1665" width="80" height="80" as="geometry"/>
                </mxCell>
                <mxCell id="293" style="edgeStyle=none;html=1;exitX=0;exitY=1;exitDx=0;exitDy=0;entryX=1;entryY=0;entryDx=0;entryDy=0;strokeWidth=5;fontSize=90;" parent="1" source="235" target="255" edge="1">
                    <mxGeometry relative="1" as="geometry"/>
                </mxCell>
                <mxCell id="560" style="edgeStyle=none;html=1;exitX=0;exitY=1;exitDx=0;exitDy=0;entryX=1;entryY=0.5;entryDx=0;entryDy=0;strokeWidth=5;fontSize=90;" parent="1" source="235" target="397" edge="1">
                    <mxGeometry relative="1" as="geometry"/>
                </mxCell>
                <mxCell id="602" style="edgeStyle=none;html=1;exitX=0;exitY=1;exitDx=0;exitDy=0;entryX=1;entryY=0;entryDx=0;entryDy=0;strokeWidth=5;fontSize=90;" parent="1" source="235" target="401" edge="1">
                    <mxGeometry relative="1" as="geometry"/>
                </mxCell>
                <mxCell id="605" style="edgeStyle=none;html=1;exitX=0.5;exitY=1;exitDx=0;exitDy=0;entryX=1;entryY=0;entryDx=0;entryDy=0;strokeWidth=5;fontSize=90;" parent="1" source="235" target="435" edge="1">
                    <mxGeometry relative="1" as="geometry"/>
                </mxCell>
                <mxCell id="630" style="edgeStyle=none;html=1;exitX=0.5;exitY=1;exitDx=0;exitDy=0;entryX=1;entryY=0;entryDx=0;entryDy=0;strokeWidth=5;fontSize=90;" parent="1" source="235" target="468" edge="1">
                    <mxGeometry relative="1" as="geometry"/>
                </mxCell>
                <mxCell id="235" value="" style="ellipse;whiteSpace=wrap;html=1;aspect=fixed;strokeWidth=5;fontSize=90;" parent="1" vertex="1">
                    <mxGeometry x="4340" y="1665" width="80" height="80" as="geometry"/>
                </mxCell>
                <mxCell id="255" value="" style="ellipse;whiteSpace=wrap;html=1;aspect=fixed;strokeWidth=5;fontSize=90;" parent="1" vertex="1">
                    <mxGeometry x="500" y="1910" width="80" height="80" as="geometry"/>
                </mxCell>
                <mxCell id="599" style="edgeStyle=none;html=1;exitX=0;exitY=1;exitDx=0;exitDy=0;entryX=1;entryY=0;entryDx=0;entryDy=0;strokeWidth=5;fontSize=90;" parent="1" source="393" target="423" edge="1">
                    <mxGeometry relative="1" as="geometry"/>
                </mxCell>
                <mxCell id="607" style="edgeStyle=none;html=1;exitX=0.5;exitY=1;exitDx=0;exitDy=0;entryX=1;entryY=0;entryDx=0;entryDy=0;strokeWidth=5;fontSize=90;" parent="1" source="393" target="456" edge="1">
                    <mxGeometry relative="1" as="geometry"/>
                </mxCell>
                <mxCell id="393" value="" style="ellipse;whiteSpace=wrap;html=1;aspect=fixed;strokeWidth=5;fontSize=90;" parent="1" vertex="1">
                    <mxGeometry x="1460" y="2145" width="80" height="80" as="geometry"/>
                </mxCell>
                <mxCell id="562" style="edgeStyle=none;html=1;exitX=0;exitY=1;exitDx=0;exitDy=0;entryX=1;entryY=0;entryDx=0;entryDy=0;strokeWidth=5;fontSize=90;" parent="1" source="397" target="393" edge="1">
                    <mxGeometry relative="1" as="geometry"/>
                </mxCell>
                <mxCell id="608" style="edgeStyle=none;html=1;exitX=0;exitY=1;exitDx=0;exitDy=0;entryX=1;entryY=0;entryDx=0;entryDy=0;strokeWidth=5;fontSize=90;" parent="1" source="397" target="427" edge="1">
                    <mxGeometry relative="1" as="geometry"/>
                </mxCell>
                <mxCell id="610" style="edgeStyle=none;html=1;exitX=0.5;exitY=1;exitDx=0;exitDy=0;entryX=1;entryY=0;entryDx=0;entryDy=0;strokeWidth=5;fontSize=90;" parent="1" source="397" target="460" edge="1">
                    <mxGeometry relative="1" as="geometry"/>
                </mxCell>
                <mxCell id="397" value="" style="ellipse;whiteSpace=wrap;html=1;aspect=fixed;strokeWidth=5;fontSize=90;" parent="1" vertex="1">
                    <mxGeometry x="2420" y="1910" width="80" height="80" as="geometry"/>
                </mxCell>
                <mxCell id="603" style="edgeStyle=none;html=1;exitX=0;exitY=1;exitDx=0;exitDy=0;entryX=1;entryY=0;entryDx=0;entryDy=0;strokeWidth=5;fontSize=90;" parent="1" source="401" target="431" edge="1">
                    <mxGeometry relative="1" as="geometry"/>
                </mxCell>
                <mxCell id="617" style="edgeStyle=none;html=1;exitX=0;exitY=1;exitDx=0;exitDy=0;entryX=0.5;entryY=0;entryDx=0;entryDy=0;strokeWidth=5;fontSize=90;" parent="1" source="401" target="464" edge="1">
                    <mxGeometry relative="1" as="geometry"/>
                </mxCell>
                <mxCell id="401" value="" style="ellipse;whiteSpace=wrap;html=1;aspect=fixed;strokeWidth=5;fontSize=90;" parent="1" vertex="1">
                    <mxGeometry x="3380" y="2145" width="80" height="80" as="geometry"/>
                </mxCell>
                <mxCell id="635" style="edgeStyle=none;html=1;exitX=0;exitY=1;exitDx=0;exitDy=0;entryX=1;entryY=0;entryDx=0;entryDy=0;strokeWidth=5;fontSize=90;" parent="1" source="409" target="439" edge="1">
                    <mxGeometry relative="1" as="geometry"/>
                </mxCell>
                <mxCell id="642" style="edgeStyle=none;html=1;exitX=0;exitY=1;exitDx=0;exitDy=0;entryX=1;entryY=0;entryDx=0;entryDy=0;strokeWidth=5;fontSize=90;" parent="1" source="409" target="472" edge="1">
                    <mxGeometry relative="1" as="geometry"/>
                </mxCell>
                <mxCell id="409" value="" style="ellipse;whiteSpace=wrap;html=1;aspect=fixed;strokeWidth=5;fontSize=90;" parent="1" vertex="1">
                    <mxGeometry x="5300" y="2145" width="80" height="80" as="geometry"/>
                </mxCell>
                <mxCell id="600" style="edgeStyle=none;html=1;exitX=0;exitY=1;exitDx=0;exitDy=0;entryX=1;entryY=0;entryDx=0;entryDy=0;strokeWidth=5;fontSize=90;" parent="1" source="423" target="454" edge="1">
                    <mxGeometry relative="1" as="geometry"/>
                </mxCell>
                <mxCell id="423" value="" style="ellipse;whiteSpace=wrap;html=1;aspect=fixed;strokeWidth=5;fontSize=90;" parent="1" vertex="1">
                    <mxGeometry x="980" y="2395" width="80" height="80" as="geometry"/>
                </mxCell>
                <mxCell id="609" style="edgeStyle=none;html=1;exitX=0;exitY=1;exitDx=0;exitDy=0;entryX=1;entryY=0;entryDx=0;entryDy=0;strokeWidth=5;fontSize=90;" parent="1" source="427" target="458" edge="1">
                    <mxGeometry relative="1" as="geometry"/>
                </mxCell>
                <mxCell id="427" value="" style="ellipse;whiteSpace=wrap;html=1;aspect=fixed;strokeWidth=5;fontSize=90;" parent="1" vertex="1">
                    <mxGeometry x="1940" y="2395" width="80" height="80" as="geometry"/>
                </mxCell>
                <mxCell id="604" style="edgeStyle=none;html=1;exitX=0;exitY=1;exitDx=0;exitDy=0;entryX=1;entryY=0;entryDx=0;entryDy=0;strokeWidth=5;fontSize=90;" parent="1" source="431" target="462" edge="1">
                    <mxGeometry relative="1" as="geometry"/>
                </mxCell>
                <mxCell id="431" value="" style="ellipse;whiteSpace=wrap;html=1;aspect=fixed;strokeWidth=5;fontSize=90;" parent="1" vertex="1">
                    <mxGeometry x="2900" y="2395" width="80" height="80" as="geometry"/>
                </mxCell>
                <mxCell id="606" style="edgeStyle=none;html=1;exitX=0;exitY=1;exitDx=0;exitDy=0;entryX=1;entryY=0;entryDx=0;entryDy=0;strokeWidth=5;fontSize=90;" parent="1" source="435" target="466" edge="1">
                    <mxGeometry relative="1" as="geometry"/>
                </mxCell>
                <mxCell id="435" value="" style="ellipse;whiteSpace=wrap;html=1;aspect=fixed;strokeWidth=5;fontSize=90;" parent="1" vertex="1">
                    <mxGeometry x="3860" y="2395" width="80" height="80" as="geometry"/>
                </mxCell>
                <mxCell id="636" style="edgeStyle=none;html=1;exitX=0;exitY=1;exitDx=0;exitDy=0;entryX=1;entryY=0;entryDx=0;entryDy=0;strokeWidth=5;fontSize=90;" parent="1" source="439" target="470" edge="1">
                    <mxGeometry relative="1" as="geometry"/>
                </mxCell>
                <mxCell id="439" value="" style="ellipse;whiteSpace=wrap;html=1;aspect=fixed;strokeWidth=5;fontSize=90;" parent="1" vertex="1">
                    <mxGeometry x="4820" y="2395" width="80" height="80" as="geometry"/>
                </mxCell>
                <mxCell id="641" style="edgeStyle=none;html=1;exitX=0;exitY=1;exitDx=0;exitDy=0;entryX=1;entryY=0;entryDx=0;entryDy=0;strokeWidth=5;fontSize=90;" parent="1" source="443" target="474" edge="1">
                    <mxGeometry relative="1" as="geometry"/>
                </mxCell>
                <mxCell id="443" value="" style="ellipse;whiteSpace=wrap;html=1;aspect=fixed;strokeWidth=5;fontSize=90;" parent="1" vertex="1">
                    <mxGeometry x="5780" y="2395" width="80" height="80" as="geometry"/>
                </mxCell>
                <mxCell id="651" style="edgeStyle=none;html=1;exitX=0;exitY=1;exitDx=0;exitDy=0;entryX=1;entryY=0;entryDx=0;entryDy=0;strokeWidth=5;fontSize=90;" parent="1" source="447" target="478" edge="1">
                    <mxGeometry relative="1" as="geometry"/>
                </mxCell>
                <mxCell id="447" value="" style="ellipse;whiteSpace=wrap;html=1;aspect=fixed;strokeWidth=5;fontSize=90;" parent="1" vertex="1">
                    <mxGeometry x="6740" y="2395" width="80" height="80" as="geometry"/>
                </mxCell>
                <mxCell id="454" value="" style="ellipse;whiteSpace=wrap;html=1;aspect=fixed;strokeWidth=5;fontSize=90;" parent="1" vertex="1">
                    <mxGeometry x="740" y="2635" width="80" height="80" as="geometry"/>
                </mxCell>
                <mxCell id="456" value="" style="ellipse;whiteSpace=wrap;html=1;aspect=fixed;strokeWidth=5;fontSize=90;" parent="1" vertex="1">
                    <mxGeometry x="1220" y="2635" width="80" height="80" as="geometry"/>
                </mxCell>
                <mxCell id="458" value="" style="ellipse;whiteSpace=wrap;html=1;aspect=fixed;strokeWidth=5;fontSize=90;" parent="1" vertex="1">
                    <mxGeometry x="1700" y="2635" width="80" height="80" as="geometry"/>
                </mxCell>
                <mxCell id="460" value="" style="ellipse;whiteSpace=wrap;html=1;aspect=fixed;strokeWidth=5;fontSize=90;" parent="1" vertex="1">
                    <mxGeometry x="2180" y="2635" width="80" height="80" as="geometry"/>
                </mxCell>
                <mxCell id="462" value="" style="ellipse;whiteSpace=wrap;html=1;aspect=fixed;strokeWidth=5;fontSize=90;" parent="1" vertex="1">
                    <mxGeometry x="2660" y="2635" width="80" height="80" as="geometry"/>
                </mxCell>
                <mxCell id="464" value="" style="ellipse;whiteSpace=wrap;html=1;aspect=fixed;strokeWidth=5;fontSize=90;" parent="1" vertex="1">
                    <mxGeometry x="3140" y="2635" width="80" height="80" as="geometry"/>
                </mxCell>
                <mxCell id="466" value="" style="ellipse;whiteSpace=wrap;html=1;aspect=fixed;strokeWidth=5;fontSize=90;" parent="1" vertex="1">
                    <mxGeometry x="3620" y="2635" width="80" height="80" as="geometry"/>
                </mxCell>
                <mxCell id="468" value="" style="ellipse;whiteSpace=wrap;html=1;aspect=fixed;strokeWidth=5;fontSize=90;" parent="1" vertex="1">
                    <mxGeometry x="4100" y="2635" width="80" height="80" as="geometry"/>
                </mxCell>
                <mxCell id="470" value="" style="ellipse;whiteSpace=wrap;html=1;aspect=fixed;strokeWidth=5;fontSize=90;" parent="1" vertex="1">
                    <mxGeometry x="4580" y="2635" width="80" height="80" as="geometry"/>
                </mxCell>
                <mxCell id="472" value="" style="ellipse;whiteSpace=wrap;html=1;aspect=fixed;strokeWidth=5;fontSize=90;" parent="1" vertex="1">
                    <mxGeometry x="5060" y="2635" width="80" height="80" as="geometry"/>
                </mxCell>
                <mxCell id="474" value="" style="ellipse;whiteSpace=wrap;html=1;aspect=fixed;strokeWidth=5;fontSize=90;" parent="1" vertex="1">
                    <mxGeometry x="5540" y="2635" width="80" height="80" as="geometry"/>
                </mxCell>
                <mxCell id="476" value="" style="ellipse;whiteSpace=wrap;html=1;aspect=fixed;strokeWidth=5;fontSize=90;" parent="1" vertex="1">
                    <mxGeometry x="6020" y="2635" width="80" height="80" as="geometry"/>
                </mxCell>
                <mxCell id="478" value="" style="ellipse;whiteSpace=wrap;html=1;aspect=fixed;strokeWidth=5;fontSize=90;" parent="1" vertex="1">
                    <mxGeometry x="6500" y="2635" width="80" height="80" as="geometry"/>
                </mxCell>
                <mxCell id="480" value="" style="ellipse;whiteSpace=wrap;html=1;aspect=fixed;strokeWidth=5;fontSize=90;" parent="1" vertex="1">
                    <mxGeometry x="6980" y="2635" width="80" height="80" as="geometry"/>
                </mxCell>
                <mxCell id="482" value="" style="ellipse;whiteSpace=wrap;html=1;aspect=fixed;strokeWidth=5;fontSize=90;" parent="1" vertex="1">
                    <mxGeometry x="7460" y="2635" width="80" height="80" as="geometry"/>
                </mxCell>
                <mxCell id="485" value="" style="ellipse;whiteSpace=wrap;html=1;aspect=fixed;strokeWidth=5;fontSize=90;" parent="1" vertex="1">
                    <mxGeometry x="490" y="2990" width="80" height="80" as="geometry"/>
                </mxCell>
                <mxCell id="486" value="" style="ellipse;whiteSpace=wrap;html=1;aspect=fixed;strokeWidth=5;fontSize=90;" parent="1" vertex="1">
                    <mxGeometry x="730" y="2990" width="80" height="80" as="geometry"/>
                </mxCell>
                <mxCell id="487" value="" style="ellipse;whiteSpace=wrap;html=1;aspect=fixed;strokeWidth=5;fontSize=90;" parent="1" vertex="1">
                    <mxGeometry x="970" y="2990" width="80" height="80" as="geometry"/>
                </mxCell>
                <mxCell id="488" value="" style="ellipse;whiteSpace=wrap;html=1;aspect=fixed;strokeWidth=5;fontSize=90;" parent="1" vertex="1">
                    <mxGeometry x="1210" y="2990" width="80" height="80" as="geometry"/>
                </mxCell>
                <mxCell id="489" value="" style="ellipse;whiteSpace=wrap;html=1;aspect=fixed;strokeWidth=5;fontSize=90;" parent="1" vertex="1">
                    <mxGeometry x="1450" y="2990" width="80" height="80" as="geometry"/>
                </mxCell>
                <mxCell id="490" value="" style="ellipse;whiteSpace=wrap;html=1;aspect=fixed;strokeWidth=5;fontSize=90;" parent="1" vertex="1">
                    <mxGeometry x="1690" y="2990" width="80" height="80" as="geometry"/>
                </mxCell>
                <mxCell id="491" value="" style="ellipse;whiteSpace=wrap;html=1;aspect=fixed;strokeWidth=5;fontSize=90;" parent="1" vertex="1">
                    <mxGeometry x="1930" y="2990" width="80" height="80" as="geometry"/>
                </mxCell>
                <mxCell id="492" value="" style="ellipse;whiteSpace=wrap;html=1;aspect=fixed;strokeWidth=5;fontSize=90;" parent="1" vertex="1">
                    <mxGeometry x="2170" y="2990" width="80" height="80" as="geometry"/>
                </mxCell>
                <mxCell id="493" value="" style="ellipse;whiteSpace=wrap;html=1;aspect=fixed;strokeWidth=5;fontSize=90;" parent="1" vertex="1">
                    <mxGeometry x="2410" y="2990" width="80" height="80" as="geometry"/>
                </mxCell>
                <mxCell id="494" value="" style="ellipse;whiteSpace=wrap;html=1;aspect=fixed;strokeWidth=5;fontSize=90;" parent="1" vertex="1">
                    <mxGeometry x="2650" y="2990" width="80" height="80" as="geometry"/>
                </mxCell>
                <mxCell id="495" value="" style="ellipse;whiteSpace=wrap;html=1;aspect=fixed;strokeWidth=5;fontSize=90;" parent="1" vertex="1">
                    <mxGeometry x="2890" y="2990" width="80" height="80" as="geometry"/>
                </mxCell>
                <mxCell id="496" value="" style="ellipse;whiteSpace=wrap;html=1;aspect=fixed;strokeWidth=5;fontSize=90;" parent="1" vertex="1">
                    <mxGeometry x="3130" y="2990" width="80" height="80" as="geometry"/>
                </mxCell>
                <mxCell id="497" value="" style="ellipse;whiteSpace=wrap;html=1;aspect=fixed;strokeWidth=5;fontSize=90;" parent="1" vertex="1">
                    <mxGeometry x="3370" y="2990" width="80" height="80" as="geometry"/>
                </mxCell>
                <mxCell id="498" value="" style="ellipse;whiteSpace=wrap;html=1;aspect=fixed;strokeWidth=5;fontSize=90;" parent="1" vertex="1">
                    <mxGeometry x="3610" y="2990" width="80" height="80" as="geometry"/>
                </mxCell>
                <mxCell id="499" value="" style="ellipse;whiteSpace=wrap;html=1;aspect=fixed;strokeWidth=5;fontSize=90;" parent="1" vertex="1">
                    <mxGeometry x="3850" y="2990" width="80" height="80" as="geometry"/>
                </mxCell>
                <mxCell id="500" value="" style="ellipse;whiteSpace=wrap;html=1;aspect=fixed;strokeWidth=5;fontSize=90;" parent="1" vertex="1">
                    <mxGeometry x="4090" y="2990" width="80" height="80" as="geometry"/>
                </mxCell>
                <mxCell id="501" value="" style="ellipse;whiteSpace=wrap;html=1;aspect=fixed;strokeWidth=5;fontSize=90;" parent="1" vertex="1">
                    <mxGeometry x="4330" y="2990" width="80" height="80" as="geometry"/>
                </mxCell>
                <mxCell id="502" value="" style="ellipse;whiteSpace=wrap;html=1;aspect=fixed;strokeWidth=5;fontSize=90;" parent="1" vertex="1">
                    <mxGeometry x="4570" y="2990" width="80" height="80" as="geometry"/>
                </mxCell>
                <mxCell id="503" value="" style="ellipse;whiteSpace=wrap;html=1;aspect=fixed;strokeWidth=5;fontSize=90;" parent="1" vertex="1">
                    <mxGeometry x="4810" y="2990" width="80" height="80" as="geometry"/>
                </mxCell>
                <mxCell id="504" value="" style="ellipse;whiteSpace=wrap;html=1;aspect=fixed;strokeWidth=5;fontSize=90;" parent="1" vertex="1">
                    <mxGeometry x="5050" y="2990" width="80" height="80" as="geometry"/>
                </mxCell>
                <mxCell id="505" value="" style="ellipse;whiteSpace=wrap;html=1;aspect=fixed;strokeWidth=5;fontSize=90;" parent="1" vertex="1">
                    <mxGeometry x="5290" y="2990" width="80" height="80" as="geometry"/>
                </mxCell>
                <mxCell id="506" value="" style="ellipse;whiteSpace=wrap;html=1;aspect=fixed;strokeWidth=5;fontSize=90;" parent="1" vertex="1">
                    <mxGeometry x="5530" y="2990" width="80" height="80" as="geometry"/>
                </mxCell>
                <mxCell id="507" value="" style="ellipse;whiteSpace=wrap;html=1;aspect=fixed;strokeWidth=5;fontSize=90;" parent="1" vertex="1">
                    <mxGeometry x="5770" y="2990" width="80" height="80" as="geometry"/>
                </mxCell>
                <mxCell id="508" value="" style="ellipse;whiteSpace=wrap;html=1;aspect=fixed;strokeWidth=5;fontSize=90;" parent="1" vertex="1">
                    <mxGeometry x="6010" y="2990" width="80" height="80" as="geometry"/>
                </mxCell>
                <mxCell id="509" value="" style="ellipse;whiteSpace=wrap;html=1;aspect=fixed;strokeWidth=5;fontSize=90;" parent="1" vertex="1">
                    <mxGeometry x="6250" y="2990" width="80" height="80" as="geometry"/>
                </mxCell>
                <mxCell id="510" value="" style="ellipse;whiteSpace=wrap;html=1;aspect=fixed;strokeWidth=5;fontSize=90;" parent="1" vertex="1">
                    <mxGeometry x="6490" y="2990" width="80" height="80" as="geometry"/>
                </mxCell>
                <mxCell id="511" value="" style="ellipse;whiteSpace=wrap;html=1;aspect=fixed;strokeWidth=5;fontSize=90;" parent="1" vertex="1">
                    <mxGeometry x="6730" y="2990" width="80" height="80" as="geometry"/>
                </mxCell>
                <mxCell id="512" value="" style="ellipse;whiteSpace=wrap;html=1;aspect=fixed;strokeWidth=5;fontSize=90;" parent="1" vertex="1">
                    <mxGeometry x="6970" y="2990" width="80" height="80" as="geometry"/>
                </mxCell>
                <mxCell id="513" value="" style="ellipse;whiteSpace=wrap;html=1;aspect=fixed;strokeWidth=5;fontSize=90;" parent="1" vertex="1">
                    <mxGeometry x="7210" y="2990" width="80" height="80" as="geometry"/>
                </mxCell>
                <mxCell id="514" value="" style="ellipse;whiteSpace=wrap;html=1;aspect=fixed;strokeWidth=5;fontSize=90;" parent="1" vertex="1">
                    <mxGeometry x="7450" y="2990" width="80" height="80" as="geometry"/>
                </mxCell>
                <mxCell id="515" value="" style="ellipse;whiteSpace=wrap;html=1;aspect=fixed;strokeWidth=5;fontSize=90;" parent="1" vertex="1">
                    <mxGeometry x="7690" y="2990" width="80" height="80" as="geometry"/>
                </mxCell>
                <mxCell id="516" value="" style="ellipse;whiteSpace=wrap;html=1;aspect=fixed;strokeWidth=5;fontSize=90;" parent="1" vertex="1">
                    <mxGeometry x="7930" y="2990" width="80" height="80" as="geometry"/>
                </mxCell>
                <mxCell id="549" value="&lt;font style=&quot;font-size: 90px;&quot;&gt;CM0&lt;/font&gt;" style="text;html=1;align=center;verticalAlign=middle;resizable=0;points=[];autosize=1;strokeColor=none;fillColor=none;strokeWidth=5;fontSize=90;" parent="1" vertex="1">
                    <mxGeometry x="155" y="920" width="210" height="120" as="geometry"/>
                </mxCell>
                <mxCell id="550" value="&lt;font style=&quot;font-size: 90px;&quot;&gt;CM1&lt;/font&gt;" style="text;html=1;align=center;verticalAlign=middle;resizable=0;points=[];autosize=1;strokeColor=none;fillColor=none;strokeWidth=5;fontSize=90;" parent="1" vertex="1">
                    <mxGeometry x="155" y="1165" width="210" height="120" as="geometry"/>
                </mxCell>
                <mxCell id="551" value="&lt;font style=&quot;font-size: 90px;&quot;&gt;CM2&lt;/font&gt;" style="text;html=1;align=center;verticalAlign=middle;resizable=0;points=[];autosize=1;strokeColor=none;fillColor=none;strokeWidth=5;fontSize=90;" parent="1" vertex="1">
                    <mxGeometry x="155" y="1405" width="210" height="120" as="geometry"/>
                </mxCell>
                <mxCell id="552" value="&lt;font style=&quot;font-size: 90px;&quot;&gt;CM3&lt;/font&gt;" style="text;html=1;align=center;verticalAlign=middle;resizable=0;points=[];autosize=1;strokeColor=none;fillColor=none;strokeWidth=5;fontSize=90;" parent="1" vertex="1">
                    <mxGeometry x="155" y="1645" width="210" height="120" as="geometry"/>
                </mxCell>
                <mxCell id="553" value="&lt;font style=&quot;font-size: 90px;&quot;&gt;CM4&lt;/font&gt;" style="text;html=1;align=center;verticalAlign=middle;resizable=0;points=[];autosize=1;strokeColor=none;fillColor=none;strokeWidth=5;fontSize=90;" parent="1" vertex="1">
                    <mxGeometry x="155" y="1890" width="210" height="120" as="geometry"/>
                </mxCell>
                <mxCell id="554" value="&lt;font style=&quot;font-size: 90px;&quot;&gt;CM5&lt;/font&gt;" style="text;html=1;align=center;verticalAlign=middle;resizable=0;points=[];autosize=1;strokeColor=none;fillColor=none;strokeWidth=5;fontSize=90;" parent="1" vertex="1">
                    <mxGeometry x="155" y="2125" width="210" height="120" as="geometry"/>
                </mxCell>
                <mxCell id="555" value="&lt;font style=&quot;font-size: 90px;&quot;&gt;CM6&lt;/font&gt;" style="text;html=1;align=center;verticalAlign=middle;resizable=0;points=[];autosize=1;strokeColor=none;fillColor=none;strokeWidth=5;fontSize=90;" parent="1" vertex="1">
                    <mxGeometry x="155" y="2375" width="210" height="120" as="geometry"/>
                </mxCell>
                <mxCell id="556" value="&lt;font style=&quot;font-size: 90px;&quot;&gt;CM7&lt;/font&gt;" style="text;html=1;align=center;verticalAlign=middle;resizable=0;points=[];autosize=1;strokeColor=none;fillColor=none;strokeWidth=5;fontSize=90;" parent="1" vertex="1">
                    <mxGeometry x="155" y="2605" width="210" height="120" as="geometry"/>
                </mxCell>
                <mxCell id="564" value="31" style="text;html=1;align=center;verticalAlign=middle;resizable=0;points=[];autosize=1;strokeColor=none;fillColor=none;fontSize=90;strokeWidth=5;" parent="1" vertex="1">
                    <mxGeometry x="480" y="390" width="120" height="120" as="geometry"/>
                </mxCell>
                <mxCell id="565" value="30" style="text;html=1;align=center;verticalAlign=middle;resizable=0;points=[];autosize=1;strokeColor=none;fillColor=none;fontSize=90;strokeWidth=5;" parent="1" vertex="1">
                    <mxGeometry x="720" y="390" width="120" height="120" as="geometry"/>
                </mxCell>
                <mxCell id="566" value="29" style="text;html=1;align=center;verticalAlign=middle;resizable=0;points=[];autosize=1;strokeColor=none;fillColor=none;fontSize=90;strokeWidth=5;" parent="1" vertex="1">
                    <mxGeometry x="960" y="390" width="120" height="120" as="geometry"/>
                </mxCell>
                <mxCell id="567" value="28" style="text;html=1;align=center;verticalAlign=middle;resizable=0;points=[];autosize=1;strokeColor=none;fillColor=none;fontSize=90;strokeWidth=5;" parent="1" vertex="1">
                    <mxGeometry x="1200" y="390" width="120" height="120" as="geometry"/>
                </mxCell>
                <mxCell id="568" value="27" style="text;html=1;align=center;verticalAlign=middle;resizable=0;points=[];autosize=1;strokeColor=none;fillColor=none;fontSize=90;strokeWidth=5;" parent="1" vertex="1">
                    <mxGeometry x="1440" y="390" width="120" height="120" as="geometry"/>
                </mxCell>
                <mxCell id="569" value="26" style="text;html=1;align=center;verticalAlign=middle;resizable=0;points=[];autosize=1;strokeColor=none;fillColor=none;fontSize=90;strokeWidth=5;" parent="1" vertex="1">
                    <mxGeometry x="1680" y="390" width="120" height="120" as="geometry"/>
                </mxCell>
                <mxCell id="570" value="25" style="text;html=1;align=center;verticalAlign=middle;resizable=0;points=[];autosize=1;strokeColor=none;fillColor=none;fontSize=90;strokeWidth=5;" parent="1" vertex="1">
                    <mxGeometry x="1920" y="390" width="120" height="120" as="geometry"/>
                </mxCell>
                <mxCell id="571" value="24" style="text;html=1;align=center;verticalAlign=middle;resizable=0;points=[];autosize=1;strokeColor=none;fillColor=none;fontSize=90;strokeWidth=5;" parent="1" vertex="1">
                    <mxGeometry x="2160" y="390" width="120" height="120" as="geometry"/>
                </mxCell>
                <mxCell id="572" value="23" style="text;html=1;align=center;verticalAlign=middle;resizable=0;points=[];autosize=1;strokeColor=none;fillColor=none;fontSize=90;strokeWidth=5;" parent="1" vertex="1">
                    <mxGeometry x="2400" y="390" width="120" height="120" as="geometry"/>
                </mxCell>
                <mxCell id="573" value="22" style="text;html=1;align=center;verticalAlign=middle;resizable=0;points=[];autosize=1;strokeColor=none;fillColor=none;fontSize=90;strokeWidth=5;" parent="1" vertex="1">
                    <mxGeometry x="2640" y="390" width="120" height="120" as="geometry"/>
                </mxCell>
                <mxCell id="574" value="21" style="text;html=1;align=center;verticalAlign=middle;resizable=0;points=[];autosize=1;strokeColor=none;fillColor=none;fontSize=90;strokeWidth=5;" parent="1" vertex="1">
                    <mxGeometry x="2880" y="390" width="120" height="120" as="geometry"/>
                </mxCell>
                <mxCell id="575" value="20" style="text;html=1;align=center;verticalAlign=middle;resizable=0;points=[];autosize=1;strokeColor=none;fillColor=none;fontSize=90;strokeWidth=5;" parent="1" vertex="1">
                    <mxGeometry x="3120" y="390" width="120" height="120" as="geometry"/>
                </mxCell>
                <mxCell id="576" value="19" style="text;html=1;align=center;verticalAlign=middle;resizable=0;points=[];autosize=1;strokeColor=none;fillColor=none;fontSize=90;strokeWidth=5;" parent="1" vertex="1">
                    <mxGeometry x="3360" y="390" width="120" height="120" as="geometry"/>
                </mxCell>
                <mxCell id="577" value="18" style="text;html=1;align=center;verticalAlign=middle;resizable=0;points=[];autosize=1;strokeColor=none;fillColor=none;fontSize=90;strokeWidth=5;" parent="1" vertex="1">
                    <mxGeometry x="3600" y="390" width="120" height="120" as="geometry"/>
                </mxCell>
                <mxCell id="578" value="17" style="text;html=1;align=center;verticalAlign=middle;resizable=0;points=[];autosize=1;strokeColor=none;fillColor=none;fontSize=90;strokeWidth=5;" parent="1" vertex="1">
                    <mxGeometry x="3840" y="390" width="120" height="120" as="geometry"/>
                </mxCell>
                <mxCell id="579" value="16" style="text;html=1;align=center;verticalAlign=middle;resizable=0;points=[];autosize=1;strokeColor=none;fillColor=none;fontSize=90;strokeWidth=5;" parent="1" vertex="1">
                    <mxGeometry x="4080" y="390" width="120" height="120" as="geometry"/>
                </mxCell>
                <mxCell id="580" value="15" style="text;html=1;align=center;verticalAlign=middle;resizable=0;points=[];autosize=1;strokeColor=none;fillColor=none;fontSize=90;strokeWidth=5;" parent="1" vertex="1">
                    <mxGeometry x="4320" y="390" width="120" height="120" as="geometry"/>
                </mxCell>
                <mxCell id="581" value="14" style="text;html=1;align=center;verticalAlign=middle;resizable=0;points=[];autosize=1;strokeColor=none;fillColor=none;fontSize=90;strokeWidth=5;" parent="1" vertex="1">
                    <mxGeometry x="4560" y="390" width="120" height="120" as="geometry"/>
                </mxCell>
                <mxCell id="582" value="13" style="text;html=1;align=center;verticalAlign=middle;resizable=0;points=[];autosize=1;strokeColor=none;fillColor=none;fontSize=90;strokeWidth=5;" parent="1" vertex="1">
                    <mxGeometry x="4800" y="390" width="120" height="120" as="geometry"/>
                </mxCell>
                <mxCell id="583" value="12" style="text;html=1;align=center;verticalAlign=middle;resizable=0;points=[];autosize=1;strokeColor=none;fillColor=none;fontSize=90;strokeWidth=5;" parent="1" vertex="1">
                    <mxGeometry x="5040" y="390" width="120" height="120" as="geometry"/>
                </mxCell>
                <mxCell id="584" value="11" style="text;html=1;align=center;verticalAlign=middle;resizable=0;points=[];autosize=1;strokeColor=none;fillColor=none;fontSize=90;strokeWidth=5;" parent="1" vertex="1">
                    <mxGeometry x="5280" y="390" width="120" height="120" as="geometry"/>
                </mxCell>
                <mxCell id="585" value="10" style="text;html=1;align=center;verticalAlign=middle;resizable=0;points=[];autosize=1;strokeColor=none;fillColor=none;fontSize=90;strokeWidth=5;" parent="1" vertex="1">
                    <mxGeometry x="5520" y="390" width="120" height="120" as="geometry"/>
                </mxCell>
                <mxCell id="586" value="9" style="text;html=1;align=center;verticalAlign=middle;resizable=0;points=[];autosize=1;strokeColor=none;fillColor=none;fontSize=90;strokeWidth=5;" parent="1" vertex="1">
                    <mxGeometry x="5785" y="390" width="70" height="120" as="geometry"/>
                </mxCell>
                <mxCell id="587" value="8" style="text;html=1;align=center;verticalAlign=middle;resizable=0;points=[];autosize=1;strokeColor=none;fillColor=none;fontSize=90;strokeWidth=5;" parent="1" vertex="1">
                    <mxGeometry x="6025" y="390" width="70" height="120" as="geometry"/>
                </mxCell>
                <mxCell id="588" value="7" style="text;html=1;align=center;verticalAlign=middle;resizable=0;points=[];autosize=1;strokeColor=none;fillColor=none;fontSize=90;strokeWidth=5;" parent="1" vertex="1">
                    <mxGeometry x="6265" y="390" width="70" height="120" as="geometry"/>
                </mxCell>
                <mxCell id="589" value="6" style="text;html=1;align=center;verticalAlign=middle;resizable=0;points=[];autosize=1;strokeColor=none;fillColor=none;fontSize=90;strokeWidth=5;" parent="1" vertex="1">
                    <mxGeometry x="6505" y="390" width="70" height="120" as="geometry"/>
                </mxCell>
                <mxCell id="590" value="5" style="text;html=1;align=center;verticalAlign=middle;resizable=0;points=[];autosize=1;strokeColor=none;fillColor=none;fontSize=90;strokeWidth=5;" parent="1" vertex="1">
                    <mxGeometry x="6745" y="390" width="70" height="120" as="geometry"/>
                </mxCell>
                <mxCell id="591" value="4" style="text;html=1;align=center;verticalAlign=middle;resizable=0;points=[];autosize=1;strokeColor=none;fillColor=none;fontSize=90;strokeWidth=5;" parent="1" vertex="1">
                    <mxGeometry x="6985" y="390" width="70" height="120" as="geometry"/>
                </mxCell>
                <mxCell id="592" value="3" style="text;html=1;align=center;verticalAlign=middle;resizable=0;points=[];autosize=1;strokeColor=none;fillColor=none;fontSize=90;strokeWidth=5;" parent="1" vertex="1">
                    <mxGeometry x="7225" y="390" width="70" height="120" as="geometry"/>
                </mxCell>
                <mxCell id="593" value="2" style="text;html=1;align=center;verticalAlign=middle;resizable=0;points=[];autosize=1;strokeColor=none;fillColor=none;fontSize=90;strokeWidth=5;" parent="1" vertex="1">
                    <mxGeometry x="7465" y="390" width="70" height="120" as="geometry"/>
                </mxCell>
                <mxCell id="594" value="1" style="text;html=1;align=center;verticalAlign=middle;resizable=0;points=[];autosize=1;strokeColor=none;fillColor=none;fontSize=90;strokeWidth=5;" parent="1" vertex="1">
                    <mxGeometry x="7710" y="390" width="70" height="120" as="geometry"/>
                </mxCell>
                <mxCell id="595" value="0" style="text;html=1;align=center;verticalAlign=middle;resizable=0;points=[];autosize=1;strokeColor=none;fillColor=none;fontSize=90;strokeWidth=5;" parent="1" vertex="1">
                    <mxGeometry x="7950" y="390" width="70" height="120" as="geometry"/>
                </mxCell>
                <mxCell id="697" value="Post Process Stage" style="whiteSpace=wrap;html=1;strokeWidth=5;fontSize=90;gradientColor=none;" parent="1" vertex="1">
                    <mxGeometry x="330" y="2930" width="7790" height="330" as="geometry"/>
                </mxCell>
            </root>
        </mxGraphModel>
    </diagram>
    <diagram id="RKHJLgDy5_QCFPm3DROk" name="Page-3">
        <mxGraphModel dx="1070" dy="978" grid="1" gridSize="10" guides="1" tooltips="1" connect="1" arrows="1" fold="1" page="1" pageScale="1" pageWidth="5000" pageHeight="4000" math="0" shadow="0">
            <root>
                <mxCell id="0"/>
                <mxCell id="1" parent="0"/>
                <mxCell id="mRlPuhaA0GuFDpENhoe5-5" style="edgeStyle=none;html=1;exitX=0;exitY=0.25;exitDx=0;exitDy=0;exitPerimeter=0;strokeWidth=5;fontSize=97;endArrow=none;endFill=0;entryX=1.008;entryY=0.465;entryDx=0;entryDy=0;entryPerimeter=0;" parent="1" source="mRlPuhaA0GuFDpENhoe5-1" target="mRlPuhaA0GuFDpENhoe5-8" edge="1">
                    <mxGeometry relative="1" as="geometry">
                        <mxPoint x="1200" y="800" as="targetPoint"/>
                        <Array as="points">
                            <mxPoint x="2160" y="995"/>
                            <mxPoint x="2160" y="800"/>
                        </Array>
                    </mxGeometry>
                </mxCell>
                <mxCell id="mRlPuhaA0GuFDpENhoe5-15" style="edgeStyle=none;html=1;exitX=1;exitY=0.5;exitDx=0;exitDy=0;exitPerimeter=0;strokeWidth=5;fontSize=97;endArrow=none;endFill=0;" parent="1" source="mRlPuhaA0GuFDpENhoe5-1" target="mRlPuhaA0GuFDpENhoe5-18" edge="1">
                    <mxGeometry relative="1" as="geometry">
                        <mxPoint x="2960" y="1060" as="targetPoint"/>
                    </mxGeometry>
                </mxCell>
                <mxCell id="mRlPuhaA0GuFDpENhoe5-1" value="" style="verticalLabelPosition=bottom;shadow=0;dashed=0;align=center;html=1;verticalAlign=top;shape=mxgraph.electrical.logic_gates.logic_gate;operation=or;strokeWidth=5;fontSize=97;gradientColor=none;" parent="1" vertex="1">
                    <mxGeometry x="2280" y="930" width="470" height="260" as="geometry"/>
                </mxCell>
                <mxCell id="mRlPuhaA0GuFDpENhoe5-4" style="edgeStyle=none;html=1;exitX=1;exitY=0.5;exitDx=0;exitDy=0;exitPerimeter=0;entryX=0;entryY=0.75;entryDx=0;entryDy=0;entryPerimeter=0;strokeWidth=5;fontSize=97;endArrow=none;endFill=0;" parent="1" source="mRlPuhaA0GuFDpENhoe5-2" target="mRlPuhaA0GuFDpENhoe5-1" edge="1">
                    <mxGeometry relative="1" as="geometry"/>
                </mxCell>
                <mxCell id="mRlPuhaA0GuFDpENhoe5-6" style="edgeStyle=none;html=1;exitX=0;exitY=0.25;exitDx=0;exitDy=0;exitPerimeter=0;strokeWidth=5;fontSize=97;endArrow=none;endFill=0;" parent="1" source="mRlPuhaA0GuFDpENhoe5-2" target="mRlPuhaA0GuFDpENhoe5-9" edge="1">
                    <mxGeometry relative="1" as="geometry">
                        <mxPoint x="1200" y="1035" as="targetPoint"/>
                    </mxGeometry>
                </mxCell>
                <mxCell id="mRlPuhaA0GuFDpENhoe5-7" style="edgeStyle=none;html=1;exitX=0;exitY=0.75;exitDx=0;exitDy=0;exitPerimeter=0;strokeWidth=5;fontSize=97;endArrow=none;endFill=0;" parent="1" source="mRlPuhaA0GuFDpENhoe5-2" target="mRlPuhaA0GuFDpENhoe5-10" edge="1">
                    <mxGeometry relative="1" as="geometry">
                        <mxPoint x="1199.9999999999995" y="1205" as="targetPoint"/>
                    </mxGeometry>
                </mxCell>
                <mxCell id="mRlPuhaA0GuFDpENhoe5-2" value="" style="verticalLabelPosition=bottom;shadow=0;dashed=0;align=center;html=1;verticalAlign=top;shape=mxgraph.electrical.logic_gates.logic_gate;operation=and;strokeWidth=5;fontSize=97;gradientColor=none;" parent="1" vertex="1">
                    <mxGeometry x="1550" y="950" width="500" height="340" as="geometry"/>
                </mxCell>
                <mxCell id="mRlPuhaA0GuFDpENhoe5-17" style="edgeStyle=none;html=1;exitX=1;exitY=0.5;exitDx=0;exitDy=0;exitPerimeter=0;strokeWidth=5;fontSize=97;endArrow=none;endFill=0;" parent="1" source="mRlPuhaA0GuFDpENhoe5-3" target="mRlPuhaA0GuFDpENhoe5-16" edge="1">
                    <mxGeometry relative="1" as="geometry"/>
                </mxCell>
                <mxCell id="mRlPuhaA0GuFDpENhoe5-3" value="" style="verticalLabelPosition=bottom;shadow=0;dashed=0;align=center;html=1;verticalAlign=top;shape=mxgraph.electrical.logic_gates.logic_gate;operation=and;strokeWidth=5;fontSize=97;gradientColor=none;" parent="1" vertex="1">
                    <mxGeometry x="1550" y="1570" width="500" height="340" as="geometry"/>
                </mxCell>
                <mxCell id="mRlPuhaA0GuFDpENhoe5-8" value="Gi" style="text;html=1;align=center;verticalAlign=middle;resizable=0;points=[];autosize=1;strokeColor=none;fillColor=none;fontSize=97;" parent="1" vertex="1">
                    <mxGeometry x="1050" y="740" width="120" height="130" as="geometry"/>
                </mxCell>
                <mxCell id="mRlPuhaA0GuFDpENhoe5-14" style="edgeStyle=none;html=1;entryX=0;entryY=0.25;entryDx=0;entryDy=0;entryPerimeter=0;strokeWidth=5;fontSize=97;endArrow=none;endFill=0;" parent="1" source="mRlPuhaA0GuFDpENhoe5-9" target="mRlPuhaA0GuFDpENhoe5-3" edge="1">
                    <mxGeometry relative="1" as="geometry">
                        <Array as="points">
                            <mxPoint x="1360" y="1035"/>
                            <mxPoint x="1360" y="1655"/>
                        </Array>
                    </mxGeometry>
                </mxCell>
                <mxCell id="mRlPuhaA0GuFDpENhoe5-9" value="Pi" style="text;html=1;align=center;verticalAlign=middle;resizable=0;points=[];autosize=1;strokeColor=none;fillColor=none;fontSize=97;" parent="1" vertex="1">
                    <mxGeometry x="1060" y="970" width="110" height="130" as="geometry"/>
                </mxCell>
                <mxCell id="mRlPuhaA0GuFDpENhoe5-10" value="Gk" style="text;html=1;align=center;verticalAlign=middle;resizable=0;points=[];autosize=1;strokeColor=none;fillColor=none;fontSize=97;" parent="1" vertex="1">
                    <mxGeometry x="1060" y="1140" width="150" height="130" as="geometry"/>
                </mxCell>
                <mxCell id="mRlPuhaA0GuFDpENhoe5-13" style="edgeStyle=none;html=1;entryX=0;entryY=0.75;entryDx=0;entryDy=0;entryPerimeter=0;strokeWidth=5;fontSize=97;endArrow=none;endFill=0;" parent="1" source="mRlPuhaA0GuFDpENhoe5-12" target="mRlPuhaA0GuFDpENhoe5-3" edge="1">
                    <mxGeometry relative="1" as="geometry"/>
                </mxCell>
                <mxCell id="mRlPuhaA0GuFDpENhoe5-12" value="Pk" style="text;html=1;align=center;verticalAlign=middle;resizable=0;points=[];autosize=1;strokeColor=none;fillColor=none;fontSize=97;" parent="1" vertex="1">
                    <mxGeometry x="1030" y="1760" width="140" height="130" as="geometry"/>
                </mxCell>
                <mxCell id="mRlPuhaA0GuFDpENhoe5-16" value="P" style="text;html=1;align=center;verticalAlign=middle;resizable=0;points=[];autosize=1;strokeColor=none;fillColor=none;fontSize=97;" parent="1" vertex="1">
                    <mxGeometry x="3240" y="1670" width="90" height="130" as="geometry"/>
                </mxCell>
                <mxCell id="mRlPuhaA0GuFDpENhoe5-18" value="G" style="text;html=1;align=center;verticalAlign=middle;resizable=0;points=[];autosize=1;strokeColor=none;fillColor=none;fontSize=97;" parent="1" vertex="1">
                    <mxGeometry x="3235" y="995" width="100" height="130" as="geometry"/>
                </mxCell>
            </root>
        </mxGraphModel>
    </diagram>
    <diagram id="_e4200CO4fdqUJKdtfs_" name="Page-4">
        <mxGraphModel dx="5057" dy="2794" grid="1" gridSize="10" guides="1" tooltips="1" connect="1" arrows="1" fold="1" page="1" pageScale="1" pageWidth="5000" pageHeight="4000" math="0" shadow="0">
            <root>
                <mxCell id="0"/>
                <mxCell id="1" parent="0"/>
                <mxCell id="-SzatG3sDyjyBPGcYduU-12" value="" style="whiteSpace=wrap;html=1;strokeWidth=3;fontSize=90;fillColor=#1ba1e2;fontColor=#ffffff;strokeColor=#006EAF;" parent="1" vertex="1">
                    <mxGeometry x="730" y="3350" width="8670" height="100" as="geometry"/>
                </mxCell>
                <mxCell id="-SzatG3sDyjyBPGcYduU-11" value="" style="whiteSpace=wrap;html=1;strokeWidth=3;fontSize=90;fillColor=#1ba1e2;fontColor=#ffffff;strokeColor=#006EAF;" parent="1" vertex="1">
                    <mxGeometry x="720" y="3160" width="8680" height="100" as="geometry"/>
                </mxCell>
                <mxCell id="-SzatG3sDyjyBPGcYduU-10" value="" style="whiteSpace=wrap;html=1;strokeWidth=3;fontSize=90;fillColor=#1ba1e2;fontColor=#ffffff;strokeColor=#006EAF;" parent="1" vertex="1">
                    <mxGeometry x="720" y="3040" width="8680" height="100" as="geometry"/>
                </mxCell>
                <mxCell id="-SzatG3sDyjyBPGcYduU-8" value="" style="whiteSpace=wrap;html=1;strokeWidth=3;fontSize=90;fillColor=#1ba1e2;fontColor=#ffffff;strokeColor=#006EAF;" parent="1" vertex="1">
                    <mxGeometry x="720" y="2890" width="8680" height="100" as="geometry"/>
                </mxCell>
                <mxCell id="-SzatG3sDyjyBPGcYduU-7" value="" style="whiteSpace=wrap;html=1;strokeWidth=3;fontSize=90;fillColor=#1ba1e2;fontColor=#ffffff;strokeColor=#006EAF;" parent="1" vertex="1">
                    <mxGeometry x="735" y="2650" width="8665" height="100" as="geometry"/>
                </mxCell>
                <mxCell id="-SzatG3sDyjyBPGcYduU-6" value="" style="whiteSpace=wrap;html=1;strokeWidth=3;fontSize=90;fillColor=#1ba1e2;fontColor=#ffffff;strokeColor=#006EAF;" parent="1" vertex="1">
                    <mxGeometry x="790" y="1790" width="8590" height="100" as="geometry"/>
                </mxCell>
                <mxCell id="-SzatG3sDyjyBPGcYduU-5" value="" style="whiteSpace=wrap;html=1;strokeWidth=3;fontSize=90;fillColor=#1ba1e2;fontColor=#ffffff;strokeColor=#006EAF;" parent="1" vertex="1">
                    <mxGeometry x="780" y="1550" width="8600" height="100" as="geometry"/>
                </mxCell>
                <mxCell id="-SzatG3sDyjyBPGcYduU-4" value="" style="whiteSpace=wrap;html=1;strokeWidth=3;fontSize=90;fillColor=#1ba1e2;fontColor=#ffffff;strokeColor=#006EAF;" parent="1" vertex="1">
                    <mxGeometry x="790" y="1300" width="8590" height="116" as="geometry"/>
                </mxCell>
                <mxCell id="-SzatG3sDyjyBPGcYduU-2" value="" style="whiteSpace=wrap;html=1;strokeWidth=3;fontSize=90;fillColor=#1ba1e2;fontColor=#ffffff;strokeColor=#006EAF;" parent="1" vertex="1">
                    <mxGeometry x="780" y="1060" width="8610" height="100" as="geometry"/>
                </mxCell>
                <mxCell id="-SzatG3sDyjyBPGcYduU-1" value="" style="whiteSpace=wrap;html=1;strokeWidth=3;fontSize=90;fillColor=#1ba1e2;fontColor=#ffffff;strokeColor=#006EAF;" parent="1" vertex="1">
                    <mxGeometry x="780" y="820" width="8620" height="110" as="geometry"/>
                </mxCell>
                <mxCell id="LXwm656oItNLETEccqUK-1" value="" style="whiteSpace=wrap;html=1;strokeWidth=3;fontSize=90;fillColor=#1ba1e2;fontColor=#ffffff;strokeColor=#006EAF;" parent="1" vertex="1">
                    <mxGeometry x="790" y="480" width="8620" height="100" as="geometry"/>
                </mxCell>
                <mxCell id="LXwm656oItNLETEccqUK-2" style="html=1;exitX=0.5;exitY=1;exitDx=0;exitDy=0;entryX=0.5;entryY=0;entryDx=0;entryDy=0;strokeWidth=3;fontSize=90;dashed=1;endArrow=none;endFill=0;startArrow=none;" parent="1" source="JxXNwAtKYRBv4QJeJSb--27" edge="1">
                    <mxGeometry relative="1" as="geometry">
                        <mxPoint x="1550" y="2880" as="targetPoint"/>
                    </mxGeometry>
                </mxCell>
                <mxCell id="LXwm656oItNLETEccqUK-3" value="" style="ellipse;whiteSpace=wrap;html=1;aspect=fixed;strokeWidth=3;fontSize=90;" parent="1" vertex="1">
                    <mxGeometry x="1520" y="490" width="80" height="80" as="geometry"/>
                </mxCell>
                <mxCell id="LXwm656oItNLETEccqUK-4" style="edgeStyle=none;html=1;exitX=0;exitY=1;exitDx=0;exitDy=0;entryX=1;entryY=0;entryDx=0;entryDy=0;strokeWidth=3;fontSize=90;" parent="1" source="LXwm656oItNLETEccqUK-6" target="LXwm656oItNLETEccqUK-81" edge="1">
                    <mxGeometry relative="1" as="geometry"/>
                </mxCell>
                <mxCell id="LXwm656oItNLETEccqUK-5" style="edgeStyle=none;html=1;exitX=0.5;exitY=1;exitDx=0;exitDy=0;entryX=0.5;entryY=0;entryDx=0;entryDy=0;dashed=1;strokeWidth=3;fontSize=90;endArrow=none;endFill=0;" parent="1" source="LXwm656oItNLETEccqUK-6" edge="1">
                    <mxGeometry relative="1" as="geometry">
                        <mxPoint x="1790" y="2880" as="targetPoint"/>
                    </mxGeometry>
                </mxCell>
                <mxCell id="LXwm656oItNLETEccqUK-6" value="" style="ellipse;whiteSpace=wrap;html=1;aspect=fixed;strokeWidth=3;fontSize=90;" parent="1" vertex="1">
                    <mxGeometry x="1760" y="490" width="80" height="80" as="geometry"/>
                </mxCell>
                <mxCell id="LXwm656oItNLETEccqUK-7" style="edgeStyle=none;html=1;exitX=0.5;exitY=1;exitDx=0;exitDy=0;entryX=0.5;entryY=0;entryDx=0;entryDy=0;dashed=1;strokeWidth=3;fontSize=90;endArrow=none;endFill=0;" parent="1" source="LXwm656oItNLETEccqUK-8" edge="1">
                    <mxGeometry relative="1" as="geometry">
                        <mxPoint x="2030" y="2880" as="targetPoint"/>
                    </mxGeometry>
                </mxCell>
                <mxCell id="LXwm656oItNLETEccqUK-8" value="" style="ellipse;whiteSpace=wrap;html=1;aspect=fixed;strokeWidth=3;fontSize=90;" parent="1" vertex="1">
                    <mxGeometry x="2000" y="490" width="80" height="80" as="geometry"/>
                </mxCell>
                <mxCell id="LXwm656oItNLETEccqUK-9" style="edgeStyle=none;html=1;exitX=0;exitY=1;exitDx=0;exitDy=0;strokeWidth=3;fontSize=90;" parent="1" source="LXwm656oItNLETEccqUK-11" target="LXwm656oItNLETEccqUK-83" edge="1">
                    <mxGeometry relative="1" as="geometry"/>
                </mxCell>
                <mxCell id="LXwm656oItNLETEccqUK-10" style="edgeStyle=none;html=1;exitX=0.5;exitY=1;exitDx=0;exitDy=0;entryX=0.5;entryY=0;entryDx=0;entryDy=0;dashed=1;strokeWidth=3;fontSize=90;endArrow=none;endFill=0;" parent="1" source="LXwm656oItNLETEccqUK-11" edge="1">
                    <mxGeometry relative="1" as="geometry">
                        <mxPoint x="2270" y="2880" as="targetPoint"/>
                    </mxGeometry>
                </mxCell>
                <mxCell id="LXwm656oItNLETEccqUK-11" value="" style="ellipse;whiteSpace=wrap;html=1;aspect=fixed;strokeWidth=3;fontSize=90;" parent="1" vertex="1">
                    <mxGeometry x="2240" y="490" width="80" height="80" as="geometry"/>
                </mxCell>
                <mxCell id="LXwm656oItNLETEccqUK-12" style="edgeStyle=none;html=1;exitX=0.5;exitY=1;exitDx=0;exitDy=0;entryX=0.5;entryY=0;entryDx=0;entryDy=0;dashed=1;strokeWidth=3;fontSize=90;endArrow=none;endFill=0;" parent="1" source="LXwm656oItNLETEccqUK-13" edge="1">
                    <mxGeometry relative="1" as="geometry">
                        <mxPoint x="2510" y="2880" as="targetPoint"/>
                    </mxGeometry>
                </mxCell>
                <mxCell id="LXwm656oItNLETEccqUK-13" value="" style="ellipse;whiteSpace=wrap;html=1;aspect=fixed;strokeWidth=3;fontSize=90;" parent="1" vertex="1">
                    <mxGeometry x="2480" y="490" width="80" height="80" as="geometry"/>
                </mxCell>
                <mxCell id="LXwm656oItNLETEccqUK-14" style="edgeStyle=none;html=1;exitX=0;exitY=1;exitDx=0;exitDy=0;entryX=1;entryY=0;entryDx=0;entryDy=0;strokeWidth=3;fontSize=90;" parent="1" source="LXwm656oItNLETEccqUK-16" target="LXwm656oItNLETEccqUK-84" edge="1">
                    <mxGeometry relative="1" as="geometry"/>
                </mxCell>
                <mxCell id="LXwm656oItNLETEccqUK-15" style="edgeStyle=none;html=1;exitX=0.5;exitY=1;exitDx=0;exitDy=0;entryX=0.5;entryY=0;entryDx=0;entryDy=0;dashed=1;strokeWidth=3;fontSize=90;endArrow=none;endFill=0;" parent="1" source="LXwm656oItNLETEccqUK-16" edge="1">
                    <mxGeometry relative="1" as="geometry">
                        <mxPoint x="2750" y="2880" as="targetPoint"/>
                    </mxGeometry>
                </mxCell>
                <mxCell id="LXwm656oItNLETEccqUK-16" value="" style="ellipse;whiteSpace=wrap;html=1;aspect=fixed;strokeWidth=3;fontSize=90;" parent="1" vertex="1">
                    <mxGeometry x="2720" y="490" width="80" height="80" as="geometry"/>
                </mxCell>
                <mxCell id="LXwm656oItNLETEccqUK-17" value="" style="ellipse;whiteSpace=wrap;html=1;aspect=fixed;strokeWidth=3;fontSize=90;" parent="1" vertex="1">
                    <mxGeometry x="2960" y="490" width="80" height="80" as="geometry"/>
                </mxCell>
                <mxCell id="LXwm656oItNLETEccqUK-18" style="edgeStyle=none;html=1;exitX=0;exitY=1;exitDx=0;exitDy=0;entryX=1;entryY=0;entryDx=0;entryDy=0;strokeWidth=3;fontSize=90;" parent="1" source="LXwm656oItNLETEccqUK-20" target="LXwm656oItNLETEccqUK-87" edge="1">
                    <mxGeometry relative="1" as="geometry"/>
                </mxCell>
                <mxCell id="LXwm656oItNLETEccqUK-19" style="edgeStyle=none;html=1;exitX=0.5;exitY=1;exitDx=0;exitDy=0;entryX=0.5;entryY=0;entryDx=0;entryDy=0;dashed=1;strokeWidth=3;fontSize=90;endArrow=none;endFill=0;" parent="1" source="LXwm656oItNLETEccqUK-20" edge="1">
                    <mxGeometry relative="1" as="geometry">
                        <mxPoint x="3230" y="2880" as="targetPoint"/>
                    </mxGeometry>
                </mxCell>
                <mxCell id="LXwm656oItNLETEccqUK-20" value="" style="ellipse;whiteSpace=wrap;html=1;aspect=fixed;strokeWidth=3;fontSize=90;" parent="1" vertex="1">
                    <mxGeometry x="3200" y="490" width="80" height="80" as="geometry"/>
                </mxCell>
                <mxCell id="LXwm656oItNLETEccqUK-21" style="edgeStyle=none;html=1;exitX=0.5;exitY=1;exitDx=0;exitDy=0;entryX=0.5;entryY=0;entryDx=0;entryDy=0;dashed=1;strokeWidth=3;fontSize=90;endArrow=none;endFill=0;" parent="1" source="LXwm656oItNLETEccqUK-22" edge="1">
                    <mxGeometry relative="1" as="geometry">
                        <mxPoint x="3470" y="2880" as="targetPoint"/>
                    </mxGeometry>
                </mxCell>
                <mxCell id="LXwm656oItNLETEccqUK-22" value="" style="ellipse;whiteSpace=wrap;html=1;aspect=fixed;strokeWidth=3;fontSize=90;" parent="1" vertex="1">
                    <mxGeometry x="3440" y="490" width="80" height="80" as="geometry"/>
                </mxCell>
                <mxCell id="LXwm656oItNLETEccqUK-23" style="edgeStyle=none;html=1;exitX=0;exitY=1;exitDx=0;exitDy=0;strokeWidth=3;fontSize=90;" parent="1" source="LXwm656oItNLETEccqUK-25" target="LXwm656oItNLETEccqUK-88" edge="1">
                    <mxGeometry relative="1" as="geometry"/>
                </mxCell>
                <mxCell id="LXwm656oItNLETEccqUK-24" style="edgeStyle=none;html=1;exitX=0.5;exitY=1;exitDx=0;exitDy=0;entryX=0.5;entryY=0;entryDx=0;entryDy=0;dashed=1;strokeWidth=3;fontSize=90;endArrow=none;endFill=0;" parent="1" source="LXwm656oItNLETEccqUK-25" edge="1">
                    <mxGeometry relative="1" as="geometry">
                        <mxPoint x="3710" y="2880" as="targetPoint"/>
                    </mxGeometry>
                </mxCell>
                <mxCell id="LXwm656oItNLETEccqUK-25" value="" style="ellipse;whiteSpace=wrap;html=1;aspect=fixed;strokeWidth=3;fontSize=90;" parent="1" vertex="1">
                    <mxGeometry x="3680" y="490" width="80" height="80" as="geometry"/>
                </mxCell>
                <mxCell id="LXwm656oItNLETEccqUK-26" style="edgeStyle=none;html=1;exitX=0.5;exitY=1;exitDx=0;exitDy=0;entryX=0.5;entryY=0;entryDx=0;entryDy=0;dashed=1;strokeWidth=3;fontSize=90;endArrow=none;endFill=0;" parent="1" source="LXwm656oItNLETEccqUK-27" edge="1">
                    <mxGeometry relative="1" as="geometry">
                        <mxPoint x="3950" y="2880" as="targetPoint"/>
                    </mxGeometry>
                </mxCell>
                <mxCell id="LXwm656oItNLETEccqUK-27" value="" style="ellipse;whiteSpace=wrap;html=1;aspect=fixed;strokeWidth=3;fontSize=90;" parent="1" vertex="1">
                    <mxGeometry x="3920" y="490" width="80" height="80" as="geometry"/>
                </mxCell>
                <mxCell id="LXwm656oItNLETEccqUK-28" style="edgeStyle=none;html=1;exitX=0;exitY=1;exitDx=0;exitDy=0;entryX=1;entryY=0;entryDx=0;entryDy=0;strokeWidth=3;fontSize=90;" parent="1" source="LXwm656oItNLETEccqUK-30" target="LXwm656oItNLETEccqUK-90" edge="1">
                    <mxGeometry relative="1" as="geometry"/>
                </mxCell>
                <mxCell id="LXwm656oItNLETEccqUK-29" style="edgeStyle=none;html=1;exitX=0.5;exitY=1;exitDx=0;exitDy=0;entryX=0.5;entryY=0;entryDx=0;entryDy=0;dashed=1;strokeWidth=3;fontSize=90;endArrow=none;endFill=0;" parent="1" source="LXwm656oItNLETEccqUK-30" edge="1">
                    <mxGeometry relative="1" as="geometry">
                        <mxPoint x="4190" y="2880" as="targetPoint"/>
                    </mxGeometry>
                </mxCell>
                <mxCell id="LXwm656oItNLETEccqUK-30" value="" style="ellipse;whiteSpace=wrap;html=1;aspect=fixed;strokeWidth=3;fontSize=90;" parent="1" vertex="1">
                    <mxGeometry x="4160" y="490" width="80" height="80" as="geometry"/>
                </mxCell>
                <mxCell id="LXwm656oItNLETEccqUK-31" style="edgeStyle=none;html=1;exitX=0.5;exitY=1;exitDx=0;exitDy=0;entryX=0.5;entryY=0;entryDx=0;entryDy=0;dashed=1;strokeWidth=3;fontSize=90;endArrow=none;endFill=0;" parent="1" source="LXwm656oItNLETEccqUK-32" edge="1">
                    <mxGeometry relative="1" as="geometry">
                        <mxPoint x="4430" y="2880" as="targetPoint"/>
                    </mxGeometry>
                </mxCell>
                <mxCell id="LXwm656oItNLETEccqUK-32" value="" style="ellipse;whiteSpace=wrap;html=1;aspect=fixed;strokeWidth=3;fontSize=90;" parent="1" vertex="1">
                    <mxGeometry x="4400" y="490" width="80" height="80" as="geometry"/>
                </mxCell>
                <mxCell id="LXwm656oItNLETEccqUK-33" style="edgeStyle=none;html=1;exitX=0;exitY=1;exitDx=0;exitDy=0;entryX=1;entryY=0;entryDx=0;entryDy=0;strokeWidth=3;fontSize=90;" parent="1" source="LXwm656oItNLETEccqUK-35" target="LXwm656oItNLETEccqUK-91" edge="1">
                    <mxGeometry relative="1" as="geometry"/>
                </mxCell>
                <mxCell id="LXwm656oItNLETEccqUK-34" style="edgeStyle=none;html=1;exitX=0.5;exitY=1;exitDx=0;exitDy=0;entryX=0.5;entryY=0;entryDx=0;entryDy=0;dashed=1;strokeWidth=3;fontSize=90;endArrow=none;endFill=0;" parent="1" source="LXwm656oItNLETEccqUK-35" edge="1">
                    <mxGeometry relative="1" as="geometry">
                        <mxPoint x="4670" y="2880" as="targetPoint"/>
                    </mxGeometry>
                </mxCell>
                <mxCell id="LXwm656oItNLETEccqUK-35" value="" style="ellipse;whiteSpace=wrap;html=1;aspect=fixed;strokeWidth=3;fontSize=90;" parent="1" vertex="1">
                    <mxGeometry x="4640" y="490" width="80" height="80" as="geometry"/>
                </mxCell>
                <mxCell id="LXwm656oItNLETEccqUK-36" style="edgeStyle=none;html=1;exitX=0.5;exitY=1;exitDx=0;exitDy=0;entryX=0.5;entryY=0;entryDx=0;entryDy=0;dashed=1;strokeWidth=3;fontSize=90;endArrow=none;endFill=0;" parent="1" source="LXwm656oItNLETEccqUK-37" edge="1">
                    <mxGeometry relative="1" as="geometry">
                        <mxPoint x="4910" y="2880" as="targetPoint"/>
                    </mxGeometry>
                </mxCell>
                <mxCell id="LXwm656oItNLETEccqUK-37" value="" style="ellipse;whiteSpace=wrap;html=1;aspect=fixed;strokeWidth=3;fontSize=90;" parent="1" vertex="1">
                    <mxGeometry x="4880" y="490" width="80" height="80" as="geometry"/>
                </mxCell>
                <mxCell id="LXwm656oItNLETEccqUK-38" style="edgeStyle=none;html=1;exitX=0;exitY=1;exitDx=0;exitDy=0;entryX=1;entryY=0;entryDx=0;entryDy=0;strokeWidth=3;fontSize=90;" parent="1" source="LXwm656oItNLETEccqUK-40" target="LXwm656oItNLETEccqUK-93" edge="1">
                    <mxGeometry relative="1" as="geometry"/>
                </mxCell>
                <mxCell id="LXwm656oItNLETEccqUK-39" style="edgeStyle=none;html=1;exitX=0.5;exitY=1;exitDx=0;exitDy=0;entryX=0.5;entryY=0;entryDx=0;entryDy=0;dashed=1;strokeWidth=3;fontSize=90;endArrow=none;endFill=0;" parent="1" source="LXwm656oItNLETEccqUK-40" edge="1">
                    <mxGeometry relative="1" as="geometry">
                        <mxPoint x="5150" y="2880" as="targetPoint"/>
                    </mxGeometry>
                </mxCell>
                <mxCell id="LXwm656oItNLETEccqUK-40" value="" style="ellipse;whiteSpace=wrap;html=1;aspect=fixed;strokeWidth=3;fontSize=90;" parent="1" vertex="1">
                    <mxGeometry x="5120" y="490" width="80" height="80" as="geometry"/>
                </mxCell>
                <mxCell id="LXwm656oItNLETEccqUK-41" style="edgeStyle=none;html=1;exitX=0.5;exitY=1;exitDx=0;exitDy=0;entryX=0.5;entryY=0;entryDx=0;entryDy=0;dashed=1;strokeWidth=3;fontSize=90;endArrow=none;endFill=0;" parent="1" source="LXwm656oItNLETEccqUK-42" edge="1">
                    <mxGeometry relative="1" as="geometry">
                        <mxPoint x="5390" y="2880" as="targetPoint"/>
                    </mxGeometry>
                </mxCell>
                <mxCell id="LXwm656oItNLETEccqUK-42" value="" style="ellipse;whiteSpace=wrap;html=1;aspect=fixed;strokeWidth=3;fontSize=90;" parent="1" vertex="1">
                    <mxGeometry x="5360" y="490" width="80" height="80" as="geometry"/>
                </mxCell>
                <mxCell id="LXwm656oItNLETEccqUK-43" style="edgeStyle=none;html=1;exitX=0;exitY=1;exitDx=0;exitDy=0;entryX=1;entryY=0;entryDx=0;entryDy=0;strokeWidth=3;fontSize=90;" parent="1" source="LXwm656oItNLETEccqUK-45" target="LXwm656oItNLETEccqUK-94" edge="1">
                    <mxGeometry relative="1" as="geometry"/>
                </mxCell>
                <mxCell id="LXwm656oItNLETEccqUK-44" style="edgeStyle=none;html=1;exitX=0.5;exitY=1;exitDx=0;exitDy=0;entryX=0.5;entryY=0;entryDx=0;entryDy=0;dashed=1;strokeWidth=3;fontSize=90;endArrow=none;endFill=0;" parent="1" source="LXwm656oItNLETEccqUK-45" edge="1">
                    <mxGeometry relative="1" as="geometry">
                        <mxPoint x="5630" y="2880" as="targetPoint"/>
                    </mxGeometry>
                </mxCell>
                <mxCell id="LXwm656oItNLETEccqUK-45" value="" style="ellipse;whiteSpace=wrap;html=1;aspect=fixed;strokeWidth=3;fontSize=90;" parent="1" vertex="1">
                    <mxGeometry x="5600" y="490" width="80" height="80" as="geometry"/>
                </mxCell>
                <mxCell id="LXwm656oItNLETEccqUK-46" style="edgeStyle=none;html=1;exitX=0.5;exitY=1;exitDx=0;exitDy=0;entryX=0.5;entryY=0;entryDx=0;entryDy=0;dashed=1;strokeWidth=3;fontSize=90;endArrow=none;endFill=0;" parent="1" source="LXwm656oItNLETEccqUK-47" edge="1">
                    <mxGeometry relative="1" as="geometry">
                        <mxPoint x="5870" y="2880" as="targetPoint"/>
                    </mxGeometry>
                </mxCell>
                <mxCell id="LXwm656oItNLETEccqUK-47" value="" style="ellipse;whiteSpace=wrap;html=1;aspect=fixed;strokeWidth=3;fontSize=90;" parent="1" vertex="1">
                    <mxGeometry x="5840" y="490" width="80" height="80" as="geometry"/>
                </mxCell>
                <mxCell id="LXwm656oItNLETEccqUK-48" style="edgeStyle=none;html=1;exitX=0;exitY=1;exitDx=0;exitDy=0;entryX=1;entryY=0;entryDx=0;entryDy=0;strokeWidth=3;fontSize=90;" parent="1" source="LXwm656oItNLETEccqUK-50" target="LXwm656oItNLETEccqUK-96" edge="1">
                    <mxGeometry relative="1" as="geometry"/>
                </mxCell>
                <mxCell id="LXwm656oItNLETEccqUK-49" style="edgeStyle=none;html=1;exitX=0.5;exitY=1;exitDx=0;exitDy=0;entryX=0.5;entryY=0;entryDx=0;entryDy=0;dashed=1;strokeWidth=3;fontSize=90;endArrow=none;endFill=0;" parent="1" source="LXwm656oItNLETEccqUK-50" edge="1">
                    <mxGeometry relative="1" as="geometry">
                        <mxPoint x="6110" y="2880" as="targetPoint"/>
                    </mxGeometry>
                </mxCell>
                <mxCell id="LXwm656oItNLETEccqUK-50" value="" style="ellipse;whiteSpace=wrap;html=1;aspect=fixed;strokeWidth=3;fontSize=90;" parent="1" vertex="1">
                    <mxGeometry x="6080" y="490" width="80" height="80" as="geometry"/>
                </mxCell>
                <mxCell id="LXwm656oItNLETEccqUK-51" style="edgeStyle=none;html=1;exitX=0.5;exitY=1;exitDx=0;exitDy=0;entryX=0.5;entryY=0;entryDx=0;entryDy=0;dashed=1;strokeWidth=3;fontSize=90;endArrow=none;endFill=0;" parent="1" source="LXwm656oItNLETEccqUK-52" edge="1">
                    <mxGeometry relative="1" as="geometry">
                        <mxPoint x="6350" y="2880" as="targetPoint"/>
                    </mxGeometry>
                </mxCell>
                <mxCell id="LXwm656oItNLETEccqUK-52" value="" style="ellipse;whiteSpace=wrap;html=1;aspect=fixed;strokeWidth=3;fontSize=90;" parent="1" vertex="1">
                    <mxGeometry x="6320" y="490" width="80" height="80" as="geometry"/>
                </mxCell>
                <mxCell id="LXwm656oItNLETEccqUK-53" style="edgeStyle=none;html=1;exitX=0;exitY=1;exitDx=0;exitDy=0;entryX=1;entryY=0;entryDx=0;entryDy=0;strokeWidth=3;fontSize=90;" parent="1" source="LXwm656oItNLETEccqUK-55" target="LXwm656oItNLETEccqUK-97" edge="1">
                    <mxGeometry relative="1" as="geometry"/>
                </mxCell>
                <mxCell id="LXwm656oItNLETEccqUK-54" style="edgeStyle=none;html=1;exitX=0.5;exitY=1;exitDx=0;exitDy=0;entryX=0.5;entryY=0;entryDx=0;entryDy=0;dashed=1;strokeWidth=3;fontSize=90;endArrow=none;endFill=0;" parent="1" source="LXwm656oItNLETEccqUK-55" edge="1">
                    <mxGeometry relative="1" as="geometry">
                        <mxPoint x="6590" y="2880" as="targetPoint"/>
                    </mxGeometry>
                </mxCell>
                <mxCell id="LXwm656oItNLETEccqUK-55" value="" style="ellipse;whiteSpace=wrap;html=1;aspect=fixed;strokeWidth=3;fontSize=90;" parent="1" vertex="1">
                    <mxGeometry x="6560" y="490" width="80" height="80" as="geometry"/>
                </mxCell>
                <mxCell id="LXwm656oItNLETEccqUK-56" style="edgeStyle=none;html=1;exitX=0.5;exitY=1;exitDx=0;exitDy=0;entryX=0.5;entryY=0;entryDx=0;entryDy=0;dashed=1;strokeWidth=3;fontSize=90;endArrow=none;endFill=0;" parent="1" source="LXwm656oItNLETEccqUK-57" edge="1">
                    <mxGeometry relative="1" as="geometry">
                        <mxPoint x="6830" y="2880" as="targetPoint"/>
                    </mxGeometry>
                </mxCell>
                <mxCell id="LXwm656oItNLETEccqUK-57" value="" style="ellipse;whiteSpace=wrap;html=1;aspect=fixed;strokeWidth=3;fontSize=90;" parent="1" vertex="1">
                    <mxGeometry x="6800" y="490" width="80" height="80" as="geometry"/>
                </mxCell>
                <mxCell id="LXwm656oItNLETEccqUK-58" style="edgeStyle=none;html=1;exitX=0;exitY=1;exitDx=0;exitDy=0;entryX=1;entryY=0;entryDx=0;entryDy=0;strokeWidth=3;fontSize=90;" parent="1" source="LXwm656oItNLETEccqUK-60" target="LXwm656oItNLETEccqUK-99" edge="1">
                    <mxGeometry relative="1" as="geometry"/>
                </mxCell>
                <mxCell id="LXwm656oItNLETEccqUK-59" style="edgeStyle=none;html=1;exitX=0.5;exitY=1;exitDx=0;exitDy=0;entryX=0.5;entryY=0;entryDx=0;entryDy=0;dashed=1;strokeWidth=3;fontSize=90;endArrow=none;endFill=0;" parent="1" source="LXwm656oItNLETEccqUK-60" edge="1">
                    <mxGeometry relative="1" as="geometry">
                        <mxPoint x="7070" y="2880" as="targetPoint"/>
                    </mxGeometry>
                </mxCell>
                <mxCell id="LXwm656oItNLETEccqUK-60" value="" style="ellipse;whiteSpace=wrap;html=1;aspect=fixed;strokeWidth=3;fontSize=90;" parent="1" vertex="1">
                    <mxGeometry x="7040" y="490" width="80" height="80" as="geometry"/>
                </mxCell>
                <mxCell id="LXwm656oItNLETEccqUK-61" style="edgeStyle=none;html=1;exitX=0.5;exitY=1;exitDx=0;exitDy=0;entryX=0.5;entryY=0;entryDx=0;entryDy=0;dashed=1;strokeWidth=3;fontSize=90;endArrow=none;endFill=0;startArrow=none;" parent="1" source="JxXNwAtKYRBv4QJeJSb--22" edge="1">
                    <mxGeometry relative="1" as="geometry">
                        <mxPoint x="7310" y="2880" as="targetPoint"/>
                    </mxGeometry>
                </mxCell>
                <mxCell id="LXwm656oItNLETEccqUK-62" value="" style="ellipse;whiteSpace=wrap;html=1;aspect=fixed;strokeWidth=3;fontSize=90;" parent="1" vertex="1">
                    <mxGeometry x="7280" y="490" width="80" height="80" as="geometry"/>
                </mxCell>
                <mxCell id="LXwm656oItNLETEccqUK-63" style="edgeStyle=none;html=1;exitX=0;exitY=1;exitDx=0;exitDy=0;entryX=1;entryY=0;entryDx=0;entryDy=0;strokeWidth=3;fontSize=90;" parent="1" source="LXwm656oItNLETEccqUK-65" target="LXwm656oItNLETEccqUK-100" edge="1">
                    <mxGeometry relative="1" as="geometry"/>
                </mxCell>
                <mxCell id="LXwm656oItNLETEccqUK-64" style="edgeStyle=none;html=1;exitX=0.5;exitY=1;exitDx=0;exitDy=0;entryX=0.5;entryY=0;entryDx=0;entryDy=0;dashed=1;strokeWidth=3;fontSize=90;endArrow=none;endFill=0;" parent="1" source="LXwm656oItNLETEccqUK-65" edge="1">
                    <mxGeometry relative="1" as="geometry">
                        <mxPoint x="7550" y="2880" as="targetPoint"/>
                    </mxGeometry>
                </mxCell>
                <mxCell id="LXwm656oItNLETEccqUK-65" value="" style="ellipse;whiteSpace=wrap;html=1;aspect=fixed;strokeWidth=3;fontSize=90;" parent="1" vertex="1">
                    <mxGeometry x="7520" y="490" width="80" height="80" as="geometry"/>
                </mxCell>
                <mxCell id="LXwm656oItNLETEccqUK-66" style="edgeStyle=none;html=1;exitX=0.5;exitY=1;exitDx=0;exitDy=0;entryX=0.5;entryY=0;entryDx=0;entryDy=0;dashed=1;strokeWidth=3;fontSize=90;endArrow=none;endFill=0;" parent="1" source="LXwm656oItNLETEccqUK-67" edge="1">
                    <mxGeometry relative="1" as="geometry">
                        <mxPoint x="7790" y="2880" as="targetPoint"/>
                    </mxGeometry>
                </mxCell>
                <mxCell id="LXwm656oItNLETEccqUK-67" value="" style="ellipse;whiteSpace=wrap;html=1;aspect=fixed;strokeWidth=3;fontSize=90;" parent="1" vertex="1">
                    <mxGeometry x="7760" y="490" width="80" height="80" as="geometry"/>
                </mxCell>
                <mxCell id="LXwm656oItNLETEccqUK-68" style="edgeStyle=none;html=1;exitX=0;exitY=1;exitDx=0;exitDy=0;entryX=1;entryY=0;entryDx=0;entryDy=0;strokeWidth=3;fontSize=90;" parent="1" source="LXwm656oItNLETEccqUK-70" target="LXwm656oItNLETEccqUK-102" edge="1">
                    <mxGeometry relative="1" as="geometry"/>
                </mxCell>
                <mxCell id="LXwm656oItNLETEccqUK-69" style="edgeStyle=none;html=1;exitX=0.5;exitY=1;exitDx=0;exitDy=0;entryX=0.5;entryY=0;entryDx=0;entryDy=0;dashed=1;strokeWidth=3;fontSize=90;endArrow=none;endFill=0;" parent="1" source="LXwm656oItNLETEccqUK-70" edge="1">
                    <mxGeometry relative="1" as="geometry">
                        <mxPoint x="8030" y="2880" as="targetPoint"/>
                    </mxGeometry>
                </mxCell>
                <mxCell id="LXwm656oItNLETEccqUK-70" value="" style="ellipse;whiteSpace=wrap;html=1;aspect=fixed;strokeWidth=3;fontSize=90;" parent="1" vertex="1">
                    <mxGeometry x="8000" y="490" width="80" height="80" as="geometry"/>
                </mxCell>
                <mxCell id="LXwm656oItNLETEccqUK-71" style="edgeStyle=none;html=1;exitX=0.5;exitY=1;exitDx=0;exitDy=0;entryX=0.5;entryY=0;entryDx=0;entryDy=0;dashed=1;strokeWidth=3;fontSize=90;endArrow=none;endFill=0;" parent="1" source="LXwm656oItNLETEccqUK-72" edge="1">
                    <mxGeometry relative="1" as="geometry">
                        <mxPoint x="8270" y="2880" as="targetPoint"/>
                    </mxGeometry>
                </mxCell>
                <mxCell id="LXwm656oItNLETEccqUK-72" value="" style="ellipse;whiteSpace=wrap;html=1;aspect=fixed;strokeWidth=3;fontSize=90;" parent="1" vertex="1">
                    <mxGeometry x="8240" y="490" width="80" height="80" as="geometry"/>
                </mxCell>
                <mxCell id="LXwm656oItNLETEccqUK-73" style="edgeStyle=none;html=1;exitX=0;exitY=1;exitDx=0;exitDy=0;entryX=1;entryY=0;entryDx=0;entryDy=0;strokeWidth=3;fontSize=90;" parent="1" source="LXwm656oItNLETEccqUK-75" target="LXwm656oItNLETEccqUK-103" edge="1">
                    <mxGeometry relative="1" as="geometry"/>
                </mxCell>
                <mxCell id="LXwm656oItNLETEccqUK-74" style="edgeStyle=none;html=1;exitX=0.5;exitY=1;exitDx=0;exitDy=0;entryX=0.5;entryY=0;entryDx=0;entryDy=0;dashed=1;strokeWidth=3;fontSize=90;endArrow=none;endFill=0;" parent="1" source="LXwm656oItNLETEccqUK-75" edge="1">
                    <mxGeometry relative="1" as="geometry">
                        <mxPoint x="8510" y="2880" as="targetPoint"/>
                    </mxGeometry>
                </mxCell>
                <mxCell id="LXwm656oItNLETEccqUK-75" value="" style="ellipse;whiteSpace=wrap;html=1;aspect=fixed;strokeWidth=3;fontSize=90;" parent="1" vertex="1">
                    <mxGeometry x="8480" y="490" width="80" height="80" as="geometry"/>
                </mxCell>
                <mxCell id="LXwm656oItNLETEccqUK-76" style="edgeStyle=none;html=1;exitX=0.5;exitY=1;exitDx=0;exitDy=0;entryX=0.5;entryY=0;entryDx=0;entryDy=0;dashed=1;strokeWidth=3;fontSize=90;endArrow=none;endFill=0;startArrow=none;" parent="1" source="JxXNwAtKYRBv4QJeJSb--16" edge="1">
                    <mxGeometry relative="1" as="geometry">
                        <mxPoint x="8750" y="2880" as="targetPoint"/>
                    </mxGeometry>
                </mxCell>
                <mxCell id="LXwm656oItNLETEccqUK-77" value="" style="ellipse;whiteSpace=wrap;html=1;aspect=fixed;strokeWidth=3;fontSize=90;" parent="1" vertex="1">
                    <mxGeometry x="8720" y="490" width="80" height="80" as="geometry"/>
                </mxCell>
                <mxCell id="LXwm656oItNLETEccqUK-78" style="edgeStyle=none;html=1;exitX=0;exitY=1;exitDx=0;exitDy=0;entryX=1;entryY=0;entryDx=0;entryDy=0;strokeWidth=3;fontSize=90;" parent="1" source="LXwm656oItNLETEccqUK-80" target="LXwm656oItNLETEccqUK-106" edge="1">
                    <mxGeometry relative="1" as="geometry"/>
                </mxCell>
                <mxCell id="LXwm656oItNLETEccqUK-79" style="edgeStyle=none;html=1;exitX=0.5;exitY=1;exitDx=0;exitDy=0;entryX=0.5;entryY=0;entryDx=0;entryDy=0;dashed=1;strokeWidth=3;fontSize=90;endArrow=none;endFill=0;startArrow=none;" parent="1" source="JxXNwAtKYRBv4QJeJSb--3" edge="1">
                    <mxGeometry relative="1" as="geometry">
                        <mxPoint x="8990" y="2880" as="targetPoint"/>
                    </mxGeometry>
                </mxCell>
                <mxCell id="LXwm656oItNLETEccqUK-80" value="" style="ellipse;whiteSpace=wrap;html=1;aspect=fixed;strokeWidth=3;fontSize=90;" parent="1" vertex="1">
                    <mxGeometry x="8960" y="490" width="80" height="80" as="geometry"/>
                </mxCell>
                <mxCell id="LXwm656oItNLETEccqUK-81" value="" style="ellipse;whiteSpace=wrap;html=1;aspect=fixed;strokeWidth=3;fontSize=90;" parent="1" vertex="1">
                    <mxGeometry x="1520" y="830" width="80" height="80" as="geometry"/>
                </mxCell>
                <mxCell id="LXwm656oItNLETEccqUK-82" style="edgeStyle=none;html=1;exitX=0;exitY=1;exitDx=0;exitDy=0;entryX=1;entryY=0;entryDx=0;entryDy=0;strokeWidth=3;fontSize=90;" parent="1" source="LXwm656oItNLETEccqUK-83" target="LXwm656oItNLETEccqUK-107" edge="1">
                    <mxGeometry relative="1" as="geometry"/>
                </mxCell>
                <mxCell id="LXwm656oItNLETEccqUK-83" value="" style="ellipse;whiteSpace=wrap;html=1;aspect=fixed;strokeWidth=3;fontSize=90;" parent="1" vertex="1">
                    <mxGeometry x="2000" y="830" width="80" height="80" as="geometry"/>
                </mxCell>
                <mxCell id="LXwm656oItNLETEccqUK-84" value="" style="ellipse;whiteSpace=wrap;html=1;aspect=fixed;strokeWidth=3;fontSize=90;" parent="1" vertex="1">
                    <mxGeometry x="2480" y="830" width="80" height="80" as="geometry"/>
                </mxCell>
                <mxCell id="LXwm656oItNLETEccqUK-85" style="edgeStyle=none;html=1;exitX=0;exitY=1;exitDx=0;exitDy=0;entryX=1;entryY=0;entryDx=0;entryDy=0;strokeWidth=3;fontSize=90;" parent="1" source="LXwm656oItNLETEccqUK-87" target="LXwm656oItNLETEccqUK-109" edge="1">
                    <mxGeometry relative="1" as="geometry"/>
                </mxCell>
                <mxCell id="LXwm656oItNLETEccqUK-86" style="edgeStyle=none;html=1;exitX=0.5;exitY=1;exitDx=0;exitDy=0;entryX=0.5;entryY=0;entryDx=0;entryDy=0;dashed=1;strokeWidth=3;fontSize=90;endArrow=none;endFill=0;" parent="1" source="LXwm656oItNLETEccqUK-87" edge="1">
                    <mxGeometry relative="1" as="geometry">
                        <mxPoint x="2990" y="2880" as="targetPoint"/>
                    </mxGeometry>
                </mxCell>
                <mxCell id="LXwm656oItNLETEccqUK-87" value="" style="ellipse;whiteSpace=wrap;html=1;aspect=fixed;strokeWidth=3;fontSize=90;" parent="1" vertex="1">
                    <mxGeometry x="2960" y="830" width="80" height="80" as="geometry"/>
                </mxCell>
                <mxCell id="LXwm656oItNLETEccqUK-88" value="" style="ellipse;whiteSpace=wrap;html=1;aspect=fixed;strokeWidth=3;fontSize=90;" parent="1" vertex="1">
                    <mxGeometry x="3440" y="830" width="80" height="80" as="geometry"/>
                </mxCell>
                <mxCell id="LXwm656oItNLETEccqUK-89" style="edgeStyle=none;html=1;exitX=0;exitY=1;exitDx=0;exitDy=0;entryX=1;entryY=0;entryDx=0;entryDy=0;strokeWidth=3;fontSize=90;" parent="1" source="LXwm656oItNLETEccqUK-90" target="LXwm656oItNLETEccqUK-110" edge="1">
                    <mxGeometry relative="1" as="geometry"/>
                </mxCell>
                <mxCell id="LXwm656oItNLETEccqUK-90" value="" style="ellipse;whiteSpace=wrap;html=1;aspect=fixed;strokeWidth=3;fontSize=90;" parent="1" vertex="1">
                    <mxGeometry x="3920" y="830" width="80" height="80" as="geometry"/>
                </mxCell>
                <mxCell id="LXwm656oItNLETEccqUK-91" value="" style="ellipse;whiteSpace=wrap;html=1;aspect=fixed;strokeWidth=3;fontSize=90;" parent="1" vertex="1">
                    <mxGeometry x="4400" y="830" width="80" height="80" as="geometry"/>
                </mxCell>
                <mxCell id="LXwm656oItNLETEccqUK-92" style="edgeStyle=none;html=1;exitX=0;exitY=1;exitDx=0;exitDy=0;entryX=1;entryY=0;entryDx=0;entryDy=0;strokeWidth=3;fontSize=90;" parent="1" source="LXwm656oItNLETEccqUK-93" target="LXwm656oItNLETEccqUK-112" edge="1">
                    <mxGeometry relative="1" as="geometry"/>
                </mxCell>
                <mxCell id="LXwm656oItNLETEccqUK-93" value="" style="ellipse;whiteSpace=wrap;html=1;aspect=fixed;strokeWidth=3;fontSize=90;" parent="1" vertex="1">
                    <mxGeometry x="4880" y="830" width="80" height="80" as="geometry"/>
                </mxCell>
                <mxCell id="LXwm656oItNLETEccqUK-94" value="" style="ellipse;whiteSpace=wrap;html=1;aspect=fixed;strokeWidth=3;fontSize=90;" parent="1" vertex="1">
                    <mxGeometry x="5360" y="830" width="80" height="80" as="geometry"/>
                </mxCell>
                <mxCell id="LXwm656oItNLETEccqUK-95" style="edgeStyle=none;html=1;exitX=0;exitY=1;exitDx=0;exitDy=0;entryX=1;entryY=0;entryDx=0;entryDy=0;strokeWidth=3;fontSize=90;" parent="1" source="LXwm656oItNLETEccqUK-96" target="LXwm656oItNLETEccqUK-113" edge="1">
                    <mxGeometry relative="1" as="geometry"/>
                </mxCell>
                <mxCell id="LXwm656oItNLETEccqUK-96" value="" style="ellipse;whiteSpace=wrap;html=1;aspect=fixed;strokeWidth=3;fontSize=90;" parent="1" vertex="1">
                    <mxGeometry x="5840" y="830" width="80" height="80" as="geometry"/>
                </mxCell>
                <mxCell id="LXwm656oItNLETEccqUK-97" value="" style="ellipse;whiteSpace=wrap;html=1;aspect=fixed;strokeWidth=3;fontSize=90;" parent="1" vertex="1">
                    <mxGeometry x="6320" y="830" width="80" height="80" as="geometry"/>
                </mxCell>
                <mxCell id="LXwm656oItNLETEccqUK-98" style="edgeStyle=none;html=1;exitX=0;exitY=1;exitDx=0;exitDy=0;entryX=1;entryY=0;entryDx=0;entryDy=0;strokeWidth=3;fontSize=90;" parent="1" source="LXwm656oItNLETEccqUK-99" target="LXwm656oItNLETEccqUK-115" edge="1">
                    <mxGeometry relative="1" as="geometry"/>
                </mxCell>
                <mxCell id="LXwm656oItNLETEccqUK-99" value="" style="ellipse;whiteSpace=wrap;html=1;aspect=fixed;strokeWidth=3;fontSize=90;" parent="1" vertex="1">
                    <mxGeometry x="6800" y="830" width="80" height="80" as="geometry"/>
                </mxCell>
                <mxCell id="LXwm656oItNLETEccqUK-100" value="" style="ellipse;whiteSpace=wrap;html=1;aspect=fixed;strokeWidth=3;fontSize=90;" parent="1" vertex="1">
                    <mxGeometry x="7280" y="830" width="80" height="80" as="geometry"/>
                </mxCell>
                <mxCell id="LXwm656oItNLETEccqUK-101" style="edgeStyle=none;html=1;exitX=0;exitY=1;exitDx=0;exitDy=0;entryX=1;entryY=0;entryDx=0;entryDy=0;strokeWidth=3;fontSize=90;" parent="1" source="LXwm656oItNLETEccqUK-102" target="LXwm656oItNLETEccqUK-116" edge="1">
                    <mxGeometry relative="1" as="geometry"/>
                </mxCell>
                <mxCell id="LXwm656oItNLETEccqUK-102" value="" style="ellipse;whiteSpace=wrap;html=1;aspect=fixed;strokeWidth=3;fontSize=90;" parent="1" vertex="1">
                    <mxGeometry x="7760" y="830" width="80" height="80" as="geometry"/>
                </mxCell>
                <mxCell id="LXwm656oItNLETEccqUK-103" value="" style="ellipse;whiteSpace=wrap;html=1;aspect=fixed;strokeWidth=3;fontSize=90;" parent="1" vertex="1">
                    <mxGeometry x="8240" y="830" width="80" height="80" as="geometry"/>
                </mxCell>
                <mxCell id="LXwm656oItNLETEccqUK-104" style="edgeStyle=none;html=1;exitX=0;exitY=1;exitDx=0;exitDy=0;entryX=1;entryY=0;entryDx=0;entryDy=0;strokeWidth=3;fontSize=90;" parent="1" source="LXwm656oItNLETEccqUK-106" target="LXwm656oItNLETEccqUK-120" edge="1">
                    <mxGeometry relative="1" as="geometry"/>
                </mxCell>
                <mxCell id="LXwm656oItNLETEccqUK-106" value="" style="ellipse;whiteSpace=wrap;html=1;aspect=fixed;strokeWidth=3;fontSize=90;" parent="1" vertex="1">
                    <mxGeometry x="8720" y="830" width="80" height="80" as="geometry"/>
                </mxCell>
                <mxCell id="LXwm656oItNLETEccqUK-107" value="" style="ellipse;whiteSpace=wrap;html=1;aspect=fixed;strokeWidth=3;fontSize=90;" parent="1" vertex="1">
                    <mxGeometry x="1520" y="1075" width="80" height="80" as="geometry"/>
                </mxCell>
                <mxCell id="LXwm656oItNLETEccqUK-108" style="edgeStyle=none;html=1;exitX=0;exitY=1;exitDx=0;exitDy=0;entryX=1;entryY=0;entryDx=0;entryDy=0;strokeWidth=3;fontSize=90;" parent="1" source="LXwm656oItNLETEccqUK-109" target="LXwm656oItNLETEccqUK-121" edge="1">
                    <mxGeometry relative="1" as="geometry"/>
                </mxCell>
                <mxCell id="LXwm656oItNLETEccqUK-109" value="" style="ellipse;whiteSpace=wrap;html=1;aspect=fixed;strokeWidth=3;fontSize=90;" parent="1" vertex="1">
                    <mxGeometry x="2480" y="1075" width="80" height="80" as="geometry"/>
                </mxCell>
                <mxCell id="LXwm656oItNLETEccqUK-110" value="" style="ellipse;whiteSpace=wrap;html=1;aspect=fixed;strokeWidth=3;fontSize=90;" parent="1" vertex="1">
                    <mxGeometry x="3440" y="1075" width="80" height="80" as="geometry"/>
                </mxCell>
                <mxCell id="LXwm656oItNLETEccqUK-111" style="edgeStyle=none;html=1;exitX=0;exitY=1;exitDx=0;exitDy=0;entryX=1;entryY=0;entryDx=0;entryDy=0;strokeWidth=3;fontSize=90;" parent="1" source="LXwm656oItNLETEccqUK-112" target="LXwm656oItNLETEccqUK-123" edge="1">
                    <mxGeometry relative="1" as="geometry"/>
                </mxCell>
                <mxCell id="LXwm656oItNLETEccqUK-112" value="" style="ellipse;whiteSpace=wrap;html=1;aspect=fixed;strokeWidth=3;fontSize=90;" parent="1" vertex="1">
                    <mxGeometry x="4400" y="1075" width="80" height="80" as="geometry"/>
                </mxCell>
                <mxCell id="LXwm656oItNLETEccqUK-113" value="" style="ellipse;whiteSpace=wrap;html=1;aspect=fixed;strokeWidth=3;fontSize=90;" parent="1" vertex="1">
                    <mxGeometry x="5360" y="1075" width="80" height="80" as="geometry"/>
                </mxCell>
                <mxCell id="LXwm656oItNLETEccqUK-114" style="edgeStyle=none;html=1;exitX=0;exitY=1;exitDx=0;exitDy=0;entryX=1;entryY=0;entryDx=0;entryDy=0;strokeWidth=3;fontSize=90;" parent="1" source="LXwm656oItNLETEccqUK-115" target="LXwm656oItNLETEccqUK-124" edge="1">
                    <mxGeometry relative="1" as="geometry"/>
                </mxCell>
                <mxCell id="LXwm656oItNLETEccqUK-115" value="" style="ellipse;whiteSpace=wrap;html=1;aspect=fixed;strokeWidth=3;fontSize=90;" parent="1" vertex="1">
                    <mxGeometry x="6320" y="1075" width="80" height="80" as="geometry"/>
                </mxCell>
                <mxCell id="LXwm656oItNLETEccqUK-116" value="" style="ellipse;whiteSpace=wrap;html=1;aspect=fixed;strokeWidth=3;fontSize=90;" parent="1" vertex="1">
                    <mxGeometry x="7280" y="1075" width="80" height="80" as="geometry"/>
                </mxCell>
                <mxCell id="LXwm656oItNLETEccqUK-117" style="edgeStyle=none;html=1;exitX=0;exitY=1;exitDx=0;exitDy=0;entryX=1;entryY=0;entryDx=0;entryDy=0;strokeWidth=3;fontSize=90;" parent="1" source="LXwm656oItNLETEccqUK-120" target="LXwm656oItNLETEccqUK-129" edge="1">
                    <mxGeometry relative="1" as="geometry"/>
                </mxCell>
                <mxCell id="LXwm656oItNLETEccqUK-120" value="" style="ellipse;whiteSpace=wrap;html=1;aspect=fixed;strokeWidth=3;fontSize=90;" parent="1" vertex="1">
                    <mxGeometry x="8240" y="1075" width="80" height="80" as="geometry"/>
                </mxCell>
                <mxCell id="LXwm656oItNLETEccqUK-121" value="" style="ellipse;whiteSpace=wrap;html=1;aspect=fixed;strokeWidth=3;fontSize=90;" parent="1" vertex="1">
                    <mxGeometry x="1520" y="1315" width="80" height="80" as="geometry"/>
                </mxCell>
                <mxCell id="LXwm656oItNLETEccqUK-122" style="edgeStyle=none;html=1;exitX=0;exitY=1;exitDx=0;exitDy=0;entryX=1;entryY=0;entryDx=0;entryDy=0;strokeWidth=3;fontSize=90;" parent="1" source="LXwm656oItNLETEccqUK-123" target="LXwm656oItNLETEccqUK-130" edge="1">
                    <mxGeometry relative="1" as="geometry"/>
                </mxCell>
                <mxCell id="LXwm656oItNLETEccqUK-123" value="" style="ellipse;whiteSpace=wrap;html=1;aspect=fixed;strokeWidth=3;fontSize=90;" parent="1" vertex="1">
                    <mxGeometry x="3440" y="1315" width="80" height="80" as="geometry"/>
                </mxCell>
                <mxCell id="LXwm656oItNLETEccqUK-124" value="" style="ellipse;whiteSpace=wrap;html=1;aspect=fixed;strokeWidth=3;fontSize=90;" parent="1" vertex="1">
                    <mxGeometry x="5360" y="1315" width="80" height="80" as="geometry"/>
                </mxCell>
                <mxCell id="LXwm656oItNLETEccqUK-125" style="edgeStyle=none;html=1;exitX=0;exitY=1;exitDx=0;exitDy=0;entryX=1;entryY=0;entryDx=0;entryDy=0;strokeWidth=3;fontSize=90;" parent="1" source="LXwm656oItNLETEccqUK-129" target="LXwm656oItNLETEccqUK-136" edge="1">
                    <mxGeometry relative="1" as="geometry"/>
                </mxCell>
                <mxCell id="LXwm656oItNLETEccqUK-129" value="" style="ellipse;whiteSpace=wrap;html=1;aspect=fixed;strokeWidth=3;fontSize=90;" parent="1" vertex="1">
                    <mxGeometry x="7280" y="1315" width="80" height="80" as="geometry"/>
                </mxCell>
                <mxCell id="LXwm656oItNLETEccqUK-130" value="" style="ellipse;whiteSpace=wrap;html=1;aspect=fixed;strokeWidth=3;fontSize=90;" parent="1" vertex="1">
                    <mxGeometry x="1520" y="1555" width="80" height="80" as="geometry"/>
                </mxCell>
                <mxCell id="LXwm656oItNLETEccqUK-131" style="edgeStyle=none;html=1;exitX=0;exitY=1;exitDx=0;exitDy=0;entryX=1;entryY=0;entryDx=0;entryDy=0;strokeWidth=3;fontSize=90;" parent="1" source="LXwm656oItNLETEccqUK-136" target="LXwm656oItNLETEccqUK-137" edge="1">
                    <mxGeometry relative="1" as="geometry"/>
                </mxCell>
                <mxCell id="LXwm656oItNLETEccqUK-136" value="" style="ellipse;whiteSpace=wrap;html=1;aspect=fixed;strokeWidth=3;fontSize=90;" parent="1" vertex="1">
                    <mxGeometry x="5360" y="1555" width="80" height="80" as="geometry"/>
                </mxCell>
                <mxCell id="LXwm656oItNLETEccqUK-137" value="" style="ellipse;whiteSpace=wrap;html=1;aspect=fixed;strokeWidth=3;fontSize=90;" parent="1" vertex="1">
                    <mxGeometry x="1520" y="1800" width="80" height="80" as="geometry"/>
                </mxCell>
                <mxCell id="LXwm656oItNLETEccqUK-220" value="31" style="text;html=1;align=center;verticalAlign=middle;resizable=0;points=[];autosize=1;strokeColor=none;fillColor=none;fontSize=90;strokeWidth=3;" parent="1" vertex="1">
                    <mxGeometry x="1500" y="280" width="120" height="120" as="geometry"/>
                </mxCell>
                <mxCell id="LXwm656oItNLETEccqUK-221" value="30" style="text;html=1;align=center;verticalAlign=middle;resizable=0;points=[];autosize=1;strokeColor=none;fillColor=none;fontSize=90;strokeWidth=3;" parent="1" vertex="1">
                    <mxGeometry x="1740" y="280" width="120" height="120" as="geometry"/>
                </mxCell>
                <mxCell id="LXwm656oItNLETEccqUK-222" value="29" style="text;html=1;align=center;verticalAlign=middle;resizable=0;points=[];autosize=1;strokeColor=none;fillColor=none;fontSize=90;strokeWidth=3;" parent="1" vertex="1">
                    <mxGeometry x="1980" y="280" width="120" height="120" as="geometry"/>
                </mxCell>
                <mxCell id="LXwm656oItNLETEccqUK-223" value="28" style="text;html=1;align=center;verticalAlign=middle;resizable=0;points=[];autosize=1;strokeColor=none;fillColor=none;fontSize=90;strokeWidth=3;" parent="1" vertex="1">
                    <mxGeometry x="2220" y="280" width="120" height="120" as="geometry"/>
                </mxCell>
                <mxCell id="LXwm656oItNLETEccqUK-224" value="27" style="text;html=1;align=center;verticalAlign=middle;resizable=0;points=[];autosize=1;strokeColor=none;fillColor=none;fontSize=90;strokeWidth=3;" parent="1" vertex="1">
                    <mxGeometry x="2460" y="280" width="120" height="120" as="geometry"/>
                </mxCell>
                <mxCell id="LXwm656oItNLETEccqUK-225" value="26" style="text;html=1;align=center;verticalAlign=middle;resizable=0;points=[];autosize=1;strokeColor=none;fillColor=none;fontSize=90;strokeWidth=3;" parent="1" vertex="1">
                    <mxGeometry x="2700" y="280" width="120" height="120" as="geometry"/>
                </mxCell>
                <mxCell id="LXwm656oItNLETEccqUK-226" value="25" style="text;html=1;align=center;verticalAlign=middle;resizable=0;points=[];autosize=1;strokeColor=none;fillColor=none;fontSize=90;strokeWidth=3;" parent="1" vertex="1">
                    <mxGeometry x="2940" y="280" width="120" height="120" as="geometry"/>
                </mxCell>
                <mxCell id="LXwm656oItNLETEccqUK-227" value="24" style="text;html=1;align=center;verticalAlign=middle;resizable=0;points=[];autosize=1;strokeColor=none;fillColor=none;fontSize=90;strokeWidth=3;" parent="1" vertex="1">
                    <mxGeometry x="3180" y="280" width="120" height="120" as="geometry"/>
                </mxCell>
                <mxCell id="LXwm656oItNLETEccqUK-228" value="23" style="text;html=1;align=center;verticalAlign=middle;resizable=0;points=[];autosize=1;strokeColor=none;fillColor=none;fontSize=90;strokeWidth=3;" parent="1" vertex="1">
                    <mxGeometry x="3420" y="280" width="120" height="120" as="geometry"/>
                </mxCell>
                <mxCell id="LXwm656oItNLETEccqUK-229" value="22" style="text;html=1;align=center;verticalAlign=middle;resizable=0;points=[];autosize=1;strokeColor=none;fillColor=none;fontSize=90;strokeWidth=3;" parent="1" vertex="1">
                    <mxGeometry x="3660" y="280" width="120" height="120" as="geometry"/>
                </mxCell>
                <mxCell id="LXwm656oItNLETEccqUK-230" value="21" style="text;html=1;align=center;verticalAlign=middle;resizable=0;points=[];autosize=1;strokeColor=none;fillColor=none;fontSize=90;strokeWidth=3;" parent="1" vertex="1">
                    <mxGeometry x="3900" y="280" width="120" height="120" as="geometry"/>
                </mxCell>
                <mxCell id="LXwm656oItNLETEccqUK-231" value="20" style="text;html=1;align=center;verticalAlign=middle;resizable=0;points=[];autosize=1;strokeColor=none;fillColor=none;fontSize=90;strokeWidth=3;" parent="1" vertex="1">
                    <mxGeometry x="4140" y="280" width="120" height="120" as="geometry"/>
                </mxCell>
                <mxCell id="LXwm656oItNLETEccqUK-232" value="19" style="text;html=1;align=center;verticalAlign=middle;resizable=0;points=[];autosize=1;strokeColor=none;fillColor=none;fontSize=90;strokeWidth=3;" parent="1" vertex="1">
                    <mxGeometry x="4380" y="280" width="120" height="120" as="geometry"/>
                </mxCell>
                <mxCell id="LXwm656oItNLETEccqUK-233" value="18" style="text;html=1;align=center;verticalAlign=middle;resizable=0;points=[];autosize=1;strokeColor=none;fillColor=none;fontSize=90;strokeWidth=3;" parent="1" vertex="1">
                    <mxGeometry x="4620" y="280" width="120" height="120" as="geometry"/>
                </mxCell>
                <mxCell id="LXwm656oItNLETEccqUK-234" value="17" style="text;html=1;align=center;verticalAlign=middle;resizable=0;points=[];autosize=1;strokeColor=none;fillColor=none;fontSize=90;strokeWidth=3;" parent="1" vertex="1">
                    <mxGeometry x="4860" y="280" width="120" height="120" as="geometry"/>
                </mxCell>
                <mxCell id="LXwm656oItNLETEccqUK-235" value="16" style="text;html=1;align=center;verticalAlign=middle;resizable=0;points=[];autosize=1;strokeColor=none;fillColor=none;fontSize=90;strokeWidth=3;" parent="1" vertex="1">
                    <mxGeometry x="5100" y="280" width="120" height="120" as="geometry"/>
                </mxCell>
                <mxCell id="LXwm656oItNLETEccqUK-236" value="15" style="text;html=1;align=center;verticalAlign=middle;resizable=0;points=[];autosize=1;strokeColor=none;fillColor=none;fontSize=90;strokeWidth=3;" parent="1" vertex="1">
                    <mxGeometry x="5340" y="280" width="120" height="120" as="geometry"/>
                </mxCell>
                <mxCell id="LXwm656oItNLETEccqUK-237" value="14" style="text;html=1;align=center;verticalAlign=middle;resizable=0;points=[];autosize=1;strokeColor=none;fillColor=none;fontSize=90;strokeWidth=3;" parent="1" vertex="1">
                    <mxGeometry x="5580" y="280" width="120" height="120" as="geometry"/>
                </mxCell>
                <mxCell id="LXwm656oItNLETEccqUK-238" value="13" style="text;html=1;align=center;verticalAlign=middle;resizable=0;points=[];autosize=1;strokeColor=none;fillColor=none;fontSize=90;strokeWidth=3;" parent="1" vertex="1">
                    <mxGeometry x="5820" y="280" width="120" height="120" as="geometry"/>
                </mxCell>
                <mxCell id="LXwm656oItNLETEccqUK-239" value="12" style="text;html=1;align=center;verticalAlign=middle;resizable=0;points=[];autosize=1;strokeColor=none;fillColor=none;fontSize=90;strokeWidth=3;" parent="1" vertex="1">
                    <mxGeometry x="6060" y="280" width="120" height="120" as="geometry"/>
                </mxCell>
                <mxCell id="LXwm656oItNLETEccqUK-240" value="11" style="text;html=1;align=center;verticalAlign=middle;resizable=0;points=[];autosize=1;strokeColor=none;fillColor=none;fontSize=90;strokeWidth=3;" parent="1" vertex="1">
                    <mxGeometry x="6300" y="280" width="120" height="120" as="geometry"/>
                </mxCell>
                <mxCell id="LXwm656oItNLETEccqUK-241" value="10" style="text;html=1;align=center;verticalAlign=middle;resizable=0;points=[];autosize=1;strokeColor=none;fillColor=none;fontSize=90;strokeWidth=3;" parent="1" vertex="1">
                    <mxGeometry x="6540" y="280" width="120" height="120" as="geometry"/>
                </mxCell>
                <mxCell id="LXwm656oItNLETEccqUK-242" value="9" style="text;html=1;align=center;verticalAlign=middle;resizable=0;points=[];autosize=1;strokeColor=none;fillColor=none;fontSize=90;strokeWidth=3;" parent="1" vertex="1">
                    <mxGeometry x="6805" y="280" width="70" height="120" as="geometry"/>
                </mxCell>
                <mxCell id="LXwm656oItNLETEccqUK-243" value="8" style="text;html=1;align=center;verticalAlign=middle;resizable=0;points=[];autosize=1;strokeColor=none;fillColor=none;fontSize=90;strokeWidth=3;" parent="1" vertex="1">
                    <mxGeometry x="7045" y="280" width="70" height="120" as="geometry"/>
                </mxCell>
                <mxCell id="LXwm656oItNLETEccqUK-244" value="7" style="text;html=1;align=center;verticalAlign=middle;resizable=0;points=[];autosize=1;strokeColor=none;fillColor=none;fontSize=90;strokeWidth=3;" parent="1" vertex="1">
                    <mxGeometry x="7285" y="280" width="70" height="120" as="geometry"/>
                </mxCell>
                <mxCell id="LXwm656oItNLETEccqUK-245" value="6" style="text;html=1;align=center;verticalAlign=middle;resizable=0;points=[];autosize=1;strokeColor=none;fillColor=none;fontSize=90;strokeWidth=3;" parent="1" vertex="1">
                    <mxGeometry x="7525" y="280" width="70" height="120" as="geometry"/>
                </mxCell>
                <mxCell id="LXwm656oItNLETEccqUK-246" value="5" style="text;html=1;align=center;verticalAlign=middle;resizable=0;points=[];autosize=1;strokeColor=none;fillColor=none;fontSize=90;strokeWidth=3;" parent="1" vertex="1">
                    <mxGeometry x="7765" y="280" width="70" height="120" as="geometry"/>
                </mxCell>
                <mxCell id="LXwm656oItNLETEccqUK-247" value="4" style="text;html=1;align=center;verticalAlign=middle;resizable=0;points=[];autosize=1;strokeColor=none;fillColor=none;fontSize=90;strokeWidth=3;" parent="1" vertex="1">
                    <mxGeometry x="8005" y="280" width="70" height="120" as="geometry"/>
                </mxCell>
                <mxCell id="LXwm656oItNLETEccqUK-248" value="3" style="text;html=1;align=center;verticalAlign=middle;resizable=0;points=[];autosize=1;strokeColor=none;fillColor=none;fontSize=90;strokeWidth=3;" parent="1" vertex="1">
                    <mxGeometry x="8245" y="280" width="70" height="120" as="geometry"/>
                </mxCell>
                <mxCell id="LXwm656oItNLETEccqUK-249" value="2" style="text;html=1;align=center;verticalAlign=middle;resizable=0;points=[];autosize=1;strokeColor=none;fillColor=none;fontSize=90;strokeWidth=3;" parent="1" vertex="1">
                    <mxGeometry x="8485" y="280" width="70" height="120" as="geometry"/>
                </mxCell>
                <mxCell id="LXwm656oItNLETEccqUK-250" value="1" style="text;html=1;align=center;verticalAlign=middle;resizable=0;points=[];autosize=1;strokeColor=none;fillColor=none;fontSize=90;strokeWidth=3;" parent="1" vertex="1">
                    <mxGeometry x="8730" y="280" width="70" height="120" as="geometry"/>
                </mxCell>
                <mxCell id="LXwm656oItNLETEccqUK-251" value="0" style="text;html=1;align=center;verticalAlign=middle;resizable=0;points=[];autosize=1;strokeColor=none;fillColor=none;fontSize=90;strokeWidth=3;" parent="1" vertex="1">
                    <mxGeometry x="8970" y="280" width="70" height="120" as="geometry"/>
                </mxCell>
                <mxCell id="JxXNwAtKYRBv4QJeJSb--11" value="" style="edgeStyle=none;html=1;exitX=0.5;exitY=1;exitDx=0;exitDy=0;entryX=0.5;entryY=0;entryDx=0;entryDy=0;dashed=1;strokeWidth=3;fontSize=90;endArrow=none;endFill=0;" parent="1" source="LXwm656oItNLETEccqUK-80" target="JxXNwAtKYRBv4QJeJSb--3" edge="1">
                    <mxGeometry relative="1" as="geometry">
                        <mxPoint x="9000" y="570" as="sourcePoint"/>
                        <mxPoint x="8990" y="2880" as="targetPoint"/>
                    </mxGeometry>
                </mxCell>
                <mxCell id="JxXNwAtKYRBv4QJeJSb--149" style="edgeStyle=none;html=1;strokeWidth=3;" parent="1" source="JxXNwAtKYRBv4QJeJSb--3" target="JxXNwAtKYRBv4QJeJSb--117" edge="1">
                    <mxGeometry relative="1" as="geometry"/>
                </mxCell>
                <mxCell id="JxXNwAtKYRBv4QJeJSb--3" value="" style="ellipse;whiteSpace=wrap;html=1;aspect=fixed;strokeWidth=3;fontSize=90;" parent="1" vertex="1">
                    <mxGeometry x="8945" y="2660" width="80" height="80" as="geometry"/>
                </mxCell>
                <mxCell id="JxXNwAtKYRBv4QJeJSb--14" style="edgeStyle=none;html=1;entryX=1;entryY=0;entryDx=0;entryDy=0;strokeWidth=3;" parent="1" source="JxXNwAtKYRBv4QJeJSb--13" target="JxXNwAtKYRBv4QJeJSb--3" edge="1">
                    <mxGeometry relative="1" as="geometry"/>
                </mxCell>
                <mxCell id="JxXNwAtKYRBv4QJeJSb--18" style="edgeStyle=none;html=1;entryX=1;entryY=0;entryDx=0;entryDy=0;strokeWidth=3;" parent="1" source="JxXNwAtKYRBv4QJeJSb--13" target="JxXNwAtKYRBv4QJeJSb--16" edge="1">
                    <mxGeometry relative="1" as="geometry"/>
                </mxCell>
                <mxCell id="JxXNwAtKYRBv4QJeJSb--21" style="edgeStyle=none;html=1;entryX=1;entryY=0;entryDx=0;entryDy=0;strokeWidth=3;" parent="1" source="JxXNwAtKYRBv4QJeJSb--13" target="JxXNwAtKYRBv4QJeJSb--20" edge="1">
                    <mxGeometry relative="1" as="geometry"/>
                </mxCell>
                <mxCell id="JxXNwAtKYRBv4QJeJSb--24" style="edgeStyle=none;html=1;entryX=1;entryY=0;entryDx=0;entryDy=0;strokeWidth=3;" parent="1" source="JxXNwAtKYRBv4QJeJSb--13" target="JxXNwAtKYRBv4QJeJSb--22" edge="1">
                    <mxGeometry relative="1" as="geometry"/>
                </mxCell>
                <mxCell id="JxXNwAtKYRBv4QJeJSb--26" style="edgeStyle=none;html=1;entryX=1;entryY=0;entryDx=0;entryDy=0;strokeWidth=3;" parent="1" source="JxXNwAtKYRBv4QJeJSb--13" target="JxXNwAtKYRBv4QJeJSb--25" edge="1">
                    <mxGeometry relative="1" as="geometry"/>
                </mxCell>
                <mxCell id="JxXNwAtKYRBv4QJeJSb--29" style="edgeStyle=none;html=1;entryX=1;entryY=0;entryDx=0;entryDy=0;strokeWidth=3;" parent="1" source="JxXNwAtKYRBv4QJeJSb--13" target="JxXNwAtKYRBv4QJeJSb--27" edge="1">
                    <mxGeometry relative="1" as="geometry"/>
                </mxCell>
                <mxCell id="JxXNwAtKYRBv4QJeJSb--86" style="edgeStyle=none;html=1;strokeWidth=3;" parent="1" source="JxXNwAtKYRBv4QJeJSb--13" target="JxXNwAtKYRBv4QJeJSb--118" edge="1">
                    <mxGeometry relative="1" as="geometry">
                        <mxPoint x="9225" y="3520" as="targetPoint"/>
                    </mxGeometry>
                </mxCell>
                <mxCell id="JxXNwAtKYRBv4QJeJSb--13" value="Ci" style="text;html=1;align=center;verticalAlign=middle;resizable=0;points=[];autosize=1;strokeColor=none;fillColor=none;fontSize=90;strokeWidth=3;" parent="1" vertex="1">
                    <mxGeometry x="9155" y="2200" width="110" height="120" as="geometry"/>
                </mxCell>
                <mxCell id="JxXNwAtKYRBv4QJeJSb--17" value="" style="edgeStyle=none;html=1;exitX=0.5;exitY=1;exitDx=0;exitDy=0;entryX=0.5;entryY=0;entryDx=0;entryDy=0;dashed=1;strokeWidth=3;fontSize=90;endArrow=none;endFill=0;" parent="1" source="LXwm656oItNLETEccqUK-77" target="JxXNwAtKYRBv4QJeJSb--16" edge="1">
                    <mxGeometry relative="1" as="geometry">
                        <mxPoint x="8760" y="570" as="sourcePoint"/>
                        <mxPoint x="8750" y="2880" as="targetPoint"/>
                    </mxGeometry>
                </mxCell>
                <mxCell id="JxXNwAtKYRBv4QJeJSb--31" style="edgeStyle=none;html=1;entryX=1;entryY=0;entryDx=0;entryDy=0;strokeWidth=3;" parent="1" source="JxXNwAtKYRBv4QJeJSb--16" target="JxXNwAtKYRBv4QJeJSb--30" edge="1">
                    <mxGeometry relative="1" as="geometry"/>
                </mxCell>
                <mxCell id="JxXNwAtKYRBv4QJeJSb--148" style="edgeStyle=none;html=1;strokeWidth=3;" parent="1" source="JxXNwAtKYRBv4QJeJSb--16" target="JxXNwAtKYRBv4QJeJSb--116" edge="1">
                    <mxGeometry relative="1" as="geometry"/>
                </mxCell>
                <mxCell id="JxXNwAtKYRBv4QJeJSb--16" value="" style="ellipse;whiteSpace=wrap;html=1;aspect=fixed;strokeWidth=3;fontSize=90;" parent="1" vertex="1">
                    <mxGeometry x="8705" y="2660" width="80" height="80" as="geometry"/>
                </mxCell>
                <mxCell id="JxXNwAtKYRBv4QJeJSb--33" style="edgeStyle=none;html=1;entryX=1;entryY=0;entryDx=0;entryDy=0;strokeWidth=3;" parent="1" source="JxXNwAtKYRBv4QJeJSb--20" target="JxXNwAtKYRBv4QJeJSb--32" edge="1">
                    <mxGeometry relative="1" as="geometry"/>
                </mxCell>
                <mxCell id="JxXNwAtKYRBv4QJeJSb--35" style="edgeStyle=none;html=1;entryX=1;entryY=0;entryDx=0;entryDy=0;strokeWidth=3;" parent="1" source="JxXNwAtKYRBv4QJeJSb--20" target="JxXNwAtKYRBv4QJeJSb--34" edge="1">
                    <mxGeometry relative="1" as="geometry"/>
                </mxCell>
                <mxCell id="JxXNwAtKYRBv4QJeJSb--146" style="edgeStyle=none;html=1;entryX=0.343;entryY=-0.066;entryDx=0;entryDy=0;entryPerimeter=0;strokeWidth=3;" parent="1" source="JxXNwAtKYRBv4QJeJSb--20" target="JxXNwAtKYRBv4QJeJSb--114" edge="1">
                    <mxGeometry relative="1" as="geometry"/>
                </mxCell>
                <mxCell id="JxXNwAtKYRBv4QJeJSb--20" value="" style="ellipse;whiteSpace=wrap;html=1;aspect=fixed;strokeWidth=3;fontSize=90;" parent="1" vertex="1">
                    <mxGeometry x="8235" y="2660" width="80" height="80" as="geometry"/>
                </mxCell>
                <mxCell id="JxXNwAtKYRBv4QJeJSb--23" value="" style="edgeStyle=none;html=1;exitX=0.5;exitY=1;exitDx=0;exitDy=0;entryX=0.5;entryY=0;entryDx=0;entryDy=0;dashed=1;strokeWidth=3;fontSize=90;endArrow=none;endFill=0;" parent="1" source="LXwm656oItNLETEccqUK-62" target="JxXNwAtKYRBv4QJeJSb--22" edge="1">
                    <mxGeometry relative="1" as="geometry">
                        <mxPoint x="7320" y="570" as="sourcePoint"/>
                        <mxPoint x="7310" y="2880" as="targetPoint"/>
                    </mxGeometry>
                </mxCell>
                <mxCell id="JxXNwAtKYRBv4QJeJSb--39" style="edgeStyle=none;html=1;entryX=1;entryY=0;entryDx=0;entryDy=0;strokeWidth=3;" parent="1" source="JxXNwAtKYRBv4QJeJSb--22" target="JxXNwAtKYRBv4QJeJSb--38" edge="1">
                    <mxGeometry relative="1" as="geometry"/>
                </mxCell>
                <mxCell id="JxXNwAtKYRBv4QJeJSb--41" style="edgeStyle=none;html=1;entryX=1;entryY=0;entryDx=0;entryDy=0;strokeWidth=3;" parent="1" source="JxXNwAtKYRBv4QJeJSb--22" target="JxXNwAtKYRBv4QJeJSb--40" edge="1">
                    <mxGeometry relative="1" as="geometry"/>
                </mxCell>
                <mxCell id="JxXNwAtKYRBv4QJeJSb--46" style="edgeStyle=none;html=1;entryX=1;entryY=0;entryDx=0;entryDy=0;strokeWidth=3;" parent="1" source="JxXNwAtKYRBv4QJeJSb--22" target="JxXNwAtKYRBv4QJeJSb--44" edge="1">
                    <mxGeometry relative="1" as="geometry"/>
                </mxCell>
                <mxCell id="JxXNwAtKYRBv4QJeJSb--142" style="edgeStyle=none;html=1;strokeWidth=3;" parent="1" source="JxXNwAtKYRBv4QJeJSb--22" target="JxXNwAtKYRBv4QJeJSb--110" edge="1">
                    <mxGeometry relative="1" as="geometry"/>
                </mxCell>
                <mxCell id="JxXNwAtKYRBv4QJeJSb--22" value="" style="ellipse;whiteSpace=wrap;html=1;aspect=fixed;strokeWidth=3;fontSize=90;" parent="1" vertex="1">
                    <mxGeometry x="7265" y="2660" width="80" height="80" as="geometry"/>
                </mxCell>
                <mxCell id="JxXNwAtKYRBv4QJeJSb--54" style="edgeStyle=none;html=1;entryX=1;entryY=0;entryDx=0;entryDy=0;strokeWidth=3;" parent="1" source="JxXNwAtKYRBv4QJeJSb--25" target="JxXNwAtKYRBv4QJeJSb--53" edge="1">
                    <mxGeometry relative="1" as="geometry"/>
                </mxCell>
                <mxCell id="JxXNwAtKYRBv4QJeJSb--56" style="edgeStyle=none;html=1;entryX=1;entryY=0;entryDx=0;entryDy=0;strokeWidth=3;" parent="1" source="JxXNwAtKYRBv4QJeJSb--25" target="JxXNwAtKYRBv4QJeJSb--55" edge="1">
                    <mxGeometry relative="1" as="geometry"/>
                </mxCell>
                <mxCell id="JxXNwAtKYRBv4QJeJSb--60" style="edgeStyle=none;html=1;entryX=1;entryY=0;entryDx=0;entryDy=0;strokeWidth=3;" parent="1" source="JxXNwAtKYRBv4QJeJSb--25" target="JxXNwAtKYRBv4QJeJSb--59" edge="1">
                    <mxGeometry relative="1" as="geometry"/>
                </mxCell>
                <mxCell id="JxXNwAtKYRBv4QJeJSb--69" style="edgeStyle=none;html=1;entryX=1;entryY=0;entryDx=0;entryDy=0;strokeWidth=3;" parent="1" source="JxXNwAtKYRBv4QJeJSb--25" target="JxXNwAtKYRBv4QJeJSb--68" edge="1">
                    <mxGeometry relative="1" as="geometry"/>
                </mxCell>
                <mxCell id="JxXNwAtKYRBv4QJeJSb--134" style="edgeStyle=none;html=1;strokeWidth=3;" parent="1" source="JxXNwAtKYRBv4QJeJSb--25" target="JxXNwAtKYRBv4QJeJSb--102" edge="1">
                    <mxGeometry relative="1" as="geometry"/>
                </mxCell>
                <mxCell id="JxXNwAtKYRBv4QJeJSb--25" value="" style="ellipse;whiteSpace=wrap;html=1;aspect=fixed;strokeWidth=3;fontSize=90;" parent="1" vertex="1">
                    <mxGeometry x="5340" y="2660" width="80" height="80" as="geometry"/>
                </mxCell>
                <mxCell id="JxXNwAtKYRBv4QJeJSb--28" value="" style="html=1;exitX=0.5;exitY=1;exitDx=0;exitDy=0;entryX=0.5;entryY=0;entryDx=0;entryDy=0;strokeWidth=3;fontSize=90;dashed=1;endArrow=none;endFill=0;" parent="1" source="LXwm656oItNLETEccqUK-3" target="JxXNwAtKYRBv4QJeJSb--27" edge="1">
                    <mxGeometry relative="1" as="geometry">
                        <mxPoint x="1560" y="570" as="sourcePoint"/>
                        <mxPoint x="1550" y="2880" as="targetPoint"/>
                    </mxGeometry>
                </mxCell>
                <mxCell id="JxXNwAtKYRBv4QJeJSb--85" style="edgeStyle=none;html=1;strokeWidth=3;" parent="1" source="JxXNwAtKYRBv4QJeJSb--27" target="JxXNwAtKYRBv4QJeJSb--84" edge="1">
                    <mxGeometry relative="1" as="geometry"/>
                </mxCell>
                <mxCell id="JxXNwAtKYRBv4QJeJSb--27" value="" style="ellipse;whiteSpace=wrap;html=1;aspect=fixed;strokeWidth=3;fontSize=90;" parent="1" vertex="1">
                    <mxGeometry x="1520" y="2660" width="80" height="80" as="geometry"/>
                </mxCell>
                <mxCell id="JxXNwAtKYRBv4QJeJSb--147" style="edgeStyle=none;html=1;strokeWidth=3;" parent="1" source="JxXNwAtKYRBv4QJeJSb--30" target="JxXNwAtKYRBv4QJeJSb--115" edge="1">
                    <mxGeometry relative="1" as="geometry"/>
                </mxCell>
                <mxCell id="JxXNwAtKYRBv4QJeJSb--30" value="" style="ellipse;whiteSpace=wrap;html=1;aspect=fixed;strokeWidth=3;fontSize=90;" parent="1" vertex="1">
                    <mxGeometry x="8465" y="2900" width="80" height="80" as="geometry"/>
                </mxCell>
                <mxCell id="JxXNwAtKYRBv4QJeJSb--145" style="edgeStyle=none;html=1;strokeWidth=3;" parent="1" source="JxXNwAtKYRBv4QJeJSb--32" target="JxXNwAtKYRBv4QJeJSb--113" edge="1">
                    <mxGeometry relative="1" as="geometry"/>
                </mxCell>
                <mxCell id="JxXNwAtKYRBv4QJeJSb--32" value="" style="ellipse;whiteSpace=wrap;html=1;aspect=fixed;strokeWidth=3;fontSize=90;" parent="1" vertex="1">
                    <mxGeometry x="7985" y="2900" width="80" height="80" as="geometry"/>
                </mxCell>
                <mxCell id="JxXNwAtKYRBv4QJeJSb--37" style="edgeStyle=none;html=1;entryX=1;entryY=0;entryDx=0;entryDy=0;strokeWidth=3;" parent="1" source="JxXNwAtKYRBv4QJeJSb--34" target="JxXNwAtKYRBv4QJeJSb--36" edge="1">
                    <mxGeometry relative="1" as="geometry"/>
                </mxCell>
                <mxCell id="JxXNwAtKYRBv4QJeJSb--144" style="edgeStyle=none;html=1;strokeWidth=3;" parent="1" source="JxXNwAtKYRBv4QJeJSb--34" target="JxXNwAtKYRBv4QJeJSb--112" edge="1">
                    <mxGeometry relative="1" as="geometry"/>
                </mxCell>
                <mxCell id="JxXNwAtKYRBv4QJeJSb--34" value="" style="ellipse;whiteSpace=wrap;html=1;aspect=fixed;strokeWidth=3;fontSize=90;" parent="1" vertex="1">
                    <mxGeometry x="7745" y="2900" width="80" height="80" as="geometry"/>
                </mxCell>
                <mxCell id="JxXNwAtKYRBv4QJeJSb--143" style="edgeStyle=none;html=1;strokeWidth=3;" parent="1" source="JxXNwAtKYRBv4QJeJSb--36" target="JxXNwAtKYRBv4QJeJSb--111" edge="1">
                    <mxGeometry relative="1" as="geometry"/>
                </mxCell>
                <mxCell id="JxXNwAtKYRBv4QJeJSb--36" value="" style="ellipse;whiteSpace=wrap;html=1;aspect=fixed;strokeWidth=3;fontSize=90;" parent="1" vertex="1">
                    <mxGeometry x="7505" y="3050" width="80" height="80" as="geometry"/>
                </mxCell>
                <mxCell id="JxXNwAtKYRBv4QJeJSb--141" style="edgeStyle=none;html=1;strokeWidth=3;" parent="1" source="JxXNwAtKYRBv4QJeJSb--38" target="JxXNwAtKYRBv4QJeJSb--109" edge="1">
                    <mxGeometry relative="1" as="geometry"/>
                </mxCell>
                <mxCell id="JxXNwAtKYRBv4QJeJSb--38" value="" style="ellipse;whiteSpace=wrap;html=1;aspect=fixed;strokeWidth=3;fontSize=90;" parent="1" vertex="1">
                    <mxGeometry x="7025" y="2900" width="80" height="80" as="geometry"/>
                </mxCell>
                <mxCell id="JxXNwAtKYRBv4QJeJSb--43" style="edgeStyle=none;html=1;entryX=1;entryY=0;entryDx=0;entryDy=0;strokeWidth=3;" parent="1" source="JxXNwAtKYRBv4QJeJSb--40" target="JxXNwAtKYRBv4QJeJSb--42" edge="1">
                    <mxGeometry relative="1" as="geometry"/>
                </mxCell>
                <mxCell id="JxXNwAtKYRBv4QJeJSb--140" style="edgeStyle=none;html=1;strokeWidth=3;" parent="1" source="JxXNwAtKYRBv4QJeJSb--40" target="JxXNwAtKYRBv4QJeJSb--108" edge="1">
                    <mxGeometry relative="1" as="geometry"/>
                </mxCell>
                <mxCell id="JxXNwAtKYRBv4QJeJSb--40" value="" style="ellipse;whiteSpace=wrap;html=1;aspect=fixed;strokeWidth=3;fontSize=90;" parent="1" vertex="1">
                    <mxGeometry x="6785" y="2900" width="80" height="80" as="geometry"/>
                </mxCell>
                <mxCell id="JxXNwAtKYRBv4QJeJSb--139" style="edgeStyle=none;html=1;strokeWidth=3;" parent="1" source="JxXNwAtKYRBv4QJeJSb--42" target="JxXNwAtKYRBv4QJeJSb--107" edge="1">
                    <mxGeometry relative="1" as="geometry"/>
                </mxCell>
                <mxCell id="JxXNwAtKYRBv4QJeJSb--42" value="" style="ellipse;whiteSpace=wrap;html=1;aspect=fixed;strokeWidth=3;fontSize=90;" parent="1" vertex="1">
                    <mxGeometry x="6560" y="3050" width="80" height="80" as="geometry"/>
                </mxCell>
                <mxCell id="JxXNwAtKYRBv4QJeJSb--48" style="edgeStyle=none;html=1;entryX=1;entryY=0;entryDx=0;entryDy=0;strokeWidth=3;" parent="1" source="JxXNwAtKYRBv4QJeJSb--44" target="JxXNwAtKYRBv4QJeJSb--47" edge="1">
                    <mxGeometry relative="1" as="geometry"/>
                </mxCell>
                <mxCell id="JxXNwAtKYRBv4QJeJSb--50" style="edgeStyle=none;html=1;entryX=1;entryY=0;entryDx=0;entryDy=0;strokeWidth=3;" parent="1" source="JxXNwAtKYRBv4QJeJSb--44" target="JxXNwAtKYRBv4QJeJSb--49" edge="1">
                    <mxGeometry relative="1" as="geometry"/>
                </mxCell>
                <mxCell id="JxXNwAtKYRBv4QJeJSb--138" style="edgeStyle=none;html=1;strokeWidth=3;" parent="1" source="JxXNwAtKYRBv4QJeJSb--44" target="JxXNwAtKYRBv4QJeJSb--106" edge="1">
                    <mxGeometry relative="1" as="geometry"/>
                </mxCell>
                <mxCell id="JxXNwAtKYRBv4QJeJSb--44" value="" style="ellipse;whiteSpace=wrap;html=1;aspect=fixed;strokeWidth=3;fontSize=90;" parent="1" vertex="1">
                    <mxGeometry x="6320" y="2900" width="80" height="80" as="geometry"/>
                </mxCell>
                <mxCell id="JxXNwAtKYRBv4QJeJSb--137" style="edgeStyle=none;html=1;entryX=0.475;entryY=-0.033;entryDx=0;entryDy=0;entryPerimeter=0;strokeWidth=3;" parent="1" source="JxXNwAtKYRBv4QJeJSb--47" target="JxXNwAtKYRBv4QJeJSb--105" edge="1">
                    <mxGeometry relative="1" as="geometry"/>
                </mxCell>
                <mxCell id="JxXNwAtKYRBv4QJeJSb--47" value="" style="ellipse;whiteSpace=wrap;html=1;aspect=fixed;strokeWidth=3;fontSize=90;" parent="1" vertex="1">
                    <mxGeometry x="6060" y="3050" width="80" height="80" as="geometry"/>
                </mxCell>
                <mxCell id="JxXNwAtKYRBv4QJeJSb--52" style="edgeStyle=none;html=1;entryX=0.938;entryY=0.375;entryDx=0;entryDy=0;entryPerimeter=0;strokeWidth=3;" parent="1" source="JxXNwAtKYRBv4QJeJSb--49" target="JxXNwAtKYRBv4QJeJSb--51" edge="1">
                    <mxGeometry relative="1" as="geometry"/>
                </mxCell>
                <mxCell id="JxXNwAtKYRBv4QJeJSb--136" style="edgeStyle=none;html=1;strokeWidth=3;" parent="1" source="JxXNwAtKYRBv4QJeJSb--49" target="JxXNwAtKYRBv4QJeJSb--104" edge="1">
                    <mxGeometry relative="1" as="geometry"/>
                </mxCell>
                <mxCell id="JxXNwAtKYRBv4QJeJSb--49" value="" style="ellipse;whiteSpace=wrap;html=1;aspect=fixed;strokeWidth=3;fontSize=90;" parent="1" vertex="1">
                    <mxGeometry x="5835" y="3050" width="80" height="80" as="geometry"/>
                </mxCell>
                <mxCell id="JxXNwAtKYRBv4QJeJSb--135" style="edgeStyle=none;html=1;entryX=0.442;entryY=-0.066;entryDx=0;entryDy=0;entryPerimeter=0;strokeWidth=3;" parent="1" source="JxXNwAtKYRBv4QJeJSb--51" target="JxXNwAtKYRBv4QJeJSb--103" edge="1">
                    <mxGeometry relative="1" as="geometry"/>
                </mxCell>
                <mxCell id="JxXNwAtKYRBv4QJeJSb--51" value="" style="ellipse;whiteSpace=wrap;html=1;aspect=fixed;strokeWidth=3;fontSize=90;" parent="1" vertex="1">
                    <mxGeometry x="5580" y="3170" width="80" height="80" as="geometry"/>
                </mxCell>
                <mxCell id="JxXNwAtKYRBv4QJeJSb--133" style="edgeStyle=none;html=1;entryX=0.575;entryY=0.001;entryDx=0;entryDy=0;entryPerimeter=0;strokeWidth=3;" parent="1" source="JxXNwAtKYRBv4QJeJSb--53" target="JxXNwAtKYRBv4QJeJSb--101" edge="1">
                    <mxGeometry relative="1" as="geometry"/>
                </mxCell>
                <mxCell id="JxXNwAtKYRBv4QJeJSb--53" value="" style="ellipse;whiteSpace=wrap;html=1;aspect=fixed;strokeWidth=3;fontSize=90;" parent="1" vertex="1">
                    <mxGeometry x="5125" y="2900" width="80" height="80" as="geometry"/>
                </mxCell>
                <mxCell id="JxXNwAtKYRBv4QJeJSb--58" style="edgeStyle=none;html=1;entryX=1;entryY=0;entryDx=0;entryDy=0;strokeWidth=3;" parent="1" source="JxXNwAtKYRBv4QJeJSb--55" target="JxXNwAtKYRBv4QJeJSb--57" edge="1">
                    <mxGeometry relative="1" as="geometry"/>
                </mxCell>
                <mxCell id="JxXNwAtKYRBv4QJeJSb--132" style="edgeStyle=none;html=1;strokeWidth=3;" parent="1" source="JxXNwAtKYRBv4QJeJSb--55" target="JxXNwAtKYRBv4QJeJSb--100" edge="1">
                    <mxGeometry relative="1" as="geometry"/>
                </mxCell>
                <mxCell id="JxXNwAtKYRBv4QJeJSb--55" value="" style="ellipse;whiteSpace=wrap;html=1;aspect=fixed;strokeWidth=3;fontSize=90;" parent="1" vertex="1">
                    <mxGeometry x="4860" y="2900" width="80" height="80" as="geometry"/>
                </mxCell>
                <mxCell id="JxXNwAtKYRBv4QJeJSb--131" style="edgeStyle=none;html=1;entryX=0.575;entryY=-0.033;entryDx=0;entryDy=0;entryPerimeter=0;strokeWidth=3;" parent="1" source="JxXNwAtKYRBv4QJeJSb--57" target="JxXNwAtKYRBv4QJeJSb--99" edge="1">
                    <mxGeometry relative="1" as="geometry"/>
                </mxCell>
                <mxCell id="JxXNwAtKYRBv4QJeJSb--57" value="" style="ellipse;whiteSpace=wrap;html=1;aspect=fixed;strokeWidth=3;fontSize=90;" parent="1" vertex="1">
                    <mxGeometry x="4635" y="3050" width="80" height="80" as="geometry"/>
                </mxCell>
                <mxCell id="JxXNwAtKYRBv4QJeJSb--64" style="edgeStyle=none;html=1;entryX=1;entryY=0;entryDx=0;entryDy=0;strokeWidth=3;" parent="1" source="JxXNwAtKYRBv4QJeJSb--59" target="JxXNwAtKYRBv4QJeJSb--63" edge="1">
                    <mxGeometry relative="1" as="geometry"/>
                </mxCell>
                <mxCell id="JxXNwAtKYRBv4QJeJSb--65" style="edgeStyle=none;html=1;entryX=1;entryY=0;entryDx=0;entryDy=0;strokeWidth=3;" parent="1" source="JxXNwAtKYRBv4QJeJSb--59" target="JxXNwAtKYRBv4QJeJSb--61" edge="1">
                    <mxGeometry relative="1" as="geometry"/>
                </mxCell>
                <mxCell id="JxXNwAtKYRBv4QJeJSb--130" style="edgeStyle=none;html=1;entryX=0.417;entryY=-0.083;entryDx=0;entryDy=0;entryPerimeter=0;strokeWidth=3;" parent="1" source="JxXNwAtKYRBv4QJeJSb--59" target="JxXNwAtKYRBv4QJeJSb--98" edge="1">
                    <mxGeometry relative="1" as="geometry"/>
                </mxCell>
                <mxCell id="JxXNwAtKYRBv4QJeJSb--59" value="" style="ellipse;whiteSpace=wrap;html=1;aspect=fixed;strokeWidth=3;fontSize=90;" parent="1" vertex="1">
                    <mxGeometry x="4395" y="2900" width="80" height="80" as="geometry"/>
                </mxCell>
                <mxCell id="JxXNwAtKYRBv4QJeJSb--129" style="edgeStyle=none;html=1;strokeWidth=3;" parent="1" source="JxXNwAtKYRBv4QJeJSb--61" target="JxXNwAtKYRBv4QJeJSb--97" edge="1">
                    <mxGeometry relative="1" as="geometry"/>
                </mxCell>
                <mxCell id="JxXNwAtKYRBv4QJeJSb--61" value="" style="ellipse;whiteSpace=wrap;html=1;aspect=fixed;strokeWidth=3;fontSize=90;" parent="1" vertex="1">
                    <mxGeometry x="4145" y="3050" width="80" height="80" as="geometry"/>
                </mxCell>
                <mxCell id="JxXNwAtKYRBv4QJeJSb--67" style="edgeStyle=none;html=1;entryX=1;entryY=0;entryDx=0;entryDy=0;strokeWidth=3;" parent="1" source="JxXNwAtKYRBv4QJeJSb--63" target="JxXNwAtKYRBv4QJeJSb--66" edge="1">
                    <mxGeometry relative="1" as="geometry"/>
                </mxCell>
                <mxCell id="JxXNwAtKYRBv4QJeJSb--128" style="edgeStyle=none;html=1;strokeWidth=3;" parent="1" source="JxXNwAtKYRBv4QJeJSb--63" target="JxXNwAtKYRBv4QJeJSb--96" edge="1">
                    <mxGeometry relative="1" as="geometry"/>
                </mxCell>
                <mxCell id="JxXNwAtKYRBv4QJeJSb--63" value="" style="ellipse;whiteSpace=wrap;html=1;aspect=fixed;strokeWidth=3;fontSize=90;" parent="1" vertex="1">
                    <mxGeometry x="3900" y="3050" width="80" height="80" as="geometry"/>
                </mxCell>
                <mxCell id="JxXNwAtKYRBv4QJeJSb--127" style="edgeStyle=none;html=1;entryX=0.475;entryY=-0.033;entryDx=0;entryDy=0;entryPerimeter=0;strokeWidth=3;" parent="1" source="JxXNwAtKYRBv4QJeJSb--66" target="JxXNwAtKYRBv4QJeJSb--95" edge="1">
                    <mxGeometry relative="1" as="geometry"/>
                </mxCell>
                <mxCell id="JxXNwAtKYRBv4QJeJSb--66" value="" style="ellipse;whiteSpace=wrap;html=1;aspect=fixed;strokeWidth=3;fontSize=90;" parent="1" vertex="1">
                    <mxGeometry x="3660" y="3170" width="80" height="80" as="geometry"/>
                </mxCell>
                <mxCell id="JxXNwAtKYRBv4QJeJSb--71" style="edgeStyle=none;html=1;entryX=1;entryY=0;entryDx=0;entryDy=0;strokeWidth=3;" parent="1" source="JxXNwAtKYRBv4QJeJSb--68" target="JxXNwAtKYRBv4QJeJSb--70" edge="1">
                    <mxGeometry relative="1" as="geometry"/>
                </mxCell>
                <mxCell id="JxXNwAtKYRBv4QJeJSb--73" style="edgeStyle=none;html=1;entryX=1;entryY=0;entryDx=0;entryDy=0;strokeWidth=3;" parent="1" source="JxXNwAtKYRBv4QJeJSb--68" target="JxXNwAtKYRBv4QJeJSb--72" edge="1">
                    <mxGeometry relative="1" as="geometry"/>
                </mxCell>
                <mxCell id="JxXNwAtKYRBv4QJeJSb--77" style="edgeStyle=none;html=1;entryX=1;entryY=0;entryDx=0;entryDy=0;strokeWidth=3;" parent="1" source="JxXNwAtKYRBv4QJeJSb--68" target="JxXNwAtKYRBv4QJeJSb--76" edge="1">
                    <mxGeometry relative="1" as="geometry"/>
                </mxCell>
                <mxCell id="JxXNwAtKYRBv4QJeJSb--126" style="edgeStyle=none;html=1;strokeWidth=3;" parent="1" source="JxXNwAtKYRBv4QJeJSb--68" target="JxXNwAtKYRBv4QJeJSb--94" edge="1">
                    <mxGeometry relative="1" as="geometry"/>
                </mxCell>
                <mxCell id="JxXNwAtKYRBv4QJeJSb--68" value="" style="ellipse;whiteSpace=wrap;html=1;aspect=fixed;strokeWidth=3;fontSize=90;" parent="1" vertex="1">
                    <mxGeometry x="3425" y="2900" width="80" height="80" as="geometry"/>
                </mxCell>
                <mxCell id="JxXNwAtKYRBv4QJeJSb--125" style="edgeStyle=none;html=1;entryX=0.475;entryY=-0.033;entryDx=0;entryDy=0;entryPerimeter=0;strokeWidth=3;" parent="1" source="JxXNwAtKYRBv4QJeJSb--70" target="JxXNwAtKYRBv4QJeJSb--93" edge="1">
                    <mxGeometry relative="1" as="geometry"/>
                </mxCell>
                <mxCell id="JxXNwAtKYRBv4QJeJSb--70" value="" style="ellipse;whiteSpace=wrap;html=1;aspect=fixed;strokeWidth=3;fontSize=90;" parent="1" vertex="1">
                    <mxGeometry x="3185" y="3050" width="80" height="80" as="geometry"/>
                </mxCell>
                <mxCell id="JxXNwAtKYRBv4QJeJSb--75" style="edgeStyle=none;html=1;entryX=1;entryY=0;entryDx=0;entryDy=0;strokeWidth=3;" parent="1" source="JxXNwAtKYRBv4QJeJSb--72" target="JxXNwAtKYRBv4QJeJSb--74" edge="1">
                    <mxGeometry relative="1" as="geometry"/>
                </mxCell>
                <mxCell id="JxXNwAtKYRBv4QJeJSb--124" style="edgeStyle=none;html=1;entryX=0.408;entryY=-0.066;entryDx=0;entryDy=0;entryPerimeter=0;strokeWidth=3;" parent="1" source="JxXNwAtKYRBv4QJeJSb--72" target="JxXNwAtKYRBv4QJeJSb--92" edge="1">
                    <mxGeometry relative="1" as="geometry"/>
                </mxCell>
                <mxCell id="JxXNwAtKYRBv4QJeJSb--72" value="" style="ellipse;whiteSpace=wrap;html=1;aspect=fixed;strokeWidth=3;fontSize=90;" parent="1" vertex="1">
                    <mxGeometry x="2945" y="3050" width="80" height="80" as="geometry"/>
                </mxCell>
                <mxCell id="JxXNwAtKYRBv4QJeJSb--123" style="edgeStyle=none;html=1;entryX=0.442;entryY=-0.066;entryDx=0;entryDy=0;entryPerimeter=0;strokeWidth=3;" parent="1" source="JxXNwAtKYRBv4QJeJSb--74" target="JxXNwAtKYRBv4QJeJSb--91" edge="1">
                    <mxGeometry relative="1" as="geometry"/>
                </mxCell>
                <mxCell id="JxXNwAtKYRBv4QJeJSb--74" value="" style="ellipse;whiteSpace=wrap;html=1;aspect=fixed;strokeWidth=3;fontSize=90;" parent="1" vertex="1">
                    <mxGeometry x="2700" y="3170" width="80" height="80" as="geometry"/>
                </mxCell>
                <mxCell id="JxXNwAtKYRBv4QJeJSb--79" style="edgeStyle=none;html=1;entryX=1;entryY=0;entryDx=0;entryDy=0;strokeWidth=3;" parent="1" source="JxXNwAtKYRBv4QJeJSb--76" target="JxXNwAtKYRBv4QJeJSb--78" edge="1">
                    <mxGeometry relative="1" as="geometry"/>
                </mxCell>
                <mxCell id="JxXNwAtKYRBv4QJeJSb--81" style="edgeStyle=none;html=1;entryX=1;entryY=0;entryDx=0;entryDy=0;strokeWidth=3;" parent="1" source="JxXNwAtKYRBv4QJeJSb--76" target="JxXNwAtKYRBv4QJeJSb--80" edge="1">
                    <mxGeometry relative="1" as="geometry"/>
                </mxCell>
                <mxCell id="JxXNwAtKYRBv4QJeJSb--122" style="edgeStyle=none;html=1;entryX=0.475;entryY=-0.033;entryDx=0;entryDy=0;entryPerimeter=0;strokeWidth=3;" parent="1" source="JxXNwAtKYRBv4QJeJSb--76" target="JxXNwAtKYRBv4QJeJSb--90" edge="1">
                    <mxGeometry relative="1" as="geometry"/>
                </mxCell>
                <mxCell id="JxXNwAtKYRBv4QJeJSb--76" value="" style="ellipse;whiteSpace=wrap;html=1;aspect=fixed;strokeWidth=3;fontSize=90;" parent="1" vertex="1">
                    <mxGeometry x="2475" y="3050" width="80" height="80" as="geometry"/>
                </mxCell>
                <mxCell id="JxXNwAtKYRBv4QJeJSb--121" style="edgeStyle=none;html=1;strokeWidth=3;" parent="1" source="JxXNwAtKYRBv4QJeJSb--78" target="JxXNwAtKYRBv4QJeJSb--89" edge="1">
                    <mxGeometry relative="1" as="geometry"/>
                </mxCell>
                <mxCell id="JxXNwAtKYRBv4QJeJSb--78" value="" style="ellipse;whiteSpace=wrap;html=1;aspect=fixed;strokeWidth=3;fontSize=90;" parent="1" vertex="1">
                    <mxGeometry x="2220" y="3170" width="80" height="80" as="geometry"/>
                </mxCell>
                <mxCell id="JxXNwAtKYRBv4QJeJSb--83" style="edgeStyle=none;html=1;entryX=1;entryY=0;entryDx=0;entryDy=0;strokeWidth=3;" parent="1" source="JxXNwAtKYRBv4QJeJSb--80" target="JxXNwAtKYRBv4QJeJSb--82" edge="1">
                    <mxGeometry relative="1" as="geometry"/>
                </mxCell>
                <mxCell id="JxXNwAtKYRBv4QJeJSb--120" style="edgeStyle=none;html=1;strokeWidth=3;" parent="1" source="JxXNwAtKYRBv4QJeJSb--80" target="JxXNwAtKYRBv4QJeJSb--88" edge="1">
                    <mxGeometry relative="1" as="geometry"/>
                </mxCell>
                <mxCell id="JxXNwAtKYRBv4QJeJSb--80" value="" style="ellipse;whiteSpace=wrap;html=1;aspect=fixed;strokeWidth=3;fontSize=90;" parent="1" vertex="1">
                    <mxGeometry x="1980" y="3170" width="80" height="80" as="geometry"/>
                </mxCell>
                <mxCell id="JxXNwAtKYRBv4QJeJSb--119" style="edgeStyle=none;html=1;strokeWidth=3;" parent="1" source="JxXNwAtKYRBv4QJeJSb--82" target="JxXNwAtKYRBv4QJeJSb--87" edge="1">
                    <mxGeometry relative="1" as="geometry"/>
                </mxCell>
                <mxCell id="JxXNwAtKYRBv4QJeJSb--82" value="" style="ellipse;whiteSpace=wrap;html=1;aspect=fixed;strokeWidth=3;fontSize=90;" parent="1" vertex="1">
                    <mxGeometry x="1740" y="3360" width="80" height="80" as="geometry"/>
                </mxCell>
                <mxCell id="JxXNwAtKYRBv4QJeJSb--84" value="&lt;font style=&quot;font-size: 90px;&quot;&gt;Co&lt;/font&gt;" style="text;html=1;align=center;verticalAlign=middle;resizable=0;points=[];autosize=1;strokeColor=none;fillColor=none;strokeWidth=3;fontSize=90;" parent="1" vertex="1">
                    <mxGeometry x="1480" y="3600" width="140" height="120" as="geometry"/>
                </mxCell>
                <mxCell id="JxXNwAtKYRBv4QJeJSb--87" value="31" style="text;html=1;align=center;verticalAlign=middle;resizable=0;points=[];autosize=1;strokeColor=none;fillColor=none;fontSize=90;strokeWidth=3;" parent="1" vertex="1">
                    <mxGeometry x="1725" y="3610" width="120" height="120" as="geometry"/>
                </mxCell>
                <mxCell id="JxXNwAtKYRBv4QJeJSb--88" value="30" style="text;html=1;align=center;verticalAlign=middle;resizable=0;points=[];autosize=1;strokeColor=none;fillColor=none;fontSize=90;strokeWidth=3;" parent="1" vertex="1">
                    <mxGeometry x="1965" y="3610" width="120" height="120" as="geometry"/>
                </mxCell>
                <mxCell id="JxXNwAtKYRBv4QJeJSb--89" value="29" style="text;html=1;align=center;verticalAlign=middle;resizable=0;points=[];autosize=1;strokeColor=none;fillColor=none;fontSize=90;strokeWidth=3;" parent="1" vertex="1">
                    <mxGeometry x="2205" y="3610" width="120" height="120" as="geometry"/>
                </mxCell>
                <mxCell id="JxXNwAtKYRBv4QJeJSb--90" value="28" style="text;html=1;align=center;verticalAlign=middle;resizable=0;points=[];autosize=1;strokeColor=none;fillColor=none;fontSize=90;strokeWidth=3;" parent="1" vertex="1">
                    <mxGeometry x="2445" y="3610" width="120" height="120" as="geometry"/>
                </mxCell>
                <mxCell id="JxXNwAtKYRBv4QJeJSb--91" value="27" style="text;html=1;align=center;verticalAlign=middle;resizable=0;points=[];autosize=1;strokeColor=none;fillColor=none;fontSize=90;strokeWidth=3;" parent="1" vertex="1">
                    <mxGeometry x="2685" y="3610" width="120" height="120" as="geometry"/>
                </mxCell>
                <mxCell id="JxXNwAtKYRBv4QJeJSb--92" value="26" style="text;html=1;align=center;verticalAlign=middle;resizable=0;points=[];autosize=1;strokeColor=none;fillColor=none;fontSize=90;strokeWidth=3;" parent="1" vertex="1">
                    <mxGeometry x="2925" y="3610" width="120" height="120" as="geometry"/>
                </mxCell>
                <mxCell id="JxXNwAtKYRBv4QJeJSb--93" value="25" style="text;html=1;align=center;verticalAlign=middle;resizable=0;points=[];autosize=1;strokeColor=none;fillColor=none;fontSize=90;strokeWidth=3;" parent="1" vertex="1">
                    <mxGeometry x="3165" y="3610" width="120" height="120" as="geometry"/>
                </mxCell>
                <mxCell id="JxXNwAtKYRBv4QJeJSb--94" value="24" style="text;html=1;align=center;verticalAlign=middle;resizable=0;points=[];autosize=1;strokeColor=none;fillColor=none;fontSize=90;strokeWidth=3;" parent="1" vertex="1">
                    <mxGeometry x="3405" y="3610" width="120" height="120" as="geometry"/>
                </mxCell>
                <mxCell id="JxXNwAtKYRBv4QJeJSb--95" value="23" style="text;html=1;align=center;verticalAlign=middle;resizable=0;points=[];autosize=1;strokeColor=none;fillColor=none;fontSize=90;strokeWidth=3;" parent="1" vertex="1">
                    <mxGeometry x="3645" y="3610" width="120" height="120" as="geometry"/>
                </mxCell>
                <mxCell id="JxXNwAtKYRBv4QJeJSb--96" value="22" style="text;html=1;align=center;verticalAlign=middle;resizable=0;points=[];autosize=1;strokeColor=none;fillColor=none;fontSize=90;strokeWidth=3;" parent="1" vertex="1">
                    <mxGeometry x="3885" y="3610" width="120" height="120" as="geometry"/>
                </mxCell>
                <mxCell id="JxXNwAtKYRBv4QJeJSb--97" value="21" style="text;html=1;align=center;verticalAlign=middle;resizable=0;points=[];autosize=1;strokeColor=none;fillColor=none;fontSize=90;strokeWidth=3;" parent="1" vertex="1">
                    <mxGeometry x="4125" y="3610" width="120" height="120" as="geometry"/>
                </mxCell>
                <mxCell id="JxXNwAtKYRBv4QJeJSb--98" value="20" style="text;html=1;align=center;verticalAlign=middle;resizable=0;points=[];autosize=1;strokeColor=none;fillColor=none;fontSize=90;strokeWidth=3;" parent="1" vertex="1">
                    <mxGeometry x="4365" y="3610" width="120" height="120" as="geometry"/>
                </mxCell>
                <mxCell id="JxXNwAtKYRBv4QJeJSb--99" value="19" style="text;html=1;align=center;verticalAlign=middle;resizable=0;points=[];autosize=1;strokeColor=none;fillColor=none;fontSize=90;strokeWidth=3;" parent="1" vertex="1">
                    <mxGeometry x="4605" y="3610" width="120" height="120" as="geometry"/>
                </mxCell>
                <mxCell id="JxXNwAtKYRBv4QJeJSb--100" value="18" style="text;html=1;align=center;verticalAlign=middle;resizable=0;points=[];autosize=1;strokeColor=none;fillColor=none;fontSize=90;strokeWidth=3;" parent="1" vertex="1">
                    <mxGeometry x="4845" y="3610" width="120" height="120" as="geometry"/>
                </mxCell>
                <mxCell id="JxXNwAtKYRBv4QJeJSb--101" value="17" style="text;html=1;align=center;verticalAlign=middle;resizable=0;points=[];autosize=1;strokeColor=none;fillColor=none;fontSize=90;strokeWidth=3;" parent="1" vertex="1">
                    <mxGeometry x="5085" y="3610" width="120" height="120" as="geometry"/>
                </mxCell>
                <mxCell id="JxXNwAtKYRBv4QJeJSb--102" value="16" style="text;html=1;align=center;verticalAlign=middle;resizable=0;points=[];autosize=1;strokeColor=none;fillColor=none;fontSize=90;strokeWidth=3;" parent="1" vertex="1">
                    <mxGeometry x="5325" y="3610" width="120" height="120" as="geometry"/>
                </mxCell>
                <mxCell id="JxXNwAtKYRBv4QJeJSb--103" value="15" style="text;html=1;align=center;verticalAlign=middle;resizable=0;points=[];autosize=1;strokeColor=none;fillColor=none;fontSize=90;strokeWidth=3;" parent="1" vertex="1">
                    <mxGeometry x="5565" y="3610" width="120" height="120" as="geometry"/>
                </mxCell>
                <mxCell id="JxXNwAtKYRBv4QJeJSb--104" value="14" style="text;html=1;align=center;verticalAlign=middle;resizable=0;points=[];autosize=1;strokeColor=none;fillColor=none;fontSize=90;strokeWidth=3;" parent="1" vertex="1">
                    <mxGeometry x="5805" y="3610" width="120" height="120" as="geometry"/>
                </mxCell>
                <mxCell id="JxXNwAtKYRBv4QJeJSb--105" value="13" style="text;html=1;align=center;verticalAlign=middle;resizable=0;points=[];autosize=1;strokeColor=none;fillColor=none;fontSize=90;strokeWidth=3;" parent="1" vertex="1">
                    <mxGeometry x="6045" y="3610" width="120" height="120" as="geometry"/>
                </mxCell>
                <mxCell id="JxXNwAtKYRBv4QJeJSb--106" value="12" style="text;html=1;align=center;verticalAlign=middle;resizable=0;points=[];autosize=1;strokeColor=none;fillColor=none;fontSize=90;strokeWidth=3;" parent="1" vertex="1">
                    <mxGeometry x="6285" y="3610" width="120" height="120" as="geometry"/>
                </mxCell>
                <mxCell id="JxXNwAtKYRBv4QJeJSb--107" value="11" style="text;html=1;align=center;verticalAlign=middle;resizable=0;points=[];autosize=1;strokeColor=none;fillColor=none;fontSize=90;strokeWidth=3;" parent="1" vertex="1">
                    <mxGeometry x="6525" y="3610" width="120" height="120" as="geometry"/>
                </mxCell>
                <mxCell id="JxXNwAtKYRBv4QJeJSb--108" value="10" style="text;html=1;align=center;verticalAlign=middle;resizable=0;points=[];autosize=1;strokeColor=none;fillColor=none;fontSize=90;strokeWidth=3;" parent="1" vertex="1">
                    <mxGeometry x="6765" y="3610" width="120" height="120" as="geometry"/>
                </mxCell>
                <mxCell id="JxXNwAtKYRBv4QJeJSb--109" value="9" style="text;html=1;align=center;verticalAlign=middle;resizable=0;points=[];autosize=1;strokeColor=none;fillColor=none;fontSize=90;strokeWidth=3;" parent="1" vertex="1">
                    <mxGeometry x="7030" y="3610" width="70" height="120" as="geometry"/>
                </mxCell>
                <mxCell id="JxXNwAtKYRBv4QJeJSb--110" value="8" style="text;html=1;align=center;verticalAlign=middle;resizable=0;points=[];autosize=1;strokeColor=none;fillColor=none;fontSize=90;strokeWidth=3;" parent="1" vertex="1">
                    <mxGeometry x="7270" y="3610" width="70" height="120" as="geometry"/>
                </mxCell>
                <mxCell id="JxXNwAtKYRBv4QJeJSb--111" value="7" style="text;html=1;align=center;verticalAlign=middle;resizable=0;points=[];autosize=1;strokeColor=none;fillColor=none;fontSize=90;strokeWidth=3;" parent="1" vertex="1">
                    <mxGeometry x="7510" y="3610" width="70" height="120" as="geometry"/>
                </mxCell>
                <mxCell id="JxXNwAtKYRBv4QJeJSb--112" value="6" style="text;html=1;align=center;verticalAlign=middle;resizable=0;points=[];autosize=1;strokeColor=none;fillColor=none;fontSize=90;strokeWidth=3;" parent="1" vertex="1">
                    <mxGeometry x="7750" y="3610" width="70" height="120" as="geometry"/>
                </mxCell>
                <mxCell id="JxXNwAtKYRBv4QJeJSb--113" value="5" style="text;html=1;align=center;verticalAlign=middle;resizable=0;points=[];autosize=1;strokeColor=none;fillColor=none;fontSize=90;strokeWidth=3;" parent="1" vertex="1">
                    <mxGeometry x="7990" y="3610" width="70" height="120" as="geometry"/>
                </mxCell>
                <mxCell id="JxXNwAtKYRBv4QJeJSb--114" value="4" style="text;html=1;align=center;verticalAlign=middle;resizable=0;points=[];autosize=1;strokeColor=none;fillColor=none;fontSize=90;strokeWidth=3;" parent="1" vertex="1">
                    <mxGeometry x="8230" y="3610" width="70" height="120" as="geometry"/>
                </mxCell>
                <mxCell id="JxXNwAtKYRBv4QJeJSb--115" value="3" style="text;html=1;align=center;verticalAlign=middle;resizable=0;points=[];autosize=1;strokeColor=none;fillColor=none;fontSize=90;strokeWidth=3;" parent="1" vertex="1">
                    <mxGeometry x="8470" y="3610" width="70" height="120" as="geometry"/>
                </mxCell>
                <mxCell id="JxXNwAtKYRBv4QJeJSb--116" value="2" style="text;html=1;align=center;verticalAlign=middle;resizable=0;points=[];autosize=1;strokeColor=none;fillColor=none;fontSize=90;strokeWidth=3;" parent="1" vertex="1">
                    <mxGeometry x="8710" y="3610" width="70" height="120" as="geometry"/>
                </mxCell>
                <mxCell id="JxXNwAtKYRBv4QJeJSb--117" value="1" style="text;html=1;align=center;verticalAlign=middle;resizable=0;points=[];autosize=1;strokeColor=none;fillColor=none;fontSize=90;strokeWidth=3;" parent="1" vertex="1">
                    <mxGeometry x="8955" y="3610" width="70" height="120" as="geometry"/>
                </mxCell>
                <mxCell id="JxXNwAtKYRBv4QJeJSb--118" value="0" style="text;html=1;align=center;verticalAlign=middle;resizable=0;points=[];autosize=1;strokeColor=none;fillColor=none;fontSize=90;strokeWidth=3;" parent="1" vertex="1">
                    <mxGeometry x="9195" y="3610" width="70" height="120" as="geometry"/>
                </mxCell>
                <mxCell id="JxXNwAtKYRBv4QJeJSb--151" value="0" style="text;html=1;align=center;verticalAlign=middle;resizable=0;points=[];autosize=1;strokeColor=none;fillColor=none;fontSize=90;strokeWidth=3;" parent="1" vertex="1">
                    <mxGeometry x="855" y="475" width="70" height="120" as="geometry"/>
                </mxCell>
                <mxCell id="JxXNwAtKYRBv4QJeJSb--152" value="1" style="text;html=1;align=center;verticalAlign=middle;resizable=0;points=[];autosize=1;strokeColor=none;fillColor=none;fontSize=90;strokeWidth=3;" parent="1" vertex="1">
                    <mxGeometry x="845" y="815" width="70" height="120" as="geometry"/>
                </mxCell>
                <mxCell id="JxXNwAtKYRBv4QJeJSb--153" value="2" style="text;html=1;align=center;verticalAlign=middle;resizable=0;points=[];autosize=1;strokeColor=none;fillColor=none;fontSize=90;strokeWidth=3;" parent="1" vertex="1">
                    <mxGeometry x="845" y="1055" width="70" height="120" as="geometry"/>
                </mxCell>
                <mxCell id="JxXNwAtKYRBv4QJeJSb--154" value="3" style="text;html=1;align=center;verticalAlign=middle;resizable=0;points=[];autosize=1;strokeColor=none;fillColor=none;fontSize=90;strokeWidth=3;" parent="1" vertex="1">
                    <mxGeometry x="855" y="1300" width="70" height="120" as="geometry"/>
                </mxCell>
                <mxCell id="JxXNwAtKYRBv4QJeJSb--155" value="4" style="text;html=1;align=center;verticalAlign=middle;resizable=0;points=[];autosize=1;strokeColor=none;fillColor=none;fontSize=90;strokeWidth=3;" parent="1" vertex="1">
                    <mxGeometry x="855" y="1535" width="70" height="120" as="geometry"/>
                </mxCell>
                <mxCell id="JxXNwAtKYRBv4QJeJSb--156" value="5" style="text;html=1;align=center;verticalAlign=middle;resizable=0;points=[];autosize=1;strokeColor=none;fillColor=none;fontSize=90;strokeWidth=3;" parent="1" vertex="1">
                    <mxGeometry x="865" y="1770" width="70" height="120" as="geometry"/>
                </mxCell>
                <mxCell id="JxXNwAtKYRBv4QJeJSb--157" value="6" style="text;html=1;align=center;verticalAlign=middle;resizable=0;points=[];autosize=1;strokeColor=none;fillColor=none;fontSize=90;strokeWidth=3;" parent="1" vertex="1">
                    <mxGeometry x="840" y="2650" width="70" height="120" as="geometry"/>
                </mxCell>
                <mxCell id="JxXNwAtKYRBv4QJeJSb--158" value="7" style="text;html=1;align=center;verticalAlign=middle;resizable=0;points=[];autosize=1;strokeColor=none;fillColor=none;fontSize=90;strokeWidth=3;" parent="1" vertex="1">
                    <mxGeometry x="845" y="2880" width="70" height="120" as="geometry"/>
                </mxCell>
                <mxCell id="JxXNwAtKYRBv4QJeJSb--159" value="8" style="text;html=1;align=center;verticalAlign=middle;resizable=0;points=[];autosize=1;strokeColor=none;fillColor=none;fontSize=90;strokeWidth=3;" parent="1" vertex="1">
                    <mxGeometry x="845" y="3030" width="70" height="120" as="geometry"/>
                </mxCell>
                <mxCell id="JxXNwAtKYRBv4QJeJSb--160" value="9" style="text;html=1;align=center;verticalAlign=middle;resizable=0;points=[];autosize=1;strokeColor=none;fillColor=none;fontSize=90;strokeWidth=3;" parent="1" vertex="1">
                    <mxGeometry x="845" y="3150" width="70" height="120" as="geometry"/>
                </mxCell>
                <mxCell id="JxXNwAtKYRBv4QJeJSb--161" value="10" style="text;html=1;align=center;verticalAlign=middle;resizable=0;points=[];autosize=1;strokeColor=none;fillColor=none;fontSize=90;strokeWidth=3;" parent="1" vertex="1">
                    <mxGeometry x="795" y="3330" width="120" height="120" as="geometry"/>
                </mxCell>
                <mxCell id="-SzatG3sDyjyBPGcYduU-16" style="edgeStyle=none;html=1;entryX=0.41;entryY=-0.083;entryDx=0;entryDy=0;entryPerimeter=0;strokeWidth=3;" parent="1" source="-SzatG3sDyjyBPGcYduU-15" target="JxXNwAtKYRBv4QJeJSb--13" edge="1">
                    <mxGeometry relative="1" as="geometry"/>
                </mxCell>
                <mxCell id="-SzatG3sDyjyBPGcYduU-15" value="Ci" style="text;html=1;align=center;verticalAlign=middle;resizable=0;points=[];autosize=1;strokeColor=none;fillColor=none;fontSize=90;strokeWidth=3;" parent="1" vertex="1">
                    <mxGeometry x="9155" y="270" width="110" height="120" as="geometry"/>
                </mxCell>
            </root>
        </mxGraphModel>
    </diagram>
</mxfile>